<svg width="24" height="25" viewBox="0 0 24 25" fill="none" xmlns="http://www.w3.org/2000/svg">
<path d="M6.97794 3.29104C7.00386 3.03577 7.2188 2.84155 7.47538 2.84155H16.6198C16.8764 2.84155 17.0914 3.03577 17.1173 3.29104L17.9142 11.1396C17.9441 11.4342 17.7129 11.6901 17.4168 11.6901H6.67846C6.38234 11.6901 6.1511 11.4342 6.18102 11.1396L6.97794 3.29104Z" stroke="black"/>
<path d="M16.5724 21.1639V15.6616C16.5724 15.1093 16.1247 14.6616 15.5724 14.6616H8.52246C7.97018 14.6616 7.52246 15.1093 7.52246 15.6616V21.0119" stroke="black" stroke-linecap="round"/>
<path d="M9.05762 11.8354V14.371" stroke="black"/>
<path d="M14.9907 11.8354V14.371" stroke="black"/>
<path d="M7.40918 19.29H10.2238M16.5371 19.29H13.5453M10.2238 19.29V21.434C10.2238 21.9863 10.6715 22.434 11.2238 22.434H12.5453C13.0976 22.434 13.5453 21.9863 13.5453 21.434V19.29M10.2238 19.29H13.5453" stroke="black"/>
</svg>
