<svg width="80" height="81" viewBox="0 0 80 81" fill="none" xmlns="http://www.w3.org/2000/svg">
<rect y="0.743164" width="80" height="80" rx="13.3333" fill="white"/>
<g clip-path="url(#clip0_53_5063)">
<path d="M15.0002 35.5345C15.0002 34.9595 15.4669 34.4928 16.0419 34.4928H26.4586C27.0336 34.4928 27.5002 34.9595 27.5002 35.5345C27.5002 36.1095 27.0336 36.5762 26.4586 36.5762H16.0419C15.4669 36.5762 15.0002 36.1095 15.0002 35.5345ZM65.0002 37.6178V48.0345C65.0002 51.1512 63.0336 53.8178 60.2752 54.8595C60.6419 55.6595 60.8336 56.522 60.8336 57.4095C60.8336 60.8553 58.0294 63.6595 54.5836 63.6595C51.1377 63.6595 48.3336 60.8553 48.3336 57.4095C48.3336 56.6928 48.4586 55.9908 48.7002 55.3262H31.3002C31.5419 55.9908 31.6669 56.6928 31.6669 57.4095C31.6669 60.8553 28.8627 63.6595 25.4169 63.6595C21.9711 63.6595 19.1669 60.8553 19.1669 57.4095C19.1669 56.522 19.3586 55.6595 19.7252 54.8595C16.9669 53.8178 15.0002 51.1512 15.0002 48.0345V41.7845C15.0002 41.2095 15.4669 40.7428 16.0419 40.7428C16.6169 40.7428 17.0836 41.2095 17.0836 41.7845V48.0345C17.0836 50.9053 19.419 53.2428 22.2919 53.2428H48.3336V27.2012C48.3336 23.1803 45.0627 19.9095 41.0419 19.9095C40.4669 19.9095 40.0002 19.4428 40.0002 18.8678C40.0002 18.2928 40.4669 17.8262 41.0419 17.8262C46.2107 17.8262 50.4169 22.0324 50.4169 27.2012V28.2428H55.6252C60.794 28.2428 65.0002 32.4491 65.0002 37.6178ZM50.4169 30.3262V40.7428H62.9169V37.6178C62.9169 33.597 59.6461 30.3262 55.6252 30.3262H50.4169ZM29.0065 55.3262H22.2919C22.1398 55.3262 21.9877 55.3199 21.8357 55.3116C21.4502 55.9553 21.2502 56.6699 21.2502 57.4095C21.2502 59.7074 23.119 61.5762 25.4169 61.5762C27.7148 61.5762 29.5836 59.7074 29.5836 57.4095C29.5836 56.6762 29.3857 55.9658 29.0065 55.3262ZM58.1648 55.3116C58.0148 55.322 57.8627 55.3262 57.7086 55.3262H50.994C50.6148 55.9658 50.4169 56.6762 50.4169 57.4095C50.4169 59.7074 52.2857 61.5762 54.5836 61.5762C56.8815 61.5762 58.7502 59.7074 58.7502 57.4095C58.7502 56.6699 58.5482 55.9553 58.1648 55.3116ZM62.9169 48.0345V42.8262H50.4169V53.2428H57.7086C60.5815 53.2428 62.9169 50.9053 62.9169 48.0345ZM16.0419 19.9095H34.7919C35.3669 19.9095 35.8336 19.4428 35.8336 18.8678C35.8336 18.2928 35.3669 17.8262 34.7919 17.8262H16.0419C15.4669 17.8262 15.0002 18.2928 15.0002 18.8678C15.0002 19.4428 15.4669 19.9095 16.0419 19.9095ZM16.0419 28.2428H30.6252C31.2002 28.2428 31.6669 27.7762 31.6669 27.2012C31.6669 26.6262 31.2002 26.1595 30.6252 26.1595H16.0419C15.4669 26.1595 15.0002 26.6262 15.0002 27.2012C15.0002 27.7762 15.4669 28.2428 16.0419 28.2428Z" fill="#FFB300"/>
</g>
<defs>
<clipPath id="clip0_53_5063">
<rect width="50" height="50" fill="white" transform="translate(15 15.7432)"/>
</clipPath>
</defs>
</svg>
