<svg width="56" height="57" viewBox="0 0 56 57" fill="none" xmlns="http://www.w3.org/2000/svg">
<rect x="0.496826" y="0.973633" width="55.4868" height="55.4868" rx="27.7434" fill="#FFB300"/>
<rect x="0.496826" y="0.973633" width="55.4868" height="55.4868" rx="27.7434" fill="url(#paint0_linear_53_4450)"/>
<g clip-path="url(#clip0_53_4450)">
<path d="M14.4968 25.8005C14.4968 25.4785 14.7582 25.2171 15.0802 25.2171H20.9135C21.2355 25.2171 21.4968 25.4785 21.4968 25.8005C21.4968 26.1225 21.2355 26.3838 20.9135 26.3838H15.0802C14.7582 26.3838 14.4968 26.1225 14.4968 25.8005ZM42.4968 26.9671V32.8005C42.4968 34.5458 41.3955 36.0391 39.8508 36.6225C40.0562 37.0705 40.1635 37.5535 40.1635 38.0505C40.1635 39.9801 38.5932 41.5505 36.6635 41.5505C34.7338 41.5505 33.1635 39.9801 33.1635 38.0505C33.1635 37.6491 33.2335 37.256 33.3688 36.8838H23.6248C23.7602 37.256 23.8302 37.6491 23.8302 38.0505C23.8302 39.9801 22.2598 41.5505 20.3302 41.5505C18.4005 41.5505 16.8302 39.9801 16.8302 38.0505C16.8302 37.5535 16.9375 37.0705 17.1428 36.6225C15.5982 36.0391 14.4968 34.5458 14.4968 32.8005V29.3005C14.4968 28.9785 14.7582 28.7171 15.0802 28.7171C15.4022 28.7171 15.6635 28.9785 15.6635 29.3005V32.8005C15.6635 34.4081 16.9713 35.7171 18.5802 35.7171H33.1635V21.1338C33.1635 18.8821 31.3318 17.0505 29.0802 17.0505C28.7582 17.0505 28.4968 16.7891 28.4968 16.4671C28.4968 16.1451 28.7582 15.8838 29.0802 15.8838C31.9747 15.8838 34.3302 18.2393 34.3302 21.1338V21.7171H37.2468C40.1413 21.7171 42.4968 24.0726 42.4968 26.9671ZM34.3302 22.8838V28.7171H41.3302V26.9671C41.3302 24.7155 39.4985 22.8838 37.2468 22.8838H34.3302ZM22.3403 36.8838H18.5802C18.495 36.8838 18.4098 36.8803 18.3247 36.8756C18.1088 37.2361 17.9968 37.6363 17.9968 38.0505C17.9968 39.3373 19.0433 40.3838 20.3302 40.3838C21.617 40.3838 22.6635 39.3373 22.6635 38.0505C22.6635 37.6398 22.5527 37.242 22.3403 36.8838ZM38.669 36.8756C38.585 36.8815 38.4998 36.8838 38.4135 36.8838H34.6533C34.441 37.242 34.3302 37.6398 34.3302 38.0505C34.3302 39.3373 35.3767 40.3838 36.6635 40.3838C37.9503 40.3838 38.9968 39.3373 38.9968 38.0505C38.9968 37.6363 38.8837 37.2361 38.669 36.8756ZM41.3302 32.8005V29.8838H34.3302V35.7171H38.4135C40.0223 35.7171 41.3302 34.4081 41.3302 32.8005ZM15.0802 17.0505H25.5802C25.9022 17.0505 26.1635 16.7891 26.1635 16.4671C26.1635 16.1451 25.9022 15.8838 25.5802 15.8838H15.0802C14.7582 15.8838 14.4968 16.1451 14.4968 16.4671C14.4968 16.7891 14.7582 17.0505 15.0802 17.0505ZM15.0802 21.7171H23.2468C23.5688 21.7171 23.8302 21.4558 23.8302 21.1338C23.8302 20.8118 23.5688 20.5505 23.2468 20.5505H15.0802C14.7582 20.5505 14.4968 20.8118 14.4968 21.1338C14.4968 21.4558 14.7582 21.7171 15.0802 21.7171Z" fill="#191919"/>
</g>
<defs>
<linearGradient id="paint0_linear_53_4450" x1="8.52293" y1="2.80263" x2="55.6572" y2="25.194" gradientUnits="userSpaceOnUse">
<stop stop-color="#FFCC54"/>
<stop offset="1" stop-color="#FFB300"/>
</linearGradient>
<clipPath id="clip0_53_4450">
<rect width="28" height="28" fill="white" transform="translate(14.4968 14.717)"/>
</clipPath>
</defs>
</svg>
