<svg width="61" height="60" viewBox="0 0 61 60" fill="none" xmlns="http://www.w3.org/2000/svg">
<rect x="0.5" width="60" height="60" rx="17.1429" fill="white"/>
<path d="M50.0948 21.9365L36.6573 14.5579C36.542 14.4947 36.4127 14.4615 36.2813 14.4615C36.1499 14.4615 36.0205 14.4947 35.9053 14.5579L30.8522 17.3326C30.7369 17.3649 30.6305 17.4233 30.5413 17.5032L22.4677 21.9365C22.345 22.0039 22.2427 22.103 22.1714 22.2234C22.1001 22.3439 22.0625 22.4813 22.0624 22.6213V24.2186H13.0488C12.6173 24.2186 12.2676 24.5686 12.2676 24.9999C12.2676 25.4314 12.6173 25.7811 13.0488 25.7811H22.0625V28.5936H17.5834C17.152 28.5936 16.8022 28.9436 16.8022 29.3749C16.8022 29.8064 17.152 30.1561 17.5834 30.1561H22.0625V34.2186H15.5C15.0685 34.2186 14.7188 34.5686 14.7188 34.9999C14.7188 35.4313 15.0685 35.7811 15.5 35.7811H22.0625V37.3787C22.0625 37.6637 22.2178 37.9262 22.4678 38.0635L35.9053 45.4421C36.0225 45.5064 36.1519 45.5385 36.2812 45.5385C36.4106 45.5385 36.5401 45.5064 36.6573 45.4421L50.0948 38.0635C50.2174 37.9961 50.3198 37.897 50.3911 37.7765C50.4623 37.6561 50.5 37.5187 50.5 37.3787V33.8802C50.5 33.4489 50.1502 33.0989 49.7188 33.0989C49.2873 33.0989 48.9375 33.4489 48.9375 33.8802V36.9163L37.0625 43.4371V30.4622L40.8391 28.3885V31.6796C40.839 31.7822 40.8592 31.8838 40.8984 31.9786C40.9377 32.0734 40.9952 32.1595 41.0678 32.2321C41.1403 32.3046 41.2265 32.3622 41.3213 32.4014C41.4161 32.4407 41.5177 32.4608 41.6203 32.4608C41.7497 32.4608 41.8794 32.4288 41.9969 32.364L44.8766 30.7792C44.999 30.7118 45.1012 30.6126 45.1723 30.4922C45.2434 30.3718 45.2809 30.2345 45.2809 30.0947V25.9496L48.9375 23.9417V27.6302C48.9375 28.0617 49.2873 28.4114 49.7188 28.4114C50.1502 28.4114 50.5 28.0617 50.5 27.6302V22.6213C50.5 22.3363 50.3448 22.0738 50.0948 21.9365ZM35.5 43.4371L23.625 36.9163V23.9418L35.5 30.4621V43.4371ZM36.2812 29.1087L24.467 22.6213L28.1801 20.5824L39.9946 27.0699L36.2812 29.1087ZM41.6179 26.1785L29.8033 19.691L31.0841 18.9878L42.8984 25.4753L41.6179 26.1785ZM43.7184 29.633L42.4016 30.3578V27.5306L43.7184 26.8074V29.633ZM44.5216 24.5838L32.7073 18.0964L36.2812 16.1342L48.0955 22.6213L44.5216 24.5838Z" fill="#272727"/>
<path d="M49.7188 29.9743C49.5116 29.9746 49.313 30.0569 49.1664 30.2032C49.0203 30.3499 48.938 30.5484 48.9375 30.7555C48.9375 30.9608 49.0211 31.1625 49.1664 31.3078C49.3117 31.4532 49.5134 31.5368 49.7188 31.5368C49.9241 31.5368 50.1258 31.4532 50.2711 31.3078C50.417 31.161 50.4993 30.9626 50.5 30.7555C50.5 30.5492 50.4164 30.3484 50.2711 30.2032C50.1245 30.0569 49.9259 29.9746 49.7188 29.9743ZM12.4009 34.2185H11.2812C10.8498 34.2185 10.5 34.5686 10.5 34.9998C10.5 35.4314 10.8498 35.7811 11.2812 35.7811H12.4009C12.8324 35.7811 13.1822 35.4314 13.1822 34.9998C13.1822 34.5686 12.8324 34.2185 12.4009 34.2185ZM15.24 29.3748C15.24 29.1695 15.1564 28.9681 15.0108 28.8228C14.8641 28.6767 14.6658 28.5943 14.4588 28.5936C14.2516 28.5942 14.0531 28.6766 13.9064 28.8228C13.7601 28.9693 13.6778 29.1678 13.6775 29.3749C13.6775 29.5805 13.7602 29.7819 13.9064 29.9272C14.0532 30.0732 14.2517 30.1555 14.4588 30.1561C14.6641 30.1561 14.8655 30.0728 15.0108 29.9272C15.157 29.7805 15.2394 29.582 15.24 29.3749V29.3748Z" fill="#272727"/>
</svg>
