<svg width="32" height="33" viewBox="0 0 32 33" fill="none" xmlns="http://www.w3.org/2000/svg">
<g clip-path="url(#clip0_103_4)">
<path d="M17.1146 0.780377C12.4813 0.47371 7.94793 2.16438 4.6786 5.43771C1.40927 8.71238 -0.281399 13.247 0.039934 17.8817C0.626601 26.3537 8.10927 32.743 17.4453 32.743H25.3346C29.0106 32.743 32.0013 29.7524 32.0013 26.0764V17.1964C31.9999 8.55771 25.4613 1.34838 17.1146 0.780377ZM15.8706 26.0764C14.7666 26.0764 13.8706 25.1804 13.8706 24.0764C13.8706 22.9724 14.7666 22.0764 15.8706 22.0764C16.9746 22.0764 17.8706 22.9724 17.8706 24.0764C17.8706 25.1804 16.9746 26.0764 15.8706 26.0764ZM18.4413 17.3937C17.7466 17.7764 17.2039 18.6617 17.2039 19.4097C17.2039 20.147 16.6066 20.743 15.8706 20.743C15.1346 20.743 14.5373 20.147 14.5373 19.4097C14.5373 17.6964 15.6133 15.907 17.1546 15.0577C18.1719 14.4977 18.6973 13.3857 18.4933 12.2244C18.3093 11.1764 17.4133 10.2804 16.3653 10.0964C15.5586 9.95371 14.7706 10.1617 14.1559 10.6764C13.5506 11.1857 13.2039 11.9297 13.2039 12.719C13.2039 13.4564 12.6066 14.0524 11.8706 14.0524C11.1346 14.0524 10.5373 13.4564 10.5373 12.719C10.5373 11.139 11.2319 9.65104 12.4413 8.63504C13.6519 7.61904 15.2506 7.19771 16.8266 7.46971C18.9773 7.84704 20.7439 9.61238 21.1213 11.7644C21.5186 14.0297 20.4426 16.2924 18.4426 17.395L18.4413 17.3937Z" fill="#FFB300"/>
<path d="M17.1146 0.780377C12.4813 0.47371 7.94793 2.16438 4.6786 5.43771C1.40927 8.71238 -0.281399 13.247 0.039934 17.8817C0.626601 26.3537 8.10927 32.743 17.4453 32.743H25.3346C29.0106 32.743 32.0013 29.7524 32.0013 26.0764V17.1964C31.9999 8.55771 25.4613 1.34838 17.1146 0.780377ZM15.8706 26.0764C14.7666 26.0764 13.8706 25.1804 13.8706 24.0764C13.8706 22.9724 14.7666 22.0764 15.8706 22.0764C16.9746 22.0764 17.8706 22.9724 17.8706 24.0764C17.8706 25.1804 16.9746 26.0764 15.8706 26.0764ZM18.4413 17.3937C17.7466 17.7764 17.2039 18.6617 17.2039 19.4097C17.2039 20.147 16.6066 20.743 15.8706 20.743C15.1346 20.743 14.5373 20.147 14.5373 19.4097C14.5373 17.6964 15.6133 15.907 17.1546 15.0577C18.1719 14.4977 18.6973 13.3857 18.4933 12.2244C18.3093 11.1764 17.4133 10.2804 16.3653 10.0964C15.5586 9.95371 14.7706 10.1617 14.1559 10.6764C13.5506 11.1857 13.2039 11.9297 13.2039 12.719C13.2039 13.4564 12.6066 14.0524 11.8706 14.0524C11.1346 14.0524 10.5373 13.4564 10.5373 12.719C10.5373 11.139 11.2319 9.65104 12.4413 8.63504C13.6519 7.61904 15.2506 7.19771 16.8266 7.46971C18.9773 7.84704 20.7439 9.61238 21.1213 11.7644C21.5186 14.0297 20.4426 16.2924 18.4426 17.395L18.4413 17.3937Z" fill="url(#paint0_linear_103_4)"/>
</g>
<defs>
<linearGradient id="paint0_linear_103_4" x1="4.62999" y1="1.79962" x2="31.8124" y2="14.7135" gradientUnits="userSpaceOnUse">
<stop stop-color="#FFCC54"/>
<stop offset="1" stop-color="#FFB300"/>
</linearGradient>
<clipPath id="clip0_103_4">
<rect width="32" height="32" fill="white" transform="translate(0 0.743164)"/>
</clipPath>
</defs>
</svg>
