<svg width="81" height="81" viewBox="0 0 81 81" fill="none" xmlns="http://www.w3.org/2000/svg">
<rect x="0.5" y="0.743164" width="80" height="80" rx="13.3333" fill="white"/>
<g clip-path="url(#clip0_53_5044)">
<path d="M40.6798 42.7743C40.5874 42.7541 40.4922 42.7509 40.3987 42.7647C39.4596 42.6554 38.7512 41.8609 38.7496 40.9158C38.7496 40.6983 38.6632 40.4897 38.5093 40.3359C38.3555 40.182 38.1469 40.0956 37.9294 40.0956C37.7119 40.0956 37.5033 40.182 37.3495 40.3359C37.1957 40.4897 37.1093 40.6983 37.1093 40.9158C37.1117 42.4939 38.1673 43.8764 39.689 44.2941V45.1142C39.689 45.3317 39.7754 45.5403 39.9293 45.6941C40.0831 45.8479 40.2917 45.9343 40.5092 45.9343C40.7267 45.9343 40.9353 45.8479 41.0891 45.6941C41.2429 45.5403 41.3293 45.3317 41.3293 45.1142V44.3437C43.0858 43.976 44.2795 42.3402 44.095 40.5553C43.9099 38.7705 42.4062 37.4142 40.6117 37.4138C39.5833 37.4138 38.7496 36.58 38.7496 35.5516C38.7496 34.5233 39.5833 33.6895 40.6117 33.6895C41.6401 33.6895 42.4738 34.5232 42.4738 35.5516C42.4738 35.7691 42.5602 35.9777 42.7141 36.1316C42.8679 36.2854 43.0765 36.3718 43.294 36.3718C43.5115 36.3718 43.7201 36.2854 43.8739 36.1316C44.0277 35.9777 44.1141 35.7691 44.1141 35.5516C44.1118 33.8945 42.9509 32.4652 41.3293 32.1232V31.3768C41.3293 31.1593 41.2429 30.9507 41.0891 30.7969C40.9353 30.643 40.7267 30.5566 40.5092 30.5566C40.2917 30.5566 40.0831 30.643 39.9293 30.7969C39.7754 30.9507 39.689 31.1593 39.689 31.3768V32.1734C37.9967 32.6354 36.9074 34.2786 37.1404 36.0174C37.3735 37.7562 38.8573 39.054 40.6117 39.0536C41.6265 39.0536 42.4543 39.8662 42.4726 40.8805C42.4915 41.8949 41.6938 42.7374 40.6798 42.7743Z" fill="#FFB300"/>
<path d="M28.7188 38.2967C28.7188 44.8651 34.0433 50.1896 40.6117 50.1896C47.18 50.1896 52.5046 44.8651 52.5046 38.2967C52.5046 31.7284 47.18 26.4038 40.6117 26.4038C34.0465 26.411 28.7264 31.7316 28.7188 38.2967ZM40.6117 28.0441C46.2741 28.0441 50.8643 32.6342 50.8643 38.2967C50.8643 43.9592 46.2741 48.5493 40.6117 48.5493C34.9492 48.5493 30.359 43.9592 30.359 38.2967C30.3655 32.637 34.952 28.0506 40.6117 28.0441Z" fill="#FFB300"/>
<path d="M56.5475 52.2114L50.1229 55.2469C49.6871 54.4363 49.0452 53.7549 48.262 53.2716C47.4787 52.7883 46.5819 52.5201 45.6619 52.4941L39.731 52.3311C38.7917 52.3042 37.8704 52.0664 37.0355 51.6351L36.4321 51.3224C34.9096 50.5289 33.2178 50.1154 31.5009 50.1172C29.784 50.119 28.0931 50.5361 26.5723 51.3328L26.6099 49.9656C26.6129 49.8579 26.5946 49.7507 26.5562 49.6501C26.5177 49.5495 26.4598 49.4574 26.3858 49.3792C26.3118 49.3009 26.223 49.238 26.1247 49.1941C26.0263 49.1501 25.9203 49.126 25.8126 49.123L19.3091 48.9441C19.2014 48.9411 19.0942 48.9594 18.9936 48.9979C18.893 49.0363 18.801 49.0943 18.7228 49.1683C18.6446 49.2424 18.5817 49.3311 18.5378 49.4294C18.4939 49.5278 18.4698 49.6338 18.4669 49.7415L18.074 64.0129C18.071 64.1206 18.0893 64.2279 18.1277 64.3285C18.1662 64.4291 18.2241 64.5212 18.2982 64.5995C18.3722 64.6777 18.4609 64.7407 18.5593 64.7846C18.6577 64.8285 18.7637 64.8527 18.8714 64.8556L25.3749 65.0346H25.3973C25.611 65.0347 25.8163 64.9514 25.9695 64.8024C26.1227 64.6534 26.2116 64.4505 26.2175 64.2368L26.2362 63.5541L27.9257 62.6494C28.5886 62.2926 29.3644 62.2077 30.0888 62.4127L40.178 65.2444C40.1956 65.2496 40.2131 65.2536 40.2313 65.2577C40.9605 65.4102 41.7035 65.4868 42.4485 65.4863C44.0264 65.4873 45.5858 65.147 47.0198 64.4888C47.0551 64.4727 47.0891 64.4539 47.1215 64.4326L61.75 54.9706C61.9256 54.857 62.0511 54.6807 62.101 54.4777C62.151 54.2746 62.1215 54.0602 62.0186 53.8781C60.9326 51.9511 58.5238 51.217 56.5475 52.2114ZM19.7364 63.2385L20.0839 50.6063L24.9476 50.7401L24.6 63.3727L19.7364 63.2385ZM46.281 63.0238C44.4993 63.8279 42.5095 64.05 40.5944 63.6586L30.5325 60.8342C29.4003 60.5141 28.188 60.6467 27.1517 61.2037L26.2883 61.6663L26.5194 53.2674C27.8626 52.374 29.421 51.8574 31.0319 51.7715C32.6428 51.6855 34.2473 52.0335 35.6779 52.7789L36.2815 53.0916C37.3361 53.6361 38.4996 53.9367 39.6861 53.9711L45.6174 54.1341C47.2833 54.1821 48.6981 55.3682 49.0361 57.0005L40.2015 56.7566C39.7486 56.7443 39.3718 57.1015 39.3589 57.554C39.353 57.7715 39.4336 57.9824 39.5832 58.1404C39.7327 58.2984 39.9389 58.3906 40.1563 58.3966L49.9059 58.6649H49.9288C50.1423 58.6647 50.3474 58.5813 50.5004 58.4323C50.6534 58.2833 50.7423 58.0806 50.7481 57.8671C50.7582 57.5107 50.7316 57.1541 50.6688 56.8032L57.2584 53.6895C57.2649 53.6867 57.2712 53.6835 57.2777 53.6802C57.734 53.4493 58.2502 53.3636 58.7567 53.4345C59.2632 53.5055 59.7359 53.7297 60.1113 54.0772L46.281 63.0238ZM41.4318 24.0978V16.3065C41.4318 16.089 41.3454 15.8803 41.1915 15.7265C41.0377 15.5727 40.8291 15.4863 40.6116 15.4863C40.3941 15.4863 40.1855 15.5727 40.0317 15.7265C39.8779 15.8803 39.7915 16.089 39.7915 16.3065V24.0978C39.7915 24.3154 39.8779 24.524 40.0317 24.6778C40.1855 24.8316 40.3941 24.918 40.6116 24.918C40.8291 24.918 41.0377 24.8316 41.1915 24.6778C41.3454 24.524 41.4318 24.3154 41.4318 24.0978ZM47.5828 24.0978V20.4072C47.5828 20.1897 47.4964 19.9811 47.3426 19.8273C47.1888 19.6735 46.9802 19.587 46.7627 19.587C46.5452 19.587 46.3366 19.6735 46.1828 19.8273C46.029 19.9811 45.9426 20.1897 45.9426 20.4072V24.0978C45.9426 24.3154 46.029 24.524 46.1828 24.6778C46.3366 24.8316 46.5452 24.918 46.7627 24.918C46.9802 24.918 47.1888 24.8316 47.3426 24.6778C47.4964 24.524 47.5828 24.3154 47.5828 24.0978ZM35.2807 24.0978V20.4072C35.2807 20.1897 35.1943 19.9811 35.0405 19.8273C34.8867 19.6735 34.6781 19.587 34.4605 19.587C34.243 19.587 34.0344 19.6735 33.8806 19.8273C33.7268 19.9811 33.6404 20.1897 33.6404 20.4072V24.0978C33.6404 24.3154 33.7268 24.524 33.8806 24.6778C34.0344 24.8316 34.243 24.918 34.4605 24.918C34.6781 24.918 34.8867 24.8316 35.0405 24.6778C35.1943 24.524 35.2807 24.3154 35.2807 24.0978Z" fill="#FFB300"/>
</g>
<defs>
<clipPath id="clip0_53_5044">
<rect width="44" height="50" fill="white" transform="translate(18.5 15.7432)"/>
</clipPath>
</defs>
</svg>
