<svg width="56" height="56" viewBox="0 0 56 56" fill="none" xmlns="http://www.w3.org/2000/svg">
<rect x="0.496826" y="0.460449" width="55.4868" height="55.4868" rx="27.7434" fill="#FFB300"/>
<rect x="0.496826" y="0.460449" width="55.4868" height="55.4868" rx="27.7434" fill="url(#paint0_linear_53_4453)"/>
<g clip-path="url(#clip0_53_4453)">
<path d="M37.1488 32.9884L34.1738 36.185C33.9545 36.4207 33.5858 36.4347 33.349 36.2142C33.1133 35.9949 33.1005 35.625 33.3198 35.3894L36.275 32.2149C36.8105 31.5767 36.7942 30.5932 36.2178 29.9515C35.9063 29.6039 35.4782 29.3974 35.0138 29.3729C34.553 29.3612 34.1015 29.5047 33.7538 29.8162L30.0158 33.595C29.0358 34.5855 28.4968 35.8969 28.4968 37.2875V41.6205C28.4968 41.9425 28.2355 42.2039 27.9135 42.2039C27.5915 42.2039 27.3302 41.9425 27.3302 41.6205V37.2875C27.3302 35.5865 27.9893 33.9835 29.1863 32.7749L32.95 28.9715C33.5567 28.4267 34.301 28.1549 35.078 28.2085C35.855 28.2505 36.5678 28.5935 37.087 29.1722C38.0483 30.2444 38.0752 31.8847 37.1488 32.9884ZM39.5802 14.2039H33.7468C32.138 14.2039 30.8302 15.5117 30.8302 17.1205V26.4539C30.8302 26.7759 31.0915 27.0372 31.4135 27.0372C31.7355 27.0372 31.9968 26.7759 31.9968 26.4539V17.1205C31.9968 16.1557 32.782 15.3705 33.7468 15.3705H39.5802C40.545 15.3705 41.3302 16.1557 41.3302 17.1205V27.6205C41.3302 28.2529 40.9872 28.8374 40.4342 29.1489C40.1542 29.3064 40.0538 29.661 40.2125 29.9434C40.3198 30.1335 40.517 30.2409 40.7212 30.2409C40.818 30.2409 40.916 30.2164 41.007 30.1662C41.9263 29.6505 42.4968 28.6752 42.4968 27.6217V17.1205C42.4968 15.5117 41.189 14.2039 39.5802 14.2039ZM24.4135 41.0372H19.7468C17.4952 41.0372 15.6635 39.2055 15.6635 36.9539V19.4539C15.6635 17.2022 17.4952 15.3705 19.7468 15.3705H29.0802C29.4022 15.3705 29.6635 15.1092 29.6635 14.7872C29.6635 14.4652 29.4022 14.2039 29.0802 14.2039H19.7468C16.8523 14.2039 14.4968 16.5594 14.4968 19.4539V36.9539C14.4968 39.8484 16.8523 42.2039 19.7468 42.2039H24.4135C24.7355 42.2039 24.9968 41.9425 24.9968 41.6205C24.9968 41.2985 24.7355 41.0372 24.4135 41.0372ZM20.6802 20.0372H27.9135C28.2355 20.0372 28.4968 19.7759 28.4968 19.4539C28.4968 19.1319 28.2355 18.8705 27.9135 18.8705H20.6802C19.8437 18.8705 19.1635 19.5507 19.1635 20.3872V22.0205C19.1635 22.857 19.8437 23.5372 20.6802 23.5372H27.9135C28.2355 23.5372 28.4968 23.2759 28.4968 22.9539C28.4968 22.6319 28.2355 22.3705 27.9135 22.3705H20.6802C20.4877 22.3705 20.3302 22.213 20.3302 22.0205V20.3872C20.3302 20.1947 20.4877 20.0372 20.6802 20.0372ZM20.9135 25.8705H19.7468C19.4248 25.8705 19.1635 26.1319 19.1635 26.4539C19.1635 26.7759 19.4248 27.0372 19.7468 27.0372H20.9135C21.2355 27.0372 21.4968 26.7759 21.4968 26.4539C21.4968 26.1319 21.2355 25.8705 20.9135 25.8705ZM20.9135 29.3705H19.7468C19.4248 29.3705 19.1635 29.6319 19.1635 29.9539C19.1635 30.2759 19.4248 30.5372 19.7468 30.5372H20.9135C21.2355 30.5372 21.4968 30.2759 21.4968 29.9539C21.4968 29.6319 21.2355 29.3705 20.9135 29.3705ZM25.5802 25.8705H24.4135C24.0915 25.8705 23.8302 26.1319 23.8302 26.4539C23.8302 26.7759 24.0915 27.0372 24.4135 27.0372H25.5802C25.9022 27.0372 26.1635 26.7759 26.1635 26.4539C26.1635 26.1319 25.9022 25.8705 25.5802 25.8705ZM25.5802 29.3705H24.4135C24.0915 29.3705 23.8302 29.6319 23.8302 29.9539C23.8302 30.2759 24.0915 30.5372 24.4135 30.5372H25.5802C25.9022 30.5372 26.1635 30.2759 26.1635 29.9539C26.1635 29.6319 25.9022 29.3705 25.5802 29.3705ZM20.9135 32.8705H19.7468C19.4248 32.8705 19.1635 33.1319 19.1635 33.4539C19.1635 33.7759 19.4248 34.0372 19.7468 34.0372H20.9135C21.2355 34.0372 21.4968 33.7759 21.4968 33.4539C21.4968 33.1319 21.2355 32.8705 20.9135 32.8705ZM25.5802 32.8705H24.4135C24.0915 32.8705 23.8302 33.1319 23.8302 33.4539C23.8302 33.7759 24.0915 34.0372 24.4135 34.0372H25.5802C25.9022 34.0372 26.1635 33.7759 26.1635 33.4539C26.1635 33.1319 25.9022 32.8705 25.5802 32.8705ZM20.9135 36.3705H19.7468C19.4248 36.3705 19.1635 36.6319 19.1635 36.9539C19.1635 37.2759 19.4248 37.5372 19.7468 37.5372H20.9135C21.2355 37.5372 21.4968 37.2759 21.4968 36.9539C21.4968 36.6319 21.2355 36.3705 20.9135 36.3705ZM41.9135 31.7039C41.5915 31.7039 41.3302 31.9652 41.3302 32.2872V33.5694C41.3302 35.247 40.7632 36.9002 39.733 38.2244L37.3705 41.2624C37.1722 41.5167 37.2177 41.883 37.4732 42.0802C37.5793 42.163 37.7053 42.2027 37.8313 42.2027C38.004 42.2027 38.1767 42.1257 38.2922 41.9775L40.6547 38.9395C41.8435 37.4124 42.498 35.5049 42.498 33.5682V32.286C42.498 31.964 42.2367 31.7027 41.9147 31.7027L41.9135 31.7039Z" fill="#191919"/>
</g>
<defs>
<linearGradient id="paint0_linear_53_4453" x1="8.52293" y1="2.28945" x2="55.6572" y2="24.6808" gradientUnits="userSpaceOnUse">
<stop stop-color="#FFCC54"/>
<stop offset="1" stop-color="#FFB300"/>
</linearGradient>
<clipPath id="clip0_53_4453">
<rect width="28" height="28" fill="white" transform="translate(14.4968 14.2039)"/>
</clipPath>
</defs>
</svg>
