<svg width="81" height="81" viewBox="0 0 81 81" fill="none" xmlns="http://www.w3.org/2000/svg">
<rect x="0.5" y="0.743164" width="80" height="80" rx="13.3333" fill="white"/>
<path d="M35.5723 37.3084C37.0645 37.3084 38.5231 36.866 39.7638 36.037C41.0044 35.208 41.9714 34.0298 42.5425 32.6512C43.1135 31.2727 43.2629 29.7557 42.9718 28.2923C42.6807 26.8288 41.9622 25.4845 40.9071 24.4294C39.852 23.3743 38.5077 22.6558 37.0442 22.3647C35.5807 22.0736 34.0638 22.223 32.6853 22.794C31.3067 23.3651 30.1285 24.332 29.2995 25.5727C28.4705 26.8134 28.0281 28.272 28.0281 29.7642C28.0303 31.7643 28.8259 33.6819 30.2402 35.0963C31.6545 36.5106 33.5721 37.3062 35.5723 37.3084ZM35.5723 23.3917C36.8327 23.3917 38.0647 23.7654 39.1127 24.4656C40.1606 25.1658 40.9774 26.161 41.4598 27.3255C41.9421 28.4899 42.0683 29.7712 41.8224 31.0073C41.5766 32.2435 40.9697 33.3789 40.0785 34.2701C39.1873 35.1614 38.0518 35.7683 36.8157 36.0142C35.5795 36.2601 34.2982 36.1339 33.1338 35.6516C31.9694 35.1692 30.9741 34.3525 30.2739 33.3045C29.5737 32.2566 29.2 31.0245 29.2 29.7642C29.2018 28.0747 29.8738 26.4549 31.0685 25.2603C32.2631 24.0656 33.8828 23.3936 35.5723 23.3917Z" fill="#FFB300"/>
<path d="M35.5723 33.0126C35.2499 33.0122 34.9408 32.884 34.7128 32.656C34.4848 32.428 34.3565 32.1189 34.3562 31.7965C34.3562 31.6411 34.2944 31.492 34.1845 31.3822C34.0747 31.2723 33.9256 31.2105 33.7702 31.2105C33.6148 31.2105 33.4658 31.2723 33.3559 31.3822C33.246 31.492 33.1843 31.6411 33.1843 31.7965C33.185 32.3356 33.3678 32.8586 33.7031 33.2807C34.0384 33.7029 34.5064 33.9993 35.0313 34.1221V34.6885C35.0313 34.8439 35.0931 34.9929 35.203 35.1028C35.3128 35.2127 35.4619 35.2744 35.6173 35.2744C35.7727 35.2744 35.9217 35.2127 36.0316 35.1028C36.1415 34.9929 36.2032 34.8439 36.2032 34.6885V34.0992C36.7609 33.9465 37.2442 33.5967 37.5634 33.1146C37.8827 32.6325 38.0161 32.051 37.939 31.478C37.862 30.905 37.5796 30.3794 37.1443 29.9988C36.709 29.6182 36.1505 29.4085 35.5723 29.4086C35.3317 29.4086 35.0966 29.3373 34.8966 29.2036C34.6966 29.07 34.5408 28.8801 34.4487 28.6579C34.3567 28.4357 34.3326 28.1911 34.3795 27.9552C34.4264 27.7193 34.5423 27.5026 34.7123 27.3326C34.8824 27.1625 35.0991 27.0467 35.335 26.9997C35.5709 26.9528 35.8154 26.9769 36.0377 27.0689C36.2599 27.161 36.4498 27.3169 36.5834 27.5168C36.7171 27.7168 36.7884 27.952 36.7884 28.1925C36.7884 28.3479 36.8501 28.4969 36.96 28.6068C37.0699 28.7167 37.2189 28.7784 37.3743 28.7784C37.5297 28.7784 37.6788 28.7167 37.7886 28.6068C37.8985 28.4969 37.9603 28.3479 37.9603 28.1925C37.9595 27.635 37.7639 27.0953 37.4074 26.6666C37.051 26.238 36.5559 25.9474 36.0079 25.845V25.4111C36.0079 25.2557 35.9462 25.1067 35.8363 24.9968C35.7264 24.8869 35.5774 24.8252 35.422 24.8252C35.2666 24.8252 35.1175 24.8869 35.0077 24.9968C34.8978 25.1067 34.836 25.2557 34.836 25.4111V25.9211C34.295 26.0964 33.8342 26.459 33.5367 26.9438C33.2393 27.4285 33.1246 28.0036 33.2134 28.5653C33.3021 29.1271 33.5885 29.6388 34.0209 30.0082C34.4534 30.3776 35.0035 30.5806 35.5723 30.5805C35.7329 30.579 35.8922 30.6094 36.041 30.6699C36.1898 30.7304 36.3251 30.8197 36.4392 30.9328C36.5533 31.0458 36.6439 31.1804 36.7057 31.3286C36.7675 31.4769 36.7993 31.6359 36.7993 31.7965C36.7993 31.9572 36.7675 32.1162 36.7057 32.2644C36.6439 32.4127 36.5533 32.5472 36.4392 32.6603C36.3251 32.7734 36.1898 32.8627 36.041 32.9232C35.8922 32.9836 35.7329 33.014 35.5723 33.0126ZM24.0918 42.1104H47.2363C47.3917 42.1104 47.5408 42.0486 47.6506 41.9387C47.7605 41.8288 47.8223 41.6798 47.8223 41.5244C47.8223 41.369 47.7605 41.22 47.6506 41.1101C47.5408 41.0002 47.3917 40.9385 47.2363 40.9385H24.0918C23.9364 40.9385 23.7874 41.0002 23.6775 41.1101C23.5676 41.22 23.5059 41.369 23.5059 41.5244C23.5059 41.6798 23.5676 41.8288 23.6775 41.9387C23.7874 42.0486 23.9364 42.1104 24.0918 42.1104Z" fill="#FFB300"/>
<path d="M51.7306 44.5629V26.9736H59.7482C59.904 26.9699 60.0521 26.9046 60.1601 26.7921C60.268 26.6796 60.3271 26.5289 60.3243 26.373V21.4468C60.3243 18.7575 58.1405 16.5244 55.4532 16.5244H24.4887C21.9064 16.5244 19.8047 18.627 19.8047 21.1782L19.5996 59.0415C19.5987 59.1993 19.66 59.351 19.7701 59.464C19.8244 59.5191 19.889 59.563 19.9603 59.5932C20.0316 59.6234 20.1081 59.6392 20.1855 59.6398C20.1855 59.6398 33.1542 59.6429 42.3037 59.643C43.1597 61.197 44.407 62.5003 45.9219 63.4238C47.4368 64.3473 49.1667 64.8588 50.9402 64.9078C52.7137 64.9567 54.4692 64.5414 56.0327 63.7029C57.5962 62.8644 58.9135 61.6318 59.8539 60.1274C60.7943 58.623 61.3253 56.899 61.3942 55.1261C61.4631 53.3533 61.0674 51.5932 60.2466 50.0204C59.4257 48.4476 58.208 47.1165 56.7143 46.1593C55.2205 45.202 53.5025 44.6517 51.7306 44.5629ZM55.4457 17.6963H55.4523C57.495 17.6963 59.1525 19.4053 59.1525 21.4478V25.8018H51.7306V21.4609C51.7306 19.415 53.3861 17.7939 55.4308 17.6963H55.4457ZM20.7747 58.471L20.9766 21.1814C20.9835 20.2546 21.3566 19.3681 22.0145 18.7152C22.6724 18.0623 23.5618 17.6961 24.4887 17.6963H52.2699C51.2201 18.6729 50.5587 19.976 50.5587 21.4619V44.5723C49.6067 44.6402 48.6692 44.8427 47.7741 45.1738C47.727 45.0719 47.6507 44.9862 47.5549 44.9277C47.4591 44.8691 47.3481 44.8402 47.2359 44.8447H24.0918C23.9364 44.8447 23.7874 44.9065 23.6775 45.0163C23.5676 45.1262 23.5059 45.2753 23.5059 45.4307C23.5059 45.5861 23.5676 45.7351 23.6775 45.845C23.7874 45.9549 23.9364 46.0166 24.0918 46.0166H46.0372C44.8389 46.6906 43.8071 47.625 43.0181 48.751H24.0918C23.9364 48.751 23.7874 48.8127 23.6775 48.9226C23.5676 49.0325 23.5059 49.1815 23.5059 49.3369C23.5059 49.4923 23.5676 49.6414 23.6775 49.7512C23.7874 49.8611 23.9364 49.9229 24.0918 49.9229H42.2711C41.8101 50.7041 41.4662 51.6807 41.2601 52.6572H24.0918C24.0149 52.6572 23.9387 52.6724 23.8676 52.7018C23.7965 52.7313 23.7319 52.7744 23.6775 52.8288C23.6231 52.8833 23.5799 52.9478 23.5505 53.0189C23.521 53.09 23.5059 53.1662 23.5059 53.2432C23.5059 53.3201 23.521 53.3963 23.5505 53.4674C23.5799 53.5385 23.6231 53.6031 23.6775 53.6575C23.7319 53.7119 23.7965 53.7551 23.8676 53.7845C23.9387 53.8139 24.0149 53.8291 24.0918 53.8291H41.0819C41.0526 54.1221 41.0374 54.4346 41.0374 54.7546C41.0361 56.0317 41.2777 57.2973 41.7494 58.4841C33.8162 58.4839 23.3465 58.4713 20.7747 58.471ZM51.219 63.7412C49.5773 63.7421 47.9667 63.2941 46.5612 62.4459C45.1557 61.5976 44.0088 60.3813 43.2446 58.9284C42.4804 57.4755 42.1278 55.8413 42.2251 54.2026C42.3224 52.5638 42.8658 50.9828 43.7966 49.6306C43.8012 49.6241 43.8058 49.6177 43.8102 49.611C44.6917 48.3357 45.8874 47.3094 47.2817 46.6316C48.676 45.9537 50.2216 45.6471 51.7691 45.7415C53.3166 45.8359 54.8135 46.3281 56.115 47.1705C57.4165 48.0129 58.4786 49.1769 59.1986 50.5499C59.9185 51.923 60.2719 53.4586 60.2245 55.0082C60.1771 56.5578 59.7306 58.069 58.9282 59.3955C58.1258 60.722 56.9946 61.819 55.644 62.5803C54.2935 63.3416 52.7693 63.7415 51.219 63.7412Z" fill="#FFB300"/>
<path d="M54.148 52.1751L50.2792 56.0437L48.2921 54.0371C48.1825 53.9279 48.0342 53.8664 47.8794 53.8661C47.7247 53.8659 47.5761 53.9268 47.4662 54.0357C47.3562 54.1446 47.2938 54.2925 47.2925 54.4473C47.2912 54.602 47.3512 54.751 47.4594 54.8616L49.8609 57.2778C49.9155 57.3315 49.9804 57.3737 50.0516 57.402C50.1228 57.4303 50.1989 57.4441 50.2755 57.4426H50.277C50.3533 57.4442 50.4293 57.4307 50.5004 57.4027C50.5715 57.3748 50.6364 57.333 50.6912 57.2799L54.9766 52.9992C55.0312 52.9449 55.0745 52.8804 55.1041 52.8093C55.1337 52.7381 55.1489 52.6619 55.1489 52.5849C55.1489 52.5079 55.1337 52.4316 55.1041 52.3605C55.0745 52.2894 55.0312 52.2249 54.9766 52.1706C54.922 52.1162 54.8572 52.0733 54.786 52.0441C54.7147 52.0149 54.6384 52.0001 54.5614 52.0005C54.4844 52.0009 54.4082 52.0165 54.3373 52.0465C54.2663 52.0764 54.202 52.1201 54.148 52.175V52.1751Z" fill="#FFB300"/>
</svg>
