<svg width="25" height="25" viewBox="0 0 25 25" fill="none" xmlns="http://www.w3.org/2000/svg">
<g clip-path="url(#clip0_395_85)">
<path d="M24.7266 7.79923C24.6704 6.52398 24.4642 5.64734 24.1687 4.88763C23.864 4.08127 23.3951 3.35935 22.781 2.75918C22.1807 2.14969 21.454 1.67607 20.657 1.3761C19.893 1.08073 19.0208 0.87444 17.7456 0.818272C16.4609 0.757229 16.053 0.743164 12.7946 0.743164C9.53613 0.743164 9.12829 0.757229 7.8483 0.81349C6.5731 0.869751 5.69641 1.07614 4.93694 1.37132C4.13034 1.67607 3.40842 2.14491 2.80826 2.75918C2.19876 3.3593 1.72537 4.086 1.42517 4.88304C1.1298 5.64734 0.923559 6.51929 0.867345 7.79445C0.806348 9.07921 0.792236 9.48706 0.792236 12.7455C0.792236 16.004 0.806348 16.4118 0.862563 17.6918C0.918824 18.967 1.12521 19.8437 1.42062 20.6034C1.72537 21.4097 2.19876 22.1317 2.80826 22.7318C3.40842 23.3413 4.13512 23.815 4.93215 24.1149C5.69637 24.4103 6.56832 24.6166 7.84375 24.6727C9.1235 24.7292 9.53158 24.7431 12.79 24.7431C16.0485 24.7431 16.4563 24.7292 17.7363 24.6727C19.0115 24.6165 19.8882 24.4103 20.6477 24.1149C21.4453 23.8065 22.1698 23.3348 22.7745 22.7301C23.3793 22.1254 23.851 21.401 24.1594 20.6034C24.4546 19.8391 24.6611 18.967 24.7173 17.6918C24.7735 16.4118 24.7876 16.004 24.7876 12.7455C24.7876 9.48706 24.7828 9.07917 24.7266 7.79923ZM22.5654 17.598C22.5137 18.7701 22.3168 19.4031 22.1528 19.825C21.7495 20.8705 20.9197 21.7004 19.8741 22.1037C19.4521 22.2678 18.8146 22.4646 17.6471 22.5161C16.3812 22.5725 16.0016 22.5864 12.7994 22.5864C9.59713 22.5864 9.21272 22.5725 7.9514 22.5161C6.7793 22.4646 6.14636 22.2678 5.7244 22.1037C5.20413 21.9114 4.73055 21.6066 4.3461 21.2081C3.94759 20.819 3.64284 20.3501 3.45052 19.8298C3.28643 19.4078 3.08956 18.7701 3.03813 17.6028C2.98168 16.3369 2.9678 15.9571 2.9678 12.7548C2.9678 9.5526 2.98168 9.1682 3.03813 7.90711C3.08956 6.73501 3.28643 6.10207 3.45052 5.68011C3.64284 5.15961 3.94759 4.68612 4.35088 4.30158C4.73984 3.90306 5.20868 3.59832 5.72919 3.40623C6.15114 3.24214 6.78886 3.04522 7.95618 2.9936C9.22206 2.93734 9.60191 2.92328 12.8039 2.92328C16.0109 2.92328 16.3905 2.93734 17.6519 2.9936C18.824 3.04527 19.4569 3.24209 19.8789 3.40618C20.3991 3.59832 20.8728 3.90306 21.2572 4.30158C21.6557 4.69076 21.9604 5.15961 22.1528 5.68011C22.3168 6.10207 22.5137 6.73955 22.5653 7.90711C22.6216 9.17298 22.6357 9.5526 22.6357 12.7548C22.6357 15.9571 22.6216 16.3321 22.5654 17.598Z" fill="#FFB300"/>
<path d="M12.7947 6.58002C9.39097 6.58002 6.62939 9.3414 6.62939 12.7453C6.62939 16.1492 9.39097 18.9106 12.7947 18.9106C16.1985 18.9106 18.9599 16.1492 18.9599 12.7453C18.9599 9.3414 16.1985 6.58002 12.7947 6.58002ZM12.7947 16.7445C10.5865 16.7445 8.79535 14.9536 8.79535 12.7453C8.79535 10.537 10.5865 8.74607 12.7946 8.74607C15.003 8.74607 16.7939 10.537 16.7939 12.7453C16.7939 14.9536 15.0029 16.7445 12.7947 16.7445ZM20.6432 6.33622C20.6432 7.1311 19.9986 7.77557 19.2036 7.77557C18.4088 7.77557 17.7643 7.1311 17.7643 6.33622C17.7643 5.54126 18.4088 4.89697 19.2037 4.89697C19.9986 4.89697 20.6432 5.54121 20.6432 6.33622Z" fill="#FFB300"/>
</g>
<defs>
<clipPath id="clip0_395_85">
<rect width="24" height="24" fill="white" transform="translate(0.75 0.743164)"/>
</clipPath>
</defs>
</svg>
