<svg width="30" height="24" viewBox="0 0 30 24" fill="none" xmlns="http://www.w3.org/2000/svg">
<path fill-rule="evenodd" clip-rule="evenodd" d="M17.5243 9.37273C17.8631 9.44393 18.2468 9.42934 18.5297 9.20697C19.6096 8.43657 20.6621 7.62589 21.6744 6.76851C21.7561 6.69672 21.8383 6.62494 21.9205 6.55315C22.5829 5.97359 23.2477 5.39228 23.8314 4.73218C24.0157 4.52674 24.1673 4.2962 24.2997 4.05399C24.7516 3.28825 25.1236 2.48048 25.4951 1.67331C25.5312 1.5951 25.5674 1.51631 25.6035 1.4381C25.7056 1.19472 25.8012 0.949004 25.8968 0.703291C25.9884 0.468082 26.0805 0.232874 26.1773 0C25.596 0.585978 24.9726 1.12585 24.3486 1.66513C23.8734 2.0766 23.3982 2.48807 22.941 2.91997C23.0098 2.70635 23.092 2.49799 23.1742 2.28963C23.2617 2.06726 23.3492 1.84548 23.4209 1.61728C23.432 1.57992 23.4466 1.54374 23.4606 1.50697C23.4909 1.42934 23.5212 1.3523 23.5218 1.26826C23.327 1.50755 23.1183 1.73459 22.9101 1.96221C22.8197 2.06084 22.7299 2.1589 22.6407 2.25812C21.4593 3.53046 20.286 4.81039 19.1303 6.10608C19.153 6.00627 19.1763 5.90706 19.2002 5.80725C19.2556 5.57204 19.311 5.33742 19.3565 5.10046C19.3087 5.1203 19.2656 5.14715 19.2352 5.18917C18.8813 5.58197 18.4853 5.93215 18.0894 6.28234C17.9961 6.36463 17.9034 6.44693 17.8107 6.5298C17.213 7.05216 16.6176 7.57861 16.0537 8.13716C16.2823 8.77275 16.8777 9.22565 17.5243 9.37273Z" fill="black"/>
<path fill-rule="evenodd" clip-rule="evenodd" d="M26.8017 6.31613C27.5772 5.68405 28.3948 5.10099 29.2724 4.61948C28.533 4.58855 27.7912 4.6866 27.0722 4.85469C27.379 4.47474 27.7941 4.22436 28.207 3.97456C28.3895 3.86425 28.572 3.75394 28.7446 3.63313C28.1522 3.64772 27.5597 3.69091 26.9719 3.7662C27.2332 3.45687 27.4612 3.12127 27.6798 2.78101C27.4064 2.87672 27.1568 3.03081 26.9177 3.19189C26.7585 3.29228 26.6652 3.45395 26.5731 3.61387C26.5445 3.66347 26.5159 3.7125 26.4862 3.75978C26.313 4.06385 26.1241 4.35801 25.9351 4.65275C25.9031 4.70236 25.871 4.75255 25.8389 4.80275C26.1806 4.67901 26.5247 4.56053 26.8681 4.44264C26.941 4.41754 27.0145 4.39245 27.088 4.36735C26.9976 4.44964 26.9049 4.53019 26.8122 4.61073C26.59 4.80333 26.3672 4.99652 26.1748 5.22005C25.78 5.6321 25.5054 6.13696 25.2348 6.6348C25.2191 6.66457 25.2027 6.69375 25.1864 6.72352C24.9217 7.31825 24.6354 7.90948 24.2301 8.42309C23.6837 9.1468 22.9933 9.75263 22.2364 10.2481C22.1157 10.3304 21.9944 10.4121 21.8731 10.4939C21.1926 10.952 20.5086 11.4125 19.9336 12.002C19.8934 12.044 19.8514 12.0854 19.8094 12.1275C19.6502 12.2851 19.4887 12.4456 19.3896 12.644C19.3954 12.686 19.4012 12.7286 19.4077 12.7706C19.4292 12.9195 19.4508 13.0689 19.4543 13.2195C19.8188 12.7963 20.2678 12.4531 20.7278 12.1397C21.5285 11.6209 22.4131 11.1627 23.3811 11.0956C23.3233 11.1469 23.2551 11.1837 23.1857 11.2158L23.184 11.2205C23.1152 11.2573 23.0463 11.294 22.9775 11.3308C22.4183 11.6285 21.8556 11.9279 21.364 12.3317C20.68 12.8827 20.0672 13.52 19.5219 14.2082C19.133 14.7153 18.7738 15.2575 18.5394 15.854C18.7575 15.4992 19.028 15.1823 19.2974 14.8659C19.3663 14.7848 19.4351 14.7043 19.5033 14.6231C20.0561 13.9624 20.6894 13.3654 21.399 12.8751C21.2882 13.0164 21.1599 13.1407 21.0317 13.265C20.9238 13.3695 20.8159 13.4745 20.7185 13.5889C20.1815 14.1883 19.6829 14.8222 19.231 15.4881C18.1557 17.0353 17.1142 18.6275 16.3999 20.3796C16.6151 19.939 16.8477 19.5071 17.0944 19.0833C17.4326 18.4868 17.8315 17.9289 18.2303 17.3721C18.3131 17.2565 18.3959 17.141 18.4776 17.0248C19.1184 16.1435 19.8467 15.3352 20.5751 14.5268C20.964 14.0955 21.353 13.6636 21.7285 13.2206C21.7594 13.1915 21.7932 13.1646 21.8288 13.1407C21.9308 13.1833 22.0358 13.2195 22.1402 13.2551C22.2504 13.293 22.36 13.3309 22.4673 13.3765C23.195 13.6765 23.8756 14.0897 24.4884 14.5829C24.2342 14.0838 24.0587 13.5393 24.0033 12.9802C24.0412 13 24.0791 13.0193 24.1175 13.0391C24.2272 13.0952 24.3374 13.1512 24.4435 13.2154C25.2593 13.6695 25.8821 14.3873 26.4652 15.1017C26.5253 15.1823 26.5865 15.2622 26.6471 15.3422C27.0372 15.857 27.4297 16.3741 27.7166 16.9542C27.4985 15.969 27.2466 14.9902 26.9265 14.0325C26.8967 13.9479 26.8676 13.8638 26.8384 13.7792C26.625 13.164 26.411 12.5489 26.1427 11.9559C25.8174 11.2199 25.4815 10.4769 24.9946 9.83142C25.1899 9.84834 25.38 9.89912 25.5649 9.96507C26.3824 10.2481 27.1492 10.6754 27.8204 11.2217C27.4693 10.3287 27.0431 9.4538 26.46 8.68864C26.5381 8.69623 26.6186 8.7044 26.6915 8.7365C27.0693 8.88708 27.4314 9.08085 27.7586 9.32248C27.7854 9.34349 27.8134 9.36275 27.842 9.3826C27.9154 9.43337 27.9901 9.48415 28.035 9.56294C28.0443 9.51041 28.0192 9.46489 27.9942 9.41878C27.9784 9.39077 27.9633 9.36217 27.9557 9.33182C27.7638 8.81004 27.4344 8.35597 27.1078 7.91123C27.4583 7.8301 27.8128 7.76299 28.1743 7.76007C27.7737 7.22837 27.3026 6.75503 26.8034 6.3173L26.8017 6.31613Z" fill="black"/>
<path fill-rule="evenodd" clip-rule="evenodd" d="M6.86856 5.4302C8.02373 6.53912 9.23954 7.58793 10.5376 8.5276C10.884 8.7914 11.2379 9.04529 11.6099 9.27174C11.782 9.37913 11.9901 9.41473 12.1907 9.41123C12.9365 9.39431 13.6241 8.86378 13.8556 8.15873C13.8416 8.09687 13.7914 8.0566 13.7418 8.01749C13.7185 7.99882 13.6958 7.98072 13.6765 7.96029C13.3342 7.63696 12.982 7.32412 12.6292 7.01129C11.9441 6.40313 11.2589 5.79498 10.6484 5.10978C10.6915 5.44304 10.737 5.77863 10.8344 6.10139C10.8011 6.08388 10.7708 6.06287 10.744 6.03836C10.1224 5.373 9.49437 4.71349 8.86576 4.05397C8.56137 3.73472 8.25756 3.41605 7.95434 3.09621C7.45227 2.56451 6.96711 2.01705 6.48253 1.4696C6.42597 1.40598 6.36999 1.34236 6.31401 1.27933C6.39332 1.58632 6.50236 1.88398 6.6114 2.18106C6.68954 2.39409 6.76768 2.60712 6.83532 2.82365C6.53676 2.56159 6.2347 2.30362 5.93323 2.04565C5.2364 1.44975 4.53956 0.853852 3.88355 0.212428C3.8713 0.200755 3.85964 0.188498 3.8474 0.176242C3.79608 0.12313 3.7436 0.0694349 3.67188 0.0449219C4.19727 1.45967 4.88594 2.81081 5.67432 4.09657C6.01312 4.59034 6.44288 5.01348 6.86973 5.43195L6.86856 5.4302Z" fill="black"/>
<path fill-rule="evenodd" clip-rule="evenodd" d="M7.17915 6.59058C7.12083 6.93726 7.08876 7.29387 7.1599 7.64172C7.31385 8.63566 8.26784 9.4551 9.28189 9.39148C9.65917 9.39323 10.0044 9.22456 10.3309 9.0553C10.2697 8.97826 10.1869 8.92573 10.1053 8.87262C10.0697 8.84986 10.0335 8.82651 9.99972 8.80142C9.69766 8.85511 9.38277 8.88721 9.0813 8.81309C8.64978 8.72613 8.26434 8.43489 8.06199 8.04502C7.89872 7.76136 7.90747 7.42285 7.94245 7.10885C7.68705 6.93784 7.4328 6.7645 7.17973 6.59058H7.17915Z" fill="black"/>
<path fill-rule="evenodd" clip-rule="evenodd" d="M21.144 8.71736C20.7591 8.89829 20.3119 8.90004 19.9043 8.80549C19.8203 8.84751 19.7457 8.90354 19.6716 8.96016C19.6471 8.97825 19.6232 8.99693 19.5981 9.01444C20.0576 9.30451 20.6139 9.47902 21.1568 9.35353C21.8502 9.20646 22.4327 8.66892 22.6741 8.00823C22.8467 7.55766 22.8806 7.05865 22.7773 6.58765C22.631 6.66585 22.4904 6.75398 22.3493 6.84212C22.2333 6.91449 22.1178 6.98686 21.9989 7.05398C22.0234 7.28335 22.0315 7.51798 21.9744 7.74326C21.8572 8.16815 21.5487 8.53877 21.1446 8.71736H21.144Z" fill="black"/>
<path fill-rule="evenodd" clip-rule="evenodd" d="M18.0662 16.0939C18.5595 15.1501 19.0534 14.2069 19.4528 13.2182C19.4493 13.0677 19.4278 12.9183 19.4062 12.7694C19.4004 12.7274 19.394 12.6848 19.3881 12.6428C18.6464 11.6768 17.6574 10.9187 16.5967 10.3339L16.5594 10.3152C16.0766 10.0712 15.5757 9.81852 15.0275 9.78467L15.0363 9.82552L15.0281 9.78759C14.3604 9.93933 13.7137 10.1833 13.1125 10.5119C12.4122 10.8743 11.818 11.4049 11.2588 11.9529C11.2092 12.0066 11.1579 12.0597 11.1072 12.1122C10.9252 12.3013 10.7421 12.491 10.6115 12.7192C10.5975 12.8552 10.5946 12.9935 10.6273 13.1284C10.811 13.5702 11.0028 14.0091 11.2221 14.4351C11.6664 15.3124 12.0886 16.1995 12.5049 17.0901C12.9568 18.0129 13.3965 18.9426 13.7674 19.9015C13.9114 20.2231 14.0117 20.5611 14.0974 20.9019C14.1715 21.1593 14.2409 21.4178 14.3103 21.6764C14.4934 22.3581 14.6765 23.0398 14.9395 23.6958C14.964 23.7577 14.9984 23.816 15.0351 23.8732C15.038 23.8569 15.0415 23.8406 15.045 23.8248C15.0415 23.8411 15.0386 23.8575 15.0351 23.8732C15.0415 23.8884 15.0514 23.9118 15.0613 23.9351L15.0637 23.9404C15.073 23.9631 15.0829 23.9847 15.0887 23.9999C15.1261 23.952 15.1476 23.8942 15.1686 23.8365C15.1803 23.8044 15.192 23.7723 15.2065 23.7425C15.5121 22.94 15.7343 22.1106 15.9559 21.2813C16.0241 21.0268 16.0923 20.7729 16.1629 20.519C16.4311 19.636 16.7472 18.7652 17.1378 17.9282C17.4306 17.309 17.7484 16.7014 18.0662 16.0939Z" fill="black"/>
<path fill-rule="evenodd" clip-rule="evenodd" d="M13.3884 19.4097C12.6566 18.0148 11.8455 16.6607 10.9416 15.3709C10.3579 14.5584 9.69141 13.7968 8.90769 13.1717C9.32287 13.404 9.68674 13.7145 10.0477 14.0232C10.0821 14.0524 10.1165 14.0822 10.1509 14.1114C10.7125 14.6308 11.2612 15.1829 11.6606 15.8413C11.6204 15.672 11.5376 15.5185 11.4554 15.3662C11.4239 15.3078 11.3924 15.2495 11.3632 15.1905C11.2128 14.88 10.9988 14.6075 10.7859 14.3378C10.1433 13.5639 9.37652 12.9009 8.55606 12.3219C8.18811 12.0493 7.79159 11.8217 7.39506 11.5941C7.26444 11.5194 7.13441 11.4441 7.00495 11.3682C6.95072 11.3285 6.89474 11.2918 6.83935 11.255C6.82127 11.2428 6.80319 11.2311 6.78512 11.2188C8.19744 11.5077 9.59577 12.0949 10.6273 13.1291C10.5947 12.9943 10.5976 12.8559 10.6116 12.72C10.6011 12.668 10.5661 12.6283 10.5323 12.5898C10.5288 12.5857 10.5253 12.5816 10.5212 12.577C10.5165 12.5717 10.5124 12.5665 10.5078 12.5612C9.94565 11.9554 9.29896 11.4354 8.62137 10.9649C8.44119 10.8313 8.25867 10.7 8.07557 10.5686C7.53035 10.177 6.98396 9.78481 6.4988 9.31906C5.9425 8.81246 5.4865 8.2008 5.13721 7.53428C5.0614 7.39537 4.99143 7.25296 4.92087 7.10997C4.73835 6.73819 4.55525 6.36641 4.2701 6.06175C3.76045 5.50787 3.17966 5.01761 2.54872 4.60906C2.90618 4.67093 3.25488 4.77423 3.60301 4.87695C3.73654 4.91606 3.87008 4.95575 4.0042 4.9931C3.85259 4.73571 3.71439 4.47015 3.57677 4.2046C3.40183 3.86667 3.22631 3.52932 3.02222 3.20773C2.96565 3.12194 2.88926 3.04898 2.79596 3.00463C2.47058 2.84004 2.10146 2.78342 1.73993 2.77759C1.99709 3.04665 2.22159 3.34431 2.44551 3.6408C2.477 3.68282 2.50848 3.72426 2.53997 3.76628C1.97376 3.66764 1.39938 3.63204 0.826172 3.60461C1.48627 3.8976 2.0863 4.34058 2.52598 4.91781C1.98192 4.82151 1.42446 4.77015 0.876904 4.86937C0.972536 4.92481 1.07167 4.97325 1.17138 5.0217C1.30608 5.08765 1.44078 5.15302 1.56616 5.23531C1.64138 5.28259 1.7166 5.32986 1.79241 5.37714C2.25774 5.66779 2.72657 5.9602 3.12601 6.3384C2.68809 6.78547 2.26241 7.25005 1.93352 7.78525C2.05306 7.80626 2.17377 7.82202 2.29448 7.83778C2.46708 7.86054 2.64027 7.88272 2.81054 7.92124C2.76389 8.02746 2.69742 8.12201 2.63152 8.21656C2.59595 8.26734 2.56038 8.31812 2.52773 8.37064C2.27057 8.75293 2.05073 9.15973 1.8688 9.58287C2.44551 9.18307 3.07703 8.81304 3.78378 8.71616C3.73654 8.77744 3.68698 8.83639 3.63741 8.89534C3.59834 8.94145 3.55927 8.98814 3.52137 9.03541C2.96974 9.71185 2.59362 10.5091 2.27932 11.318C3.05837 10.6387 4.01819 10.1379 5.04332 9.97274C4.62114 10.5797 4.31675 11.2579 4.01411 11.9309V11.9315C3.9867 11.9927 3.95871 12.054 3.93131 12.1153C3.45198 13.2604 3.09044 14.4475 2.72949 15.6341C2.58196 16.1179 2.43501 16.6024 2.2799 17.0833C2.75048 16.2498 3.37676 15.5191 3.99662 14.7948L4.01761 14.7703C4.61473 14.1178 5.25442 13.4816 6.02647 13.0404C5.96699 13.1985 5.88769 13.3474 5.80838 13.4968C5.75124 13.6048 5.69351 13.7133 5.64336 13.8248C5.4486 14.2164 5.29465 14.6255 5.14071 15.0341C5.09114 15.1654 5.04216 15.2967 4.99143 15.4269C5.37337 14.9337 5.84395 14.5193 6.32795 14.13C6.91282 13.676 7.54201 13.2563 8.24642 13.0124C8.3094 13.0801 8.37296 13.1483 8.43594 13.2161C9.16951 14.004 9.90308 14.7925 10.5871 15.6247C11.7195 16.9963 12.8409 18.4006 13.6508 19.9927C13.6432 19.9746 13.6351 19.9565 13.6275 19.9385C13.5511 19.7599 13.4747 19.5813 13.3855 19.4091L13.3884 19.4097Z" fill="black"/>
<path fill-rule="evenodd" clip-rule="evenodd" d="M13.0884 9.86582C13.4441 9.79578 13.8068 9.6773 14.0896 9.44326C14.3602 9.21447 14.3573 8.83393 14.3549 8.50243C14.3549 8.47149 14.3549 8.44114 14.3549 8.41138L14.2937 8.42538C14.2086 8.68511 14.1024 8.94016 13.9561 9.17186C13.7456 9.48703 13.4202 9.69831 13.0884 9.8664V9.86582Z" fill="black"/>
<path fill-rule="evenodd" clip-rule="evenodd" d="M16.156 9.57981H16.1572C16.4091 9.7158 16.6802 9.82319 16.9636 9.86638C16.9362 9.85004 16.9082 9.83311 16.8802 9.81677C16.5957 9.64693 16.3053 9.47359 16.1053 9.20336C15.9776 9.04461 15.8924 8.86076 15.8073 8.67692C15.7612 8.57711 15.7151 8.47731 15.6621 8.38159C15.6323 8.63898 15.6638 8.90454 15.7326 9.15434C15.7875 9.36211 15.9828 9.47767 16.156 9.57981Z" fill="black"/>
</svg>
