<svg width="25" height="18" viewBox="0 0 25 18" fill="none" xmlns="http://www.w3.org/2000/svg">
<path d="M22.6406 0.305664H2.85938C1.69392 0.305664 0.75 1.25545 0.75 2.41504V15.0713C0.75 16.2378 1.70086 17.1807 2.85938 17.1807H22.6406C23.7963 17.1807 24.75 16.2418 24.75 15.0713V2.41504C24.75 1.25751 23.8098 0.305664 22.6406 0.305664ZM22.3452 1.71191L14.2416 9.77287C13.8431 10.1713 13.3134 10.3907 12.75 10.3907C12.1866 10.3907 11.6569 10.1713 11.2571 9.77155L3.15478 1.71191H22.3452ZM2.15625 14.7851V2.70215L8.23303 8.74691L2.15625 14.7851ZM3.15567 15.7744L9.23006 9.73865L10.2641 10.7672C10.9281 11.4313 11.811 11.7969 12.75 11.7969C13.689 11.7969 14.5719 11.4313 15.2346 10.7685L16.2699 9.73865L22.3443 15.7744H3.15567ZM23.3438 14.7851L17.267 8.74691L23.3438 2.70215V14.7851Z" fill="#FFB300"/>
</svg>
