<svg width="56" height="56" viewBox="0 0 56 56" fill="none" xmlns="http://www.w3.org/2000/svg">
<rect x="0.496826" width="55.4868" height="55.4868" rx="27.7434" fill="#FFB300"/>
<rect x="0.496826" width="55.4868" height="55.4868" rx="27.7434" fill="url(#paint0_linear_53_4444)"/>
<g clip-path="url(#clip0_53_4444)">
<path d="M36.0802 26.5767C39.6187 26.5767 42.4968 23.6974 42.4968 20.1601C42.4968 16.6227 39.6187 13.7434 36.0802 13.7434C32.5417 13.7434 29.6635 16.6227 29.6635 20.1601C29.6635 23.6974 32.5417 26.5767 36.0802 26.5767ZM36.0802 14.9101C38.9747 14.9101 41.3302 17.2656 41.3302 20.1601C41.3302 23.0546 38.9747 25.4101 36.0802 25.4101C33.1857 25.4101 30.8302 23.0546 30.8302 20.1601C30.8302 17.2656 33.1857 14.9101 36.0802 14.9101ZM35.6672 20.5731C35.5575 20.4634 35.4968 20.3152 35.4968 20.1601V17.2434C35.4968 16.9214 35.7582 16.6601 36.0802 16.6601C36.4022 16.6601 36.6635 16.9214 36.6635 17.2434V19.9186L38.2432 21.4982C38.4707 21.7257 38.4707 22.0956 38.2432 22.3231C38.1288 22.4374 37.9795 22.4934 37.8302 22.4934C37.6808 22.4934 37.5315 22.4362 37.4172 22.3231L35.6672 20.5731ZM34.3302 37.0767C33.0433 37.0767 31.9968 38.1232 31.9968 39.4101C31.9968 40.6969 33.0433 41.7434 34.3302 41.7434C35.617 41.7434 36.6635 40.6969 36.6635 39.4101C36.6635 38.1232 35.617 37.0767 34.3302 37.0767ZM34.3302 40.5767C33.6873 40.5767 33.1635 40.0541 33.1635 39.4101C33.1635 38.7661 33.6873 38.2434 34.3302 38.2434C34.973 38.2434 35.4968 38.7661 35.4968 39.4101C35.4968 40.0541 34.973 40.5767 34.3302 40.5767ZM22.6635 37.0767C21.3767 37.0767 20.3302 38.1232 20.3302 39.4101C20.3302 40.6969 21.3767 41.7434 22.6635 41.7434C23.9503 41.7434 24.9968 40.6969 24.9968 39.4101C24.9968 38.1232 23.9503 37.0767 22.6635 37.0767ZM22.6635 40.5767C22.0207 40.5767 21.4968 40.0541 21.4968 39.4101C21.4968 38.7661 22.0207 38.2434 22.6635 38.2434C23.3063 38.2434 23.8302 38.7661 23.8302 39.4101C23.8302 40.0541 23.3063 40.5767 22.6635 40.5767ZM40.8227 28.6021C39.8893 30.2307 38.1428 31.2434 36.2657 31.2434H21.5202C21.8083 33.2396 23.5408 34.7434 25.5592 34.7434H37.2457C37.5677 34.7434 37.829 35.0047 37.829 35.3267C37.829 35.6487 37.5677 35.9101 37.2457 35.9101H25.5603C22.954 35.9101 20.7187 33.9629 20.3605 31.3811L18.2827 16.4186C18.1625 15.5587 17.417 14.9101 16.549 14.9101H15.0802C14.7582 14.9101 14.4968 14.6487 14.4968 14.3267C14.4968 14.0047 14.7582 13.7434 15.0802 13.7434H16.549C17.9957 13.7434 19.2382 14.8249 19.4377 16.2576L19.7363 18.4101H26.7468C27.0688 18.4101 27.3302 18.6714 27.3302 18.9934C27.3302 19.3154 27.0688 19.5767 26.7468 19.5767H19.8985L21.3568 30.0767H36.2668C37.7263 30.0767 39.0855 29.2892 39.8123 28.0211C39.971 27.7411 40.328 27.6466 40.608 27.8052C40.888 27.9639 40.9837 28.3209 40.8227 28.6021Z" fill="#191919"/>
</g>
<defs>
<linearGradient id="paint0_linear_53_4444" x1="8.52293" y1="1.829" x2="55.6572" y2="24.2204" gradientUnits="userSpaceOnUse">
<stop stop-color="#FFCC54"/>
<stop offset="1" stop-color="#FFB300"/>
</linearGradient>
<clipPath id="clip0_53_4444">
<rect width="28" height="28" fill="white" transform="translate(14.4968 13.7434)"/>
</clipPath>
</defs>
</svg>
