<svg width="25" height="25" viewBox="0 0 25 25" fill="none" xmlns="http://www.w3.org/2000/svg">
<mask id="path-1-outside-1_199_934" maskUnits="userSpaceOnUse" x="0.648926" y="1.99487" width="22" height="22" fill="black">
<rect fill="white" x="0.648926" y="1.99487" width="22" height="22"/>
<path d="M17.494 3.10738C17.9715 2.88513 18.5658 3.00336 18.9436 3.36336C19.7257 4.14336 20.5071 4.92407 21.2871 5.70655C21.4877 5.89259 21.6802 6.09922 21.7781 6.35945C21.9763 6.83697 21.8442 7.41318 21.4856 7.77886C20.8089 8.45129 20.1393 9.13117 19.4587 9.79969C18.4345 10.5637 17.4063 11.3235 16.381 12.0864C16.4584 12.2838 16.4989 12.5082 16.4119 12.7102C16.3426 12.9392 16.141 13.0816 15.9844 13.2481C14.5703 14.6625 13.1566 16.0773 11.7415 17.4903C11.5892 17.648 11.434 17.8219 11.2142 17.8812C11.0236 17.9529 10.8198 17.905 10.637 17.8358C9.96205 18.7266 9.30454 19.6305 8.63353 20.5241C8.53661 20.6568 8.42655 20.7854 8.37613 20.9451C8.14217 21.5828 7.77826 22.1842 7.26383 22.6344C6.91306 22.9408 6.47495 23.1637 6.00773 23.2084C5.55933 23.2518 5.10702 23.0842 4.76655 22.7963C4.52974 22.5712 4.3043 22.334 4.07176 22.1043C3.97767 22.0212 3.96809 21.8615 4.06607 21.7773C4.25389 21.5874 4.44915 21.4045 4.63838 21.216C4.71933 21.117 4.88229 21.1148 4.96998 21.2061C5.19045 21.4109 5.38501 21.6428 5.6101 21.8426C5.76418 21.9832 5.99921 21.9506 6.16892 21.8576C6.42099 21.7198 6.62584 21.5061 6.78347 21.2682C7.10868 20.7626 7.28335 20.1687 7.67034 19.7015C8.35519 18.7937 9.05175 17.8944 9.72844 16.9805C9.1185 16.3613 8.50359 15.7464 7.88442 15.1365C6.91093 15.8608 5.95128 16.6038 4.98063 17.3324C4.44738 17.7048 3.77921 17.8613 3.30241 18.3172C3.11815 18.5004 2.93282 18.7248 2.92465 18.9971C2.91933 19.1277 2.9985 19.2399 3.08548 19.3294C3.27365 19.5193 3.47318 19.699 3.65708 19.8935C3.74051 19.9738 3.75081 20.1254 3.66489 20.2077C3.50513 20.3789 3.33684 20.5422 3.17886 20.7154C3.10856 20.7854 3.03045 20.8741 2.92146 20.8674C2.83022 20.8692 2.76418 20.7978 2.70454 20.7389C2.49507 20.5216 2.27318 20.3167 2.06726 20.0959C1.76868 19.7476 1.60891 19.2786 1.65755 18.8199C1.72217 18.298 1.99803 17.8209 2.36655 17.4531C2.794 17.0245 3.32584 16.7079 3.89247 16.4995C3.98477 16.4657 4.07744 16.4284 4.15625 16.3681C5.11306 15.658 6.0688 14.9466 7.02596 14.2368C7.00678 14.1506 6.97625 14.0675 6.95566 13.9819C6.91767 13.7416 7.01389 13.4924 7.17862 13.3177C8.72264 11.7729 10.2681 10.2296 11.811 8.68419C11.9815 8.49105 12.2452 8.38028 12.5026 8.40797C12.5974 8.42253 12.688 8.45484 12.7792 8.48324C13.5486 7.4533 14.3097 6.41697 15.0816 5.38916C15.6319 4.82608 16.195 4.27614 16.7484 3.71626C16.9799 3.49472 17.1883 3.23129 17.494 3.10738ZM17.7244 3.49188C17.4649 3.57105 17.3083 3.80395 17.1163 3.97791C16.5408 4.56123 15.9535 5.13389 15.3816 5.72075C14.63 6.73969 13.8652 7.74939 13.1215 8.77365C13.1978 8.8578 13.2777 8.93874 13.3608 9.01614C14.1507 7.9972 14.9183 6.96052 15.7054 5.9391C16.3323 5.30075 16.9718 4.67377 17.6012 4.0372C17.7337 3.89413 17.9346 3.783 18.1334 3.83839C18.3432 3.89093 18.4753 4.07342 18.6241 4.21507C19.3639 4.9546 20.1035 5.69484 20.8434 6.43436C20.9651 6.55294 21.0603 6.71874 21.0376 6.89413C21.0205 7.03046 20.9424 7.15188 20.8451 7.24596C20.211 7.87756 19.5794 8.51235 18.9454 9.14395C17.9193 9.93779 16.8752 10.7089 15.8506 11.5042C15.9269 11.5866 16.0071 11.6661 16.0892 11.7435C16.6206 11.3718 17.1319 10.9709 17.6573 10.59C18.1572 10.2137 18.6638 9.8462 19.1619 9.46809C19.8234 8.8159 20.4766 8.15519 21.1355 7.50052C21.3802 7.27365 21.5023 6.8991 21.3851 6.57886C21.3393 6.42584 21.2495 6.28845 21.1331 6.17981C20.3555 5.40691 19.583 4.62939 18.8066 3.85578C18.7171 3.76774 18.6354 3.67081 18.5332 3.59803C18.2985 3.44182 17.9903 3.3804 17.7244 3.49188ZM17.81 4.45862C17.2146 5.05827 16.6125 5.65117 16.0196 6.2533C15.2406 7.28111 14.4535 8.30359 13.6838 9.33851C14.297 9.95448 14.9105 10.5705 15.5282 11.1818C16.5621 10.411 17.5856 9.62572 18.6116 8.84501C19.2503 8.21768 19.877 7.57791 20.5139 6.9488C20.5505 6.91365 20.5785 6.87105 20.6023 6.82632C19.7506 5.96785 18.8964 5.11152 18.0365 4.26087C17.9456 4.30738 17.8813 4.38833 17.81 4.45862ZM12.307 8.86561C12.2009 8.90075 12.1316 8.99484 12.0539 9.06939C10.6114 10.5144 9.16537 11.9561 7.72252 13.4011C7.61815 13.5083 7.49566 13.6031 7.42075 13.7355C7.39093 13.8509 7.38347 13.9947 7.47365 14.0863C7.63128 14.2716 7.81128 14.4364 7.98418 14.6075C8.73826 15.3676 9.49519 16.1249 10.2557 16.879C10.4264 17.0522 10.5922 17.2315 10.7772 17.3899C10.8684 17.4815 11.0126 17.4708 11.129 17.4449C11.2547 17.375 11.3477 17.2621 11.4489 17.1626C12.9337 15.6768 14.4202 14.1925 15.9042 12.7063C16.0583 12.5661 16.0458 12.3026 15.89 12.1684C14.8341 11.1062 13.7736 10.0482 12.7135 8.99058C12.6123 8.87768 12.4554 8.81626 12.307 8.86561ZM4.36749 16.76C4.21696 16.8754 4.02489 16.9088 3.85554 16.9869C3.27081 17.2397 2.71874 17.6181 2.36371 18.1567C2.14146 18.5057 2.00903 18.9502 2.14998 19.355C2.26891 19.7735 2.64028 20.0345 2.92749 20.3345C3.01767 20.2447 3.1082 20.1545 3.19732 20.0629C3.04359 19.8985 2.87779 19.7466 2.72264 19.5839C2.54868 19.4047 2.45673 19.1455 2.48548 18.8973C2.55116 18.4645 2.84087 18.1042 3.17602 17.8404C3.7043 17.4222 4.38738 17.2635 4.90892 16.835C5.79329 16.1615 6.68158 15.4929 7.56418 14.817C7.48714 14.7303 7.40584 14.6476 7.32028 14.5695C6.33436 15.297 5.35306 16.0319 4.36749 16.76ZM8.24584 19.6731C8.07684 19.9077 7.87838 20.1232 7.7456 20.3824C7.45767 20.9107 7.25637 21.5071 6.8069 21.9286C6.53175 22.1977 6.15613 22.4164 5.75921 22.378C5.33424 22.3195 5.10063 21.9264 4.80099 21.668C4.70974 21.756 4.62063 21.8458 4.53294 21.9374C4.71791 22.1281 4.89791 22.3248 5.09992 22.498C5.31436 22.6713 5.58951 22.7647 5.86323 22.7764C6.30099 22.7625 6.70963 22.5484 7.02631 22.2545C7.46371 21.8494 7.77471 21.3208 7.97282 20.7616C8.00335 20.6757 8.03637 20.5894 8.09211 20.5166C8.82383 19.5239 9.56619 18.5387 10.2951 17.5439C10.2163 17.4587 10.1346 17.3767 10.0476 17.3004C9.44619 18.0907 8.84655 18.8824 8.24584 19.6731Z"/>
</mask>
<path d="M17.494 3.10738C17.9715 2.88513 18.5658 3.00336 18.9436 3.36336C19.7257 4.14336 20.5071 4.92407 21.2871 5.70655C21.4877 5.89259 21.6802 6.09922 21.7781 6.35945C21.9763 6.83697 21.8442 7.41318 21.4856 7.77886C20.8089 8.45129 20.1393 9.13117 19.4587 9.79969C18.4345 10.5637 17.4063 11.3235 16.381 12.0864C16.4584 12.2838 16.4989 12.5082 16.4119 12.7102C16.3426 12.9392 16.141 13.0816 15.9844 13.2481C14.5703 14.6625 13.1566 16.0773 11.7415 17.4903C11.5892 17.648 11.434 17.8219 11.2142 17.8812C11.0236 17.9529 10.8198 17.905 10.637 17.8358C9.96205 18.7266 9.30454 19.6305 8.63353 20.5241C8.53661 20.6568 8.42655 20.7854 8.37613 20.9451C8.14217 21.5828 7.77826 22.1842 7.26383 22.6344C6.91306 22.9408 6.47495 23.1637 6.00773 23.2084C5.55933 23.2518 5.10702 23.0842 4.76655 22.7963C4.52974 22.5712 4.3043 22.334 4.07176 22.1043C3.97767 22.0212 3.96809 21.8615 4.06607 21.7773C4.25389 21.5874 4.44915 21.4045 4.63838 21.216C4.71933 21.117 4.88229 21.1148 4.96998 21.2061C5.19045 21.4109 5.38501 21.6428 5.6101 21.8426C5.76418 21.9832 5.99921 21.9506 6.16892 21.8576C6.42099 21.7198 6.62584 21.5061 6.78347 21.2682C7.10868 20.7626 7.28335 20.1687 7.67034 19.7015C8.35519 18.7937 9.05175 17.8944 9.72844 16.9805C9.1185 16.3613 8.50359 15.7464 7.88442 15.1365C6.91093 15.8608 5.95128 16.6038 4.98063 17.3324C4.44738 17.7048 3.77921 17.8613 3.30241 18.3172C3.11815 18.5004 2.93282 18.7248 2.92465 18.9971C2.91933 19.1277 2.9985 19.2399 3.08548 19.3294C3.27365 19.5193 3.47318 19.699 3.65708 19.8935C3.74051 19.9738 3.75081 20.1254 3.66489 20.2077C3.50513 20.3789 3.33684 20.5422 3.17886 20.7154C3.10856 20.7854 3.03045 20.8741 2.92146 20.8674C2.83022 20.8692 2.76418 20.7978 2.70454 20.7389C2.49507 20.5216 2.27318 20.3167 2.06726 20.0959C1.76868 19.7476 1.60891 19.2786 1.65755 18.8199C1.72217 18.298 1.99803 17.8209 2.36655 17.4531C2.794 17.0245 3.32584 16.7079 3.89247 16.4995C3.98477 16.4657 4.07744 16.4284 4.15625 16.3681C5.11306 15.658 6.0688 14.9466 7.02596 14.2368C7.00678 14.1506 6.97625 14.0675 6.95566 13.9819C6.91767 13.7416 7.01389 13.4924 7.17862 13.3177C8.72264 11.7729 10.2681 10.2296 11.811 8.68419C11.9815 8.49105 12.2452 8.38028 12.5026 8.40797C12.5974 8.42253 12.688 8.45484 12.7792 8.48324C13.5486 7.4533 14.3097 6.41697 15.0816 5.38916C15.6319 4.82608 16.195 4.27614 16.7484 3.71626C16.9799 3.49472 17.1883 3.23129 17.494 3.10738ZM17.7244 3.49188C17.4649 3.57105 17.3083 3.80395 17.1163 3.97791C16.5408 4.56123 15.9535 5.13389 15.3816 5.72075C14.63 6.73969 13.8652 7.74939 13.1215 8.77365C13.1978 8.8578 13.2777 8.93874 13.3608 9.01614C14.1507 7.9972 14.9183 6.96052 15.7054 5.9391C16.3323 5.30075 16.9718 4.67377 17.6012 4.0372C17.7337 3.89413 17.9346 3.783 18.1334 3.83839C18.3432 3.89093 18.4753 4.07342 18.6241 4.21507C19.3639 4.9546 20.1035 5.69484 20.8434 6.43436C20.9651 6.55294 21.0603 6.71874 21.0376 6.89413C21.0205 7.03046 20.9424 7.15188 20.8451 7.24596C20.211 7.87756 19.5794 8.51235 18.9454 9.14395C17.9193 9.93779 16.8752 10.7089 15.8506 11.5042C15.9269 11.5866 16.0071 11.6661 16.0892 11.7435C16.6206 11.3718 17.1319 10.9709 17.6573 10.59C18.1572 10.2137 18.6638 9.8462 19.1619 9.46809C19.8234 8.8159 20.4766 8.15519 21.1355 7.50052C21.3802 7.27365 21.5023 6.8991 21.3851 6.57886C21.3393 6.42584 21.2495 6.28845 21.1331 6.17981C20.3555 5.40691 19.583 4.62939 18.8066 3.85578C18.7171 3.76774 18.6354 3.67081 18.5332 3.59803C18.2985 3.44182 17.9903 3.3804 17.7244 3.49188ZM17.81 4.45862C17.2146 5.05827 16.6125 5.65117 16.0196 6.2533C15.2406 7.28111 14.4535 8.30359 13.6838 9.33851C14.297 9.95448 14.9105 10.5705 15.5282 11.1818C16.5621 10.411 17.5856 9.62572 18.6116 8.84501C19.2503 8.21768 19.877 7.57791 20.5139 6.9488C20.5505 6.91365 20.5785 6.87105 20.6023 6.82632C19.7506 5.96785 18.8964 5.11152 18.0365 4.26087C17.9456 4.30738 17.8813 4.38833 17.81 4.45862ZM12.307 8.86561C12.2009 8.90075 12.1316 8.99484 12.0539 9.06939C10.6114 10.5144 9.16537 11.9561 7.72252 13.4011C7.61815 13.5083 7.49566 13.6031 7.42075 13.7355C7.39093 13.8509 7.38347 13.9947 7.47365 14.0863C7.63128 14.2716 7.81128 14.4364 7.98418 14.6075C8.73826 15.3676 9.49519 16.1249 10.2557 16.879C10.4264 17.0522 10.5922 17.2315 10.7772 17.3899C10.8684 17.4815 11.0126 17.4708 11.129 17.4449C11.2547 17.375 11.3477 17.2621 11.4489 17.1626C12.9337 15.6768 14.4202 14.1925 15.9042 12.7063C16.0583 12.5661 16.0458 12.3026 15.89 12.1684C14.8341 11.1062 13.7736 10.0482 12.7135 8.99058C12.6123 8.87768 12.4554 8.81626 12.307 8.86561ZM4.36749 16.76C4.21696 16.8754 4.02489 16.9088 3.85554 16.9869C3.27081 17.2397 2.71874 17.6181 2.36371 18.1567C2.14146 18.5057 2.00903 18.9502 2.14998 19.355C2.26891 19.7735 2.64028 20.0345 2.92749 20.3345C3.01767 20.2447 3.1082 20.1545 3.19732 20.0629C3.04359 19.8985 2.87779 19.7466 2.72264 19.5839C2.54868 19.4047 2.45673 19.1455 2.48548 18.8973C2.55116 18.4645 2.84087 18.1042 3.17602 17.8404C3.7043 17.4222 4.38738 17.2635 4.90892 16.835C5.79329 16.1615 6.68158 15.4929 7.56418 14.817C7.48714 14.7303 7.40584 14.6476 7.32028 14.5695C6.33436 15.297 5.35306 16.0319 4.36749 16.76ZM8.24584 19.6731C8.07684 19.9077 7.87838 20.1232 7.7456 20.3824C7.45767 20.9107 7.25637 21.5071 6.8069 21.9286C6.53175 22.1977 6.15613 22.4164 5.75921 22.378C5.33424 22.3195 5.10063 21.9264 4.80099 21.668C4.70974 21.756 4.62063 21.8458 4.53294 21.9374C4.71791 22.1281 4.89791 22.3248 5.09992 22.498C5.31436 22.6713 5.58951 22.7647 5.86323 22.7764C6.30099 22.7625 6.70963 22.5484 7.02631 22.2545C7.46371 21.8494 7.77471 21.3208 7.97282 20.7616C8.00335 20.6757 8.03637 20.5894 8.09211 20.5166C8.82383 19.5239 9.56619 18.5387 10.2951 17.5439C10.2163 17.4587 10.1346 17.3767 10.0476 17.3004C9.44619 18.0907 8.84655 18.8824 8.24584 19.6731Z" fill="black"/>
<path d="M17.494 3.10738C17.9715 2.88513 18.5658 3.00336 18.9436 3.36336C19.7257 4.14336 20.5071 4.92407 21.2871 5.70655C21.4877 5.89259 21.6802 6.09922 21.7781 6.35945C21.9763 6.83697 21.8442 7.41318 21.4856 7.77886C20.8089 8.45129 20.1393 9.13117 19.4587 9.79969C18.4345 10.5637 17.4063 11.3235 16.381 12.0864C16.4584 12.2838 16.4989 12.5082 16.4119 12.7102C16.3426 12.9392 16.141 13.0816 15.9844 13.2481C14.5703 14.6625 13.1566 16.0773 11.7415 17.4903C11.5892 17.648 11.434 17.8219 11.2142 17.8812C11.0236 17.9529 10.8198 17.905 10.637 17.8358C9.96205 18.7266 9.30454 19.6305 8.63353 20.5241C8.53661 20.6568 8.42655 20.7854 8.37613 20.9451C8.14217 21.5828 7.77826 22.1842 7.26383 22.6344C6.91306 22.9408 6.47495 23.1637 6.00773 23.2084C5.55933 23.2518 5.10702 23.0842 4.76655 22.7963C4.52974 22.5712 4.3043 22.334 4.07176 22.1043C3.97767 22.0212 3.96809 21.8615 4.06607 21.7773C4.25389 21.5874 4.44915 21.4045 4.63838 21.216C4.71933 21.117 4.88229 21.1148 4.96998 21.2061C5.19045 21.4109 5.38501 21.6428 5.6101 21.8426C5.76418 21.9832 5.99921 21.9506 6.16892 21.8576C6.42099 21.7198 6.62584 21.5061 6.78347 21.2682C7.10868 20.7626 7.28335 20.1687 7.67034 19.7015C8.35519 18.7937 9.05175 17.8944 9.72844 16.9805C9.1185 16.3613 8.50359 15.7464 7.88442 15.1365C6.91093 15.8608 5.95128 16.6038 4.98063 17.3324C4.44738 17.7048 3.77921 17.8613 3.30241 18.3172C3.11815 18.5004 2.93282 18.7248 2.92465 18.9971C2.91933 19.1277 2.9985 19.2399 3.08548 19.3294C3.27365 19.5193 3.47318 19.699 3.65708 19.8935C3.74051 19.9738 3.75081 20.1254 3.66489 20.2077C3.50513 20.3789 3.33684 20.5422 3.17886 20.7154C3.10856 20.7854 3.03045 20.8741 2.92146 20.8674C2.83022 20.8692 2.76418 20.7978 2.70454 20.7389C2.49507 20.5216 2.27318 20.3167 2.06726 20.0959C1.76868 19.7476 1.60891 19.2786 1.65755 18.8199C1.72217 18.298 1.99803 17.8209 2.36655 17.4531C2.794 17.0245 3.32584 16.7079 3.89247 16.4995C3.98477 16.4657 4.07744 16.4284 4.15625 16.3681C5.11306 15.658 6.0688 14.9466 7.02596 14.2368C7.00678 14.1506 6.97625 14.0675 6.95566 13.9819C6.91767 13.7416 7.01389 13.4924 7.17862 13.3177C8.72264 11.7729 10.2681 10.2296 11.811 8.68419C11.9815 8.49105 12.2452 8.38028 12.5026 8.40797C12.5974 8.42253 12.688 8.45484 12.7792 8.48324C13.5486 7.4533 14.3097 6.41697 15.0816 5.38916C15.6319 4.82608 16.195 4.27614 16.7484 3.71626C16.9799 3.49472 17.1883 3.23129 17.494 3.10738ZM17.7244 3.49188C17.4649 3.57105 17.3083 3.80395 17.1163 3.97791C16.5408 4.56123 15.9535 5.13389 15.3816 5.72075C14.63 6.73969 13.8652 7.74939 13.1215 8.77365C13.1978 8.8578 13.2777 8.93874 13.3608 9.01614C14.1507 7.9972 14.9183 6.96052 15.7054 5.9391C16.3323 5.30075 16.9718 4.67377 17.6012 4.0372C17.7337 3.89413 17.9346 3.783 18.1334 3.83839C18.3432 3.89093 18.4753 4.07342 18.6241 4.21507C19.3639 4.9546 20.1035 5.69484 20.8434 6.43436C20.9651 6.55294 21.0603 6.71874 21.0376 6.89413C21.0205 7.03046 20.9424 7.15188 20.8451 7.24596C20.211 7.87756 19.5794 8.51235 18.9454 9.14395C17.9193 9.93779 16.8752 10.7089 15.8506 11.5042C15.9269 11.5866 16.0071 11.6661 16.0892 11.7435C16.6206 11.3718 17.1319 10.9709 17.6573 10.59C18.1572 10.2137 18.6638 9.8462 19.1619 9.46809C19.8234 8.8159 20.4766 8.15519 21.1355 7.50052C21.3802 7.27365 21.5023 6.8991 21.3851 6.57886C21.3393 6.42584 21.2495 6.28845 21.1331 6.17981C20.3555 5.40691 19.583 4.62939 18.8066 3.85578C18.7171 3.76774 18.6354 3.67081 18.5332 3.59803C18.2985 3.44182 17.9903 3.3804 17.7244 3.49188ZM17.81 4.45862C17.2146 5.05827 16.6125 5.65117 16.0196 6.2533C15.2406 7.28111 14.4535 8.30359 13.6838 9.33851C14.297 9.95448 14.9105 10.5705 15.5282 11.1818C16.5621 10.411 17.5856 9.62572 18.6116 8.84501C19.2503 8.21768 19.877 7.57791 20.5139 6.9488C20.5505 6.91365 20.5785 6.87105 20.6023 6.82632C19.7506 5.96785 18.8964 5.11152 18.0365 4.26087C17.9456 4.30738 17.8813 4.38833 17.81 4.45862ZM12.307 8.86561C12.2009 8.90075 12.1316 8.99484 12.0539 9.06939C10.6114 10.5144 9.16537 11.9561 7.72252 13.4011C7.61815 13.5083 7.49566 13.6031 7.42075 13.7355C7.39093 13.8509 7.38347 13.9947 7.47365 14.0863C7.63128 14.2716 7.81128 14.4364 7.98418 14.6075C8.73826 15.3676 9.49519 16.1249 10.2557 16.879C10.4264 17.0522 10.5922 17.2315 10.7772 17.3899C10.8684 17.4815 11.0126 17.4708 11.129 17.4449C11.2547 17.375 11.3477 17.2621 11.4489 17.1626C12.9337 15.6768 14.4202 14.1925 15.9042 12.7063C16.0583 12.5661 16.0458 12.3026 15.89 12.1684C14.8341 11.1062 13.7736 10.0482 12.7135 8.99058C12.6123 8.87768 12.4554 8.81626 12.307 8.86561ZM4.36749 16.76C4.21696 16.8754 4.02489 16.9088 3.85554 16.9869C3.27081 17.2397 2.71874 17.6181 2.36371 18.1567C2.14146 18.5057 2.00903 18.9502 2.14998 19.355C2.26891 19.7735 2.64028 20.0345 2.92749 20.3345C3.01767 20.2447 3.1082 20.1545 3.19732 20.0629C3.04359 19.8985 2.87779 19.7466 2.72264 19.5839C2.54868 19.4047 2.45673 19.1455 2.48548 18.8973C2.55116 18.4645 2.84087 18.1042 3.17602 17.8404C3.7043 17.4222 4.38738 17.2635 4.90892 16.835C5.79329 16.1615 6.68158 15.4929 7.56418 14.817C7.48714 14.7303 7.40584 14.6476 7.32028 14.5695C6.33436 15.297 5.35306 16.0319 4.36749 16.76ZM8.24584 19.6731C8.07684 19.9077 7.87838 20.1232 7.7456 20.3824C7.45767 20.9107 7.25637 21.5071 6.8069 21.9286C6.53175 22.1977 6.15613 22.4164 5.75921 22.378C5.33424 22.3195 5.10063 21.9264 4.80099 21.668C4.70974 21.756 4.62063 21.8458 4.53294 21.9374C4.71791 22.1281 4.89791 22.3248 5.09992 22.498C5.31436 22.6713 5.58951 22.7647 5.86323 22.7764C6.30099 22.7625 6.70963 22.5484 7.02631 22.2545C7.46371 21.8494 7.77471 21.3208 7.97282 20.7616C8.00335 20.6757 8.03637 20.5894 8.09211 20.5166C8.82383 19.5239 9.56619 18.5387 10.2951 17.5439C10.2163 17.4587 10.1346 17.3767 10.0476 17.3004C9.44619 18.0907 8.84655 18.8824 8.24584 19.6731Z" stroke="black" stroke-width="0.14" mask="url(#path-1-outside-1_199_934)"/>
<path d="M9.14481 14.1565C9.1221 14.1329 9.09822 14.1104 9.07492 14.0885L9.0725 14.0862C9.04976 14.0648 9.02762 14.044 9.00653 14.0224C8.96878 13.9839 8.93583 13.9444 8.91196 13.8994C9.57767 13.2341 10.2432 12.5686 10.9087 11.903C11.4124 11.3992 11.9162 10.8954 12.4201 10.3917L12.4203 10.3918L9.11985 14.181M9.14481 14.1565C9.14488 14.1565 9.14496 14.1566 9.14503 14.1567L9.11985 14.181M9.14481 14.1565C9.14474 14.1564 9.14466 14.1563 9.14459 14.1562L9.11985 14.181M9.14481 14.1565C9.40196 14.4134 9.65901 14.6706 9.9161 14.9277L9.91666 14.9283L9.91696 14.9286C10.1741 15.1859 10.4314 15.4432 10.6888 15.7004M9.11985 14.181C9.37724 14.4382 9.63454 14.6956 9.89188 14.953C10.1492 15.2105 10.4066 15.468 10.6642 15.7254M10.6888 15.7004C10.6887 15.7003 10.6886 15.7003 10.6886 15.7002L10.6642 15.7254M10.6888 15.7004C10.6888 15.7005 10.6889 15.7005 10.689 15.7006L10.6642 15.7254M10.6888 15.7004C10.7137 15.7246 10.7378 15.7499 10.7613 15.7747L10.7647 15.7783C10.7873 15.8021 10.8094 15.8255 10.8321 15.8478C10.8737 15.8887 10.9163 15.9253 10.9644 15.9531C11.5544 15.3653 12.143 14.7763 12.7316 14.1873C13.2347 13.6838 13.7379 13.1803 14.2421 12.6774M10.6642 15.7254L14.2421 12.6774M14.2421 12.6774C14.242 12.6775 14.2419 12.6776 14.2418 12.6777L14.2671 12.7019L14.2423 12.6772C14.2423 12.6772 14.2422 12.6773 14.2421 12.6774ZM14.5036 12.4035C14.5096 12.4105 14.5156 12.4175 14.5215 12.4245L14.5482 12.4019L14.5197 12.3816C14.5145 12.389 14.5091 12.3963 14.5036 12.4035ZM12.8328 10.0069C12.705 9.87461 12.5095 9.83005 12.3362 9.86681C12.1776 9.89772 12.0626 10.0158 11.9656 10.1177C11.4611 10.6228 10.9562 11.1275 10.4513 11.6322C9.81999 12.2632 9.18873 12.8942 8.5584 13.526C8.35463 13.7261 8.34612 14.0829 8.55567 14.2841C8.91126 14.6416 9.26819 14.9982 9.62511 15.3549C9.93105 15.6606 10.237 15.9664 10.542 16.2726C10.6424 16.3747 10.7813 16.4687 10.9411 16.4613C11.122 16.4775 11.281 16.3716 11.3936 16.2543C12.0214 15.6236 12.6507 14.9946 13.2801 14.3655C13.8046 13.8412 14.3292 13.3168 14.853 12.7915C15.0582 12.5924 15.0635 12.2306 14.8565 12.0298C14.6035 11.777 14.3506 11.524 14.0977 11.2711C13.6763 10.8496 13.2548 10.4281 12.8328 10.0069Z" fill="black" stroke="black" stroke-width="0.07"/>
</svg>
