<svg width="24" height="25" viewBox="0 0 24 25" fill="none" xmlns="http://www.w3.org/2000/svg">
<path d="M3.56934 7.25255C3.71852 7.25255 3.86159 7.19329 3.96708 7.0878C4.07257 6.98231 4.13184 6.83924 4.13184 6.69005V4.39355H6.42834C6.57752 4.39355 6.72059 4.33429 6.82608 4.2288C6.93157 4.12331 6.99084 3.98024 6.99084 3.83105C6.99084 3.68187 6.93157 3.5388 6.82608 3.43331C6.72059 3.32782 6.57752 3.26855 6.42834 3.26855H3.56934C3.42015 3.26855 3.27708 3.32782 3.17159 3.43331C3.0661 3.5388 3.00684 3.68187 3.00684 3.83105V6.69005C3.00684 6.83924 3.0661 6.98231 3.17159 7.0878C3.27708 7.19329 3.42015 7.25255 3.56934 7.25255ZM20.4443 3.26855H17.5853C17.4362 3.26855 17.2931 3.32782 17.1876 3.43331C17.0821 3.5388 17.0228 3.68187 17.0228 3.83105C17.0228 3.98024 17.0821 4.12331 17.1876 4.2288C17.2931 4.33429 17.4362 4.39355 17.5853 4.39355H19.8818V6.69005C19.8818 6.83924 19.9411 6.98231 20.0466 7.0878C20.1521 7.19329 20.2952 7.25255 20.4443 7.25255C20.5935 7.25255 20.7366 7.19329 20.8421 7.0878C20.9476 6.98231 21.0068 6.83924 21.0068 6.69005V3.83105C21.0068 3.68187 20.9476 3.5388 20.8421 3.43331C20.7366 3.32782 20.5935 3.26855 20.4443 3.26855ZM6.42834 20.1436H4.13184V17.8471C4.13184 17.6979 4.07257 17.5548 3.96708 17.4493C3.86159 17.3438 3.71852 17.2846 3.56934 17.2846C3.42015 17.2846 3.27708 17.3438 3.17159 17.4493C3.0661 17.5548 3.00684 17.6979 3.00684 17.8471V20.7061C3.00684 20.8552 3.0661 20.9983 3.17159 21.1038C3.27708 21.2093 3.42015 21.2686 3.56934 21.2686H6.42834C6.57752 21.2686 6.72059 21.2093 6.82608 21.1038C6.93157 20.9983 6.99084 20.8552 6.99084 20.7061C6.99084 20.5569 6.93157 20.4138 6.82608 20.3083C6.72059 20.2028 6.57752 20.1436 6.42834 20.1436ZM20.4443 17.2846C20.2952 17.2846 20.1521 17.3438 20.0466 17.4493C19.9411 17.5548 19.8818 17.6979 19.8818 17.8471V20.1436H17.5853C17.4362 20.1436 17.2931 20.2028 17.1876 20.3083C17.0821 20.4138 17.0228 20.5569 17.0228 20.7061C17.0228 20.8552 17.0821 20.9983 17.1876 21.1038C17.2931 21.2093 17.4362 21.2686 17.5853 21.2686H20.4443C20.5935 21.2686 20.7366 21.2093 20.8421 21.1038C20.9476 20.9983 21.0068 20.8552 21.0068 20.7061V17.8471C21.0068 17.6979 20.9476 17.5548 20.8421 17.4493C20.7366 17.3438 20.5935 17.2846 20.4443 17.2846ZM10.5533 6.1748H6.42834C6.27915 6.1748 6.13608 6.23407 6.03059 6.33956C5.9251 6.44505 5.86584 6.58812 5.86584 6.7373V10.8623C5.86584 11.0115 5.9251 11.1546 6.03059 11.2601C6.13608 11.3655 6.27915 11.4248 6.42834 11.4248H10.5533C10.7025 11.4248 10.8456 11.3655 10.9511 11.2601C11.0566 11.1546 11.1158 11.0115 11.1158 10.8623V6.7373C11.1158 6.58812 11.0566 6.44505 10.9511 6.33956C10.8456 6.23407 10.7025 6.1748 10.5533 6.1748ZM9.99084 10.2998H6.99084V7.2998H9.99084V10.2998ZM10.5533 13.1596H6.42834C6.27915 13.1596 6.13608 13.2188 6.03059 13.3243C5.9251 13.4298 5.86584 13.5729 5.86584 13.7221V17.8471C5.86584 17.9962 5.9251 18.1393 6.03059 18.2448C6.13608 18.3503 6.27915 18.4096 6.42834 18.4096H10.5533C10.7025 18.4096 10.8456 18.3503 10.9511 18.2448C11.0566 18.1393 11.1158 17.9962 11.1158 17.8471V13.7221C11.1158 13.5729 11.0566 13.4298 10.9511 13.3243C10.8456 13.2188 10.7025 13.1596 10.5533 13.1596ZM9.99084 17.2846H6.99084V14.2846H9.99084V17.2846ZM13.4603 11.4248H17.5853C17.7345 11.4248 17.8776 11.3655 17.9831 11.2601C18.0886 11.1546 18.1478 11.0115 18.1478 10.8623V6.7373C18.1478 6.58812 18.0886 6.44505 17.9831 6.33956C17.8776 6.23407 17.7345 6.1748 17.5853 6.1748H13.4603C13.3112 6.1748 13.1681 6.23407 13.0626 6.33956C12.9571 6.44505 12.8978 6.58812 12.8978 6.7373V10.8623C12.8978 11.0115 12.9571 11.1546 13.0626 11.2601C13.1681 11.3655 13.3112 11.4248 13.4603 11.4248ZM14.0228 7.2998H17.0228V10.2998H14.0228V7.2998ZM13.4603 15.4084C13.6095 15.4084 13.7526 15.3492 13.8581 15.2437C13.9636 15.1382 14.0228 14.9951 14.0228 14.8459V14.2846H15.0076C15.1568 14.2846 15.2998 14.2253 15.4053 14.1198C15.5108 14.0143 15.5701 13.8712 15.5701 13.7221C15.5701 13.5729 15.5108 13.4298 15.4053 13.3243C15.2998 13.2188 15.1568 13.1596 15.0076 13.1596H13.4603C13.3112 13.1596 13.1681 13.2188 13.0626 13.3243C12.9571 13.4298 12.8978 13.5729 12.8978 13.7221V14.8456C12.8978 14.9947 12.9571 15.1378 13.0626 15.2433C13.1681 15.3488 13.3112 15.4084 13.4603 15.4084ZM17.0228 17.8471C17.0228 17.9962 17.0821 18.1393 17.1876 18.2448C17.2931 18.3503 17.4362 18.4096 17.5853 18.4096C17.7345 18.4096 17.8776 18.3503 17.9831 18.2448C18.0886 18.1393 18.1478 17.9962 18.1478 17.8471V15.7846C18.1478 15.6354 18.0886 15.4923 17.9831 15.3868C17.8776 15.2813 17.7345 15.2221 17.5853 15.2221H15.5228C15.3737 15.2221 15.2306 15.2813 15.1251 15.3868C15.0196 15.4923 14.9603 15.6354 14.9603 15.7846C14.9603 15.9337 15.0196 16.0768 15.1251 16.1823C15.2306 16.2878 15.3737 16.3471 15.5228 16.3471H17.0228V17.8471ZM14.6326 17.2846H13.4603C13.3112 17.2846 13.1681 17.3438 13.0626 17.4493C12.9571 17.5548 12.8978 17.6979 12.8978 17.8471C12.8978 17.9962 12.9571 18.1393 13.0626 18.2448C13.1681 18.3503 13.3112 18.4096 13.4603 18.4096H14.6326C14.7818 18.4096 14.9248 18.3503 15.0303 18.2448C15.1358 18.1393 15.1951 17.9962 15.1951 17.8471C15.1951 17.6979 15.1358 17.5548 15.0303 17.4493C14.9248 17.3438 14.7818 17.2846 14.6326 17.2846ZM17.5853 12.1876C17.4362 12.1876 17.2931 12.2468 17.1876 12.3523C17.0821 12.4578 17.0228 12.6009 17.0228 12.7501V13.7221C17.0228 13.8712 17.0821 14.0143 17.1876 14.1198C17.2931 14.2253 17.4362 14.2846 17.5853 14.2846C17.7345 14.2846 17.8776 14.2253 17.9831 14.1198C18.0886 14.0143 18.1478 13.8712 18.1478 13.7221V12.7497C18.1478 12.6005 18.0886 12.4574 17.9831 12.3519C17.8776 12.2464 17.7345 12.1876 17.5853 12.1876ZM12.8543 16.0748C12.8022 15.9575 12.7117 15.8615 12.5977 15.8026C12.4837 15.7437 12.353 15.7254 12.2272 15.7507C12.1014 15.7761 11.9879 15.8435 11.9056 15.942C11.8233 16.0404 11.777 16.164 11.7743 16.2923C11.7726 16.3768 11.7899 16.4607 11.8249 16.5376C11.8599 16.6146 11.9117 16.6827 11.9766 16.737C12.0414 16.7912 12.1177 16.8302 12.1996 16.851C12.2815 16.8718 12.3671 16.8739 12.45 16.8573C12.5329 16.8406 12.611 16.8055 12.6785 16.7545C12.746 16.7036 12.8012 16.6382 12.84 16.5631C12.8788 16.488 12.9002 16.4051 12.9027 16.3206C12.9052 16.2361 12.8887 16.1521 12.8543 16.0748ZM12.8543 12.5348C12.8217 12.4595 12.773 12.3923 12.7116 12.338C12.6501 12.2836 12.5775 12.2433 12.4989 12.2201C12.4202 12.1968 12.3374 12.1911 12.2563 12.2034C12.1751 12.2156 12.0977 12.2455 12.0294 12.291C11.9611 12.3364 11.9036 12.3963 11.861 12.4664C11.8183 12.5365 11.7916 12.615 11.7827 12.6966C11.7737 12.7781 11.7828 12.8606 11.8092 12.9383C11.8356 13.016 11.8788 13.0869 11.9356 13.1461C12.0266 13.2409 12.1481 13.3007 12.2788 13.315C12.4095 13.3293 12.541 13.2973 12.6505 13.2245C12.7599 13.1517 12.8403 13.0427 12.8776 12.9166C12.9148 12.7906 12.9066 12.6554 12.8543 12.5348Z" fill="black"/>
</svg>
