<svg width="80" height="81" viewBox="0 0 80 81" fill="none" xmlns="http://www.w3.org/2000/svg">
<rect y="0.743164" width="80" height="80" rx="13.3333" fill="white"/>
<path d="M52.1777 37.1006C52.1777 30.3818 46.709 24.9229 40 24.9229C33.291 24.9229 27.8223 30.3818 27.8223 37.1006C27.8223 43.8096 33.2812 49.2783 40 49.2783C46.7188 49.2783 52.1777 43.8096 52.1777 37.1006ZM40 47.7061C34.1504 47.7061 29.3848 42.9502 29.3848 37.0908C29.3848 31.2314 34.1504 26.4854 40 26.4854C45.8496 26.4854 50.6152 31.2412 50.6152 37.1006C50.6152 42.96 45.8496 47.7061 40 47.7061Z" fill="#FFB300"/>
<path d="M54.9219 49.6984C55.3613 49.4738 55.752 49.1808 56.0547 48.7707C56.8457 47.6867 56.6602 46.2707 56.4844 44.8937C56.3672 44.005 56.25 43.0773 56.4551 42.4523C56.6406 41.8664 57.2656 41.2121 57.8613 40.5871C58.7891 39.6105 59.834 38.507 59.834 37.1105C59.834 35.714 58.7988 34.591 57.8711 33.6144C57.2754 32.9796 56.6504 32.3351 56.4648 31.7492C56.2598 31.1242 56.377 30.1964 56.4941 29.3078C56.6699 27.9308 56.8457 26.5148 56.0645 25.4308C55.2734 24.3371 53.8574 24.0734 52.4902 23.8097C51.6113 23.6437 50.7031 23.4777 50.1855 23.0968C49.668 22.7257 49.2383 21.925 48.8184 21.1437C48.1836 19.9718 47.4512 18.6437 46.1523 18.214C44.9023 17.8039 43.623 18.4093 42.3828 18.9953C41.5527 19.3859 40.7031 19.7863 40.0195 19.7863C39.3359 19.7863 38.4863 19.3859 37.6562 18.9953C36.416 18.4093 35.1367 17.8039 33.8867 18.214C32.5781 18.6339 31.8945 19.9132 31.2207 21.1437C30.8008 21.9152 30.3613 22.7257 29.8535 23.0968C29.3262 23.4777 28.4277 23.6535 27.5488 23.8097C26.1816 24.0636 24.7656 24.3371 23.9746 25.4308C23.1836 26.5148 23.3691 27.9308 23.5449 29.3078C23.6621 30.1964 23.7793 31.1242 23.5742 31.7492C23.3887 32.3351 22.7637 32.9894 22.168 33.6144C21.2402 34.591 20.1953 35.6945 20.1953 37.091C20.1953 38.4875 21.25 39.591 22.168 40.5675C22.7637 41.2023 23.3887 41.8468 23.5742 42.4328C23.7793 43.0578 23.6621 43.9855 23.5449 44.8742C23.3691 46.2511 23.1934 47.6671 23.9746 48.7511C24.2773 49.1613 24.668 49.464 25.1074 49.6789L20.8496 57.0519C20.6934 57.3253 20.7129 57.6671 20.9082 57.921C21.1035 58.1749 21.4258 58.2824 21.7285 58.2042L28.0176 56.5148L29.707 62.8039C29.7852 63.1066 30.0488 63.3312 30.3613 63.38C30.4004 63.38 30.4297 63.3898 30.459 63.3898C30.7324 63.3898 30.9961 63.2433 31.1328 62.9992L35.127 56.0753C35.9766 55.9777 36.8359 55.5773 37.666 55.1867C38.4961 54.796 39.3457 54.3957 40.0293 54.3957C40.7129 54.3957 41.5625 54.796 42.3926 55.1867C43.2227 55.5773 44.082 55.9875 44.9316 56.0753L48.9258 62.9992C49.0625 63.2433 49.3262 63.3898 49.5996 63.3898C49.6289 63.3898 49.668 63.3898 49.6973 63.38C50.0098 63.341 50.2637 63.1164 50.3516 62.8039L52.041 56.5148L58.3301 58.2042C58.6328 58.2824 58.9551 58.1749 59.1504 57.921C59.3457 57.6671 59.3652 57.3253 59.209 57.0519L54.9219 49.6984ZM30.6934 60.5968L29.2969 55.3722C29.1895 54.9523 28.7598 54.7082 28.3398 54.8156L23.1152 56.2121L26.5918 50.1867C26.8945 50.255 27.207 50.3136 27.5195 50.3722C28.3984 50.5382 29.3066 50.7043 29.8242 51.0851C30.3418 51.4562 30.7715 52.257 31.1914 53.0382C31.7578 54.0832 32.3926 55.2453 33.4473 55.7921L30.6934 60.5968ZM40 52.8429C38.9648 52.8429 37.9492 53.3214 36.9727 53.7804C36.0059 54.2394 35.0098 54.7082 34.3555 54.4933C33.6426 54.2589 33.1055 53.2628 32.5781 52.3058C32.0703 51.3781 31.5527 50.421 30.752 49.8351C29.9414 49.2492 28.8574 49.0441 27.8125 48.8488C26.748 48.6437 25.6445 48.4386 25.2051 47.8527C24.7852 47.2765 24.9219 46.1632 25.0586 45.0988C25.1953 44.0343 25.332 42.9406 25.0195 41.9738C24.7168 41.0558 23.9746 40.2648 23.2617 39.5128C22.5 38.7121 21.709 37.882 21.709 37.1105C21.709 36.339 22.5 35.5089 23.2617 34.7082C23.9844 33.9464 24.7266 33.1652 25.0195 32.2472C25.332 31.2804 25.1953 30.1867 25.0586 29.1222C24.9219 28.048 24.7852 26.9445 25.2051 26.3683C25.6348 25.7726 26.7383 25.5675 27.8125 25.3722C28.8574 25.1769 29.9414 24.9718 30.752 24.3859C31.5527 23.8097 32.0703 22.8429 32.5781 21.9152C33.1055 20.9484 33.6426 19.9621 34.3555 19.7277C35.0195 19.5128 36.0156 19.9816 36.9727 20.4406C37.9492 20.8996 38.9648 21.3781 40 21.3781C41.0352 21.3781 42.0508 20.8996 43.0273 20.4406C43.9941 19.9816 44.9902 19.5128 45.6445 19.7277C46.3574 19.9621 46.8945 20.9582 47.4219 21.9152C47.9297 22.8429 48.4473 23.8 49.248 24.3859C50.0586 24.9718 51.1426 25.1769 52.1875 25.3722C53.2519 25.5773 54.3555 25.7824 54.7949 26.3683C55.2148 26.9445 55.0781 28.0578 54.9414 29.1222C54.8047 30.1867 54.668 31.2804 54.9805 32.2472C55.2832 33.1652 56.0254 33.9562 56.7383 34.7082C57.5 35.5089 58.291 36.339 58.291 37.1105C58.291 37.882 57.5 38.7121 56.7383 39.5128C56.0156 40.2746 55.2734 41.0558 54.9805 41.9738C54.668 42.9406 54.8047 44.0343 54.9414 45.0988C55.0781 46.173 55.2148 47.2765 54.7949 47.8527C54.3652 48.4484 53.2617 48.6535 52.1875 48.8488C51.1426 49.0441 50.0586 49.2492 49.248 49.8351C48.4473 50.4113 47.9297 51.3781 47.4219 52.3058C46.8945 53.2726 46.3574 54.2589 45.6445 54.4933C44.9805 54.7082 43.9844 54.2394 43.0273 53.7804C42.0508 53.3214 41.0352 52.8429 40 52.8429ZM51.6602 54.8156C51.2402 54.7082 50.8105 54.9523 50.7031 55.3722L49.3066 60.5968L46.543 55.8117C47.5879 55.2746 48.2031 54.1515 48.7988 53.0578C49.2188 52.2863 49.6582 51.4757 50.166 51.1046C50.6934 50.7238 51.5918 50.548 52.4707 50.3917C52.7832 50.3332 53.0957 50.2746 53.3984 50.2062L56.875 56.2316L51.6602 54.8156Z" fill="#FFB300"/>
<path d="M47.3242 32.3154C47.0215 32.0127 46.5234 32.0127 46.2207 32.3154L38.3105 40.2256L33.7891 35.7041C33.4863 35.4014 32.9883 35.4014 32.6855 35.7041C32.3828 36.0068 32.3828 36.5049 32.6855 36.8076L37.7637 41.8857C37.9102 42.0322 38.1055 42.1104 38.3203 42.1104C38.5352 42.1104 38.7305 42.0322 38.877 41.8857L47.3242 33.4189C47.627 33.1162 47.627 32.6182 47.3242 32.3154Z" fill="#FFB300"/>
</svg>
