<svg width="61" height="60" viewBox="0 0 61 60" fill="none" xmlns="http://www.w3.org/2000/svg">
<rect x="0.5" width="60" height="60" rx="17.1429" fill="white"/>
<path d="M41.2377 26.7919C41.2377 20.8606 36.4098 16.0414 30.4871 16.0414C24.5644 16.0414 19.7366 20.8606 19.7366 26.7919C19.7366 32.7146 24.5558 37.5425 30.4871 37.5425C36.4184 37.5425 41.2377 32.7146 41.2377 26.7919ZM30.4871 36.1545C25.3231 36.1545 21.116 31.956 21.116 26.7833C21.116 21.6106 25.3231 17.4208 30.4871 17.4208C35.6512 17.4208 39.8583 21.6192 39.8583 26.7919C39.8583 31.9646 35.6512 36.1545 30.4871 36.1545Z" fill="#272727"/>
<path d="M43.6601 37.9132C44.0481 37.7149 44.3929 37.4563 44.6602 37.0942C45.3585 36.1372 45.1947 34.8872 45.0395 33.6716C44.9361 32.8871 44.8326 32.0681 45.0137 31.5163C45.1775 30.999 45.7292 30.4214 46.2551 29.8697C47.0741 29.0076 47.9966 28.0334 47.9966 26.8006C47.9966 25.5677 47.0827 24.5763 46.2637 23.7142C45.7378 23.1538 45.1861 22.5848 45.0223 22.0676C44.8412 21.5158 44.9447 20.6968 45.0481 19.9123C45.2033 18.6967 45.3585 17.4466 44.6688 16.4897C43.9705 15.5241 42.7204 15.2913 41.5135 15.0586C40.7376 14.912 39.9358 14.7655 39.4789 14.4292C39.022 14.1016 38.6426 13.3947 38.2719 12.705C37.7116 11.6705 37.065 10.498 35.9184 10.1187C34.8149 9.75659 33.6855 10.2911 32.5906 10.8084C31.8578 11.1532 31.1078 11.5067 30.5043 11.5067C29.9008 11.5067 29.1508 11.1532 28.418 10.8084C27.3231 10.2911 26.1937 9.75659 25.0902 10.1187C23.935 10.4894 23.3315 11.6187 22.7367 12.705C22.366 13.3861 21.978 14.1016 21.5297 14.4292C21.0642 14.7655 20.271 14.9206 19.4951 15.0586C18.2882 15.2827 17.0381 15.5241 16.3398 16.4897C15.6415 17.4466 15.8053 18.6967 15.9605 19.9123C16.0639 20.6968 16.1674 21.5158 15.9863 22.0676C15.8225 22.5848 15.2708 23.1624 14.7449 23.7142C13.9259 24.5763 13.0034 25.5505 13.0034 26.7833C13.0034 28.0161 13.9345 28.9903 14.7449 29.8524C15.2708 30.4128 15.8225 30.9818 15.9863 31.4991C16.1674 32.0508 16.0639 32.8698 15.9605 33.6543C15.8053 34.8699 15.6501 36.12 16.3398 37.0769C16.607 37.439 16.9519 37.7063 17.3398 37.8959L13.581 44.4049C13.4431 44.6463 13.4603 44.948 13.6328 45.1722C13.8052 45.3963 14.0897 45.4911 14.3569 45.4222L19.9089 43.9307L21.4004 49.4827C21.4694 49.75 21.7021 49.9483 21.978 49.9914C22.0125 49.9914 22.0384 50 22.0642 50C22.3056 50 22.5384 49.8707 22.6591 49.6552L26.1851 43.5428C26.9352 43.4566 27.6938 43.1031 28.4266 42.7583C29.1594 42.4134 29.9094 42.0599 30.5129 42.0599C31.1164 42.0599 31.8664 42.4134 32.5992 42.7583C33.332 43.1031 34.0907 43.4652 34.8407 43.5428L38.3668 49.6552C38.4875 49.8707 38.7202 50 38.9616 50C38.9875 50 39.022 50 39.0478 49.9914C39.3237 49.9569 39.5479 49.7586 39.6255 49.4827L41.1169 43.9307L46.6689 45.4222C46.9362 45.4911 47.2207 45.3963 47.3931 45.1722C47.5655 44.948 47.5828 44.6463 47.4448 44.4049L43.6601 37.9132ZM22.2711 47.5344L21.0383 42.9221C20.9435 42.5513 20.5641 42.3358 20.1934 42.4307L15.5811 43.6635L18.6503 38.3442C18.9175 38.4046 19.1934 38.4563 19.4693 38.508C20.2452 38.6546 21.0469 38.8012 21.5038 39.1374C21.9608 39.465 22.3401 40.1719 22.7108 40.8616C23.2108 41.7841 23.7712 42.81 24.7023 43.2928L22.2711 47.5344ZM30.4871 40.6892C29.5732 40.6892 28.6766 41.1116 27.8145 41.5168C26.961 41.922 26.0817 42.3358 25.5041 42.1462C24.8747 41.9392 24.4005 41.0599 23.935 40.215C23.4867 39.396 23.0298 38.5511 22.3229 38.0339C21.6073 37.5166 20.6504 37.3356 19.7279 37.1631C18.7882 36.9821 17.814 36.8011 17.4261 36.2838C17.0553 35.7751 17.176 34.7923 17.2967 33.8526C17.4174 32.9129 17.5381 31.9474 17.2623 31.0939C16.995 30.2835 16.3398 29.5852 15.7105 28.9213C15.038 28.2144 14.3397 27.4816 14.3397 26.8006C14.3397 26.1195 15.038 25.3867 15.7105 24.6798C16.3484 24.0073 17.0036 23.3176 17.2623 22.5072C17.5381 21.6537 17.4174 20.6882 17.2967 19.7485C17.176 18.8001 17.0553 17.826 17.4261 17.3173C17.8054 16.7914 18.7796 16.6104 19.7279 16.438C20.6504 16.2655 21.6073 16.0845 22.3229 15.5672C23.0298 15.0586 23.4867 14.2051 23.935 13.3861C24.4005 12.5326 24.8747 11.6619 25.5041 11.4549C26.0903 11.2653 26.9696 11.6791 27.8145 12.0843C28.6766 12.4895 29.5732 12.9119 30.4871 12.9119C31.4009 12.9119 32.2975 12.4895 33.1596 12.0843C34.0131 11.6791 34.8925 11.2653 35.4701 11.4549C36.0994 11.6619 36.5736 12.5412 37.0391 13.3861C37.4874 14.2051 37.9443 15.05 38.6513 15.5672C39.3668 16.0845 40.3238 16.2655 41.2462 16.438C42.1859 16.619 43.1601 16.8 43.5481 17.3173C43.9188 17.826 43.7981 18.8088 43.6774 19.7485C43.5567 20.6882 43.436 21.6537 43.7119 22.5072C43.9791 23.3176 44.6343 24.0159 45.2637 24.6798C45.9361 25.3867 46.6344 26.1195 46.6344 26.8006C46.6344 27.4816 45.9361 28.2144 45.2637 28.9213C44.6257 29.5938 43.9705 30.2835 43.7119 31.0939C43.436 31.9474 43.5567 32.9129 43.6774 33.8526C43.7981 34.801 43.9188 35.7751 43.5481 36.2838C43.1687 36.8097 42.1945 36.9907 41.2462 37.1631C40.3238 37.3356 39.3668 37.5166 38.6513 38.0339C37.9443 38.5425 37.4874 39.396 37.0391 40.215C36.5736 41.0685 36.0994 41.9392 35.4701 42.1462C34.8838 42.3358 34.0045 41.922 33.1596 41.5168C32.2975 41.1116 31.4009 40.6892 30.4871 40.6892ZM40.7807 42.4307C40.41 42.3358 40.0306 42.5513 39.9358 42.9221L38.703 47.5344L36.2632 43.31C37.1857 42.8358 37.7288 41.8444 38.2547 40.8789C38.6254 40.1978 39.0134 39.4822 39.4617 39.1546C39.9272 38.8184 40.7203 38.6632 41.4962 38.5253C41.7721 38.4736 42.048 38.4218 42.3152 38.3615L45.3844 43.6807L40.7807 42.4307Z" fill="#272727"/>
<path d="M36.9529 22.5676C36.6856 22.3003 36.2459 22.3003 35.9787 22.5676L28.9956 29.5507L25.004 25.5591C24.7367 25.2919 24.297 25.2919 24.0298 25.5591C23.7625 25.8264 23.7625 26.2661 24.0298 26.5333L28.5128 31.0163C28.6421 31.1456 28.8145 31.2146 29.0042 31.2146C29.1938 31.2146 29.3663 31.1456 29.4956 31.0163L36.9529 23.5418C37.2201 23.2745 37.2201 22.8349 36.9529 22.5676Z" fill="#272727"/>
</svg>
