<svg width="61" height="60" viewBox="0 0 61 60" fill="none" xmlns="http://www.w3.org/2000/svg">
<rect x="0.5" width="60" height="60" rx="17.1429" fill="white"/>
<path d="M48.2211 22.6156C47.5359 22.487 46.8274 22.6255 46.241 23.0027C45.6547 23.3799 45.2349 23.9673 45.0679 24.6442L43.4933 30.5106C43.0806 30.2376 42.5999 30.0851 42.1053 30.0702C41.6106 30.0554 41.1217 30.1788 40.6934 30.4266L36.1348 33.1006C35.2335 33.6311 34.4859 34.3873 33.9656 35.2946C33.4453 36.202 33.1703 37.2291 33.1676 38.2751V43.3336H31.8343C31.6575 43.3336 31.4879 43.4038 31.3629 43.5288C31.2379 43.6538 31.1677 43.8234 31.1677 44.0002V49.3334C31.1677 49.5102 31.2379 49.6797 31.3629 49.8047C31.4879 49.9298 31.6575 50 31.8343 50H43.8339C44.0107 50 44.1803 49.9298 44.3053 49.8047C44.4303 49.6797 44.5006 49.5102 44.5006 49.3334V44.0002C44.5006 43.8234 44.4303 43.6538 44.3053 43.5288C44.1803 43.4038 44.0107 43.3336 43.8339 43.3336H42.5006V42.5602C42.5006 42.2718 42.5629 41.9867 42.6834 41.7245C42.8039 41.4624 42.9796 41.2294 43.1986 41.0416L46.3072 38.375C46.8178 37.9385 47.1841 37.3574 47.3578 36.7084L50.2504 25.9141C50.3111 25.6878 50.3414 25.4544 50.3404 25.2201C50.3371 24.6094 50.1251 24.0182 49.7397 23.5444C49.3542 23.0707 48.8184 22.743 48.2211 22.6156ZM43.1673 48.6667H32.501V44.6668H43.1673V48.6667ZM48.9631 25.5681L46.0698 36.3638C45.966 36.7532 45.7463 37.1019 45.4399 37.3637L42.3313 40.0303C41.9663 40.3432 41.6734 40.7312 41.4724 41.1679C41.2715 41.6046 41.1675 42.0796 41.1673 42.5602V43.3336H34.5009V38.2751C34.5026 37.4617 34.716 36.6628 35.1202 35.957C35.5245 35.2513 36.1055 34.6629 36.8061 34.2499L41.3593 31.5786C41.5622 31.4621 41.792 31.4007 42.026 31.4006C42.2734 31.3984 42.5165 31.466 42.7272 31.5958C42.9379 31.7255 43.1078 31.912 43.2173 32.1339C43.3631 32.4562 43.3815 32.8217 43.2688 33.1569C43.1562 33.4922 42.9208 33.7724 42.61 33.9412L38.8767 36.0925C38.8008 36.1362 38.7343 36.1945 38.6809 36.264C38.6276 36.3335 38.5884 36.4128 38.5657 36.4974C38.543 36.5821 38.5371 36.6703 38.5485 36.7572C38.5599 36.8441 38.5883 36.9279 38.6321 37.0038C38.6759 37.0797 38.7342 37.1462 38.8036 37.1996C38.8731 37.2529 38.9524 37.2921 39.0371 37.3148C39.1217 37.3375 39.21 37.3434 39.2968 37.332C39.3837 37.3206 39.4675 37.2922 39.5434 37.2484L43.2766 35.0972C43.8358 34.7855 44.2673 34.2867 44.4952 33.6884C44.723 33.0901 44.7327 32.4307 44.5226 31.8259L46.3565 24.9928C46.4396 24.6479 46.6494 24.3467 46.9441 24.1492C47.2389 23.9516 47.5971 23.872 47.9478 23.9262C48.2452 23.9895 48.5121 24.1522 48.7047 24.3876C48.8972 24.6229 49.0039 24.9168 49.0071 25.2208C49.008 25.338 48.9932 25.4548 48.9631 25.5681ZM29.1677 43.3336H27.8344V38.2751C27.8322 37.2294 27.5577 36.2023 27.0381 35.2948C26.5184 34.3874 25.7714 33.631 24.8705 33.0999L20.3067 30.4226C19.878 30.1755 19.389 30.0527 18.8944 30.068C18.3999 30.0833 17.9193 30.2361 17.5068 30.5093L15.9328 24.6428C15.7649 23.9662 15.3448 23.3792 14.7584 23.0021C14.172 22.625 13.4636 22.4862 12.7783 22.6142C12.4239 22.6891 12.0884 22.8353 11.7923 23.0439C11.4962 23.2525 11.2456 23.5191 11.0558 23.8276C10.8659 24.1361 10.7409 24.48 10.6881 24.8383C10.6354 25.1967 10.6561 25.562 10.749 25.9121L13.6422 36.7078C13.8154 37.3568 14.1816 37.938 14.6922 38.3744L17.8008 41.041C18.0203 41.2286 18.1967 41.4615 18.3176 41.7238C18.4385 41.9861 18.5013 42.2714 18.5014 42.5602V43.3336H17.1681C16.9913 43.3336 16.8218 43.4038 16.6967 43.5288C16.5717 43.6538 16.5015 43.8234 16.5015 44.0002V49.3334C16.5015 49.5102 16.5717 49.6797 16.6967 49.8047C16.8218 49.9298 16.9913 50 17.1681 50H29.1677C29.3445 50 29.5141 49.9298 29.6391 49.8047C29.7641 49.6797 29.8344 49.5102 29.8344 49.3334V44.0002C29.8344 43.8234 29.7641 43.6538 29.6391 43.5288C29.5141 43.4038 29.3445 43.3336 29.1677 43.3336ZM18.6707 40.029L15.5622 37.3624C15.2555 37.1008 15.0358 36.752 14.9322 36.3624L12.039 25.5675C12.0089 25.4544 11.9941 25.3378 11.995 25.2208C11.9969 24.9156 12.1031 24.6201 12.296 24.3835C12.4889 24.147 12.757 23.9835 13.0556 23.9202C13.4062 23.8665 13.7642 23.9463 14.0589 24.1438C14.3535 24.3412 14.5633 24.6421 14.6469 24.9868L16.4808 31.8193C16.2705 32.4241 16.2801 33.0837 16.5079 33.6821C16.7358 34.2805 17.1674 34.7795 17.7268 35.0912L21.46 37.2424C21.6133 37.3308 21.7954 37.3547 21.9663 37.3088C22.1372 37.2629 22.2829 37.1511 22.3713 36.9978C22.4597 36.8445 22.4836 36.6623 22.4377 36.4914C22.3918 36.3205 22.2799 36.1749 22.1266 36.0865L18.3934 33.9352C18.0825 33.7665 17.847 33.4863 17.7342 33.1511C17.6214 32.8158 17.6397 32.4502 17.7854 32.1279C17.8958 31.9076 18.0658 31.7226 18.276 31.594C18.4862 31.4655 18.7283 31.3985 18.9747 31.4006C19.2071 31.4001 19.4355 31.4603 19.6374 31.5753L24.1959 34.2505C24.8966 34.6633 25.4777 35.2516 25.8819 35.9573C26.2861 36.663 26.4995 37.4618 26.5012 38.2751V43.3336H19.8347V42.5602C19.8348 42.0793 19.7308 41.6041 19.5299 41.1672C19.329 40.7302 19.0359 40.342 18.6707 40.029ZM28.5011 48.6667H17.8348V44.6668H28.5011V48.6667ZM41.1673 19.0677V10.668C41.1676 10.5508 41.1369 10.4357 41.0785 10.3342C41.0201 10.2327 40.936 10.1483 40.8346 10.0896C40.7332 10.031 40.6182 10.0001 40.501 10C40.3839 9.99994 40.2688 10.0307 40.1674 10.0893L39.2174 10.632C38.1699 11.232 36.9902 11.5637 35.7834 11.5973C34.5766 11.6309 33.3803 11.3655 32.301 10.8246L30.7937 10.0713C30.7011 10.0251 30.5991 10.001 30.4957 10.001C30.3923 10.001 30.2902 10.0251 30.1977 10.0713L28.7011 10.822C27.6216 11.3637 26.4249 11.6299 25.2176 11.5966C24.0102 11.5633 22.8299 11.2317 21.782 10.6313L20.8347 10.0893C20.7332 10.0307 20.6182 9.99994 20.501 10C20.3839 10.0001 20.2688 10.031 20.1675 10.0896C20.0661 10.1483 19.9819 10.2327 19.9235 10.3342C19.8651 10.4357 19.8345 10.5508 19.8347 10.668V19.0677C19.8315 22.089 20.651 25.0541 22.2054 27.6449C23.7599 30.2356 25.9904 32.3542 28.6578 33.7732L30.187 34.5885C30.2837 34.6401 30.3915 34.6671 30.501 34.6671C30.6106 34.6671 30.7184 34.6401 30.815 34.5885L32.3443 33.7732C35.0117 32.3543 37.2424 30.2358 38.7968 27.645C40.3512 25.0542 41.1707 22.089 41.1673 19.0677ZM30.501 33.2452L29.2857 32.5966C26.8317 31.2912 24.7795 29.3422 23.3493 26.9587C21.9191 24.5752 21.1651 21.8473 21.168 19.0677V11.8166C22.4026 12.5136 23.7896 12.8964 25.2069 12.9313C26.6242 12.9662 28.0284 12.6521 29.2957 12.0166L30.4957 11.4166L31.705 12.0206C32.9728 12.6557 34.3774 12.9693 35.795 12.9338C37.2126 12.8982 38.5997 12.5145 39.834 11.8166V19.0677C39.8371 21.8473 39.0831 24.5753 37.6529 26.9588C36.2228 29.3423 34.1705 31.2913 31.7163 32.5966L30.501 33.2452Z" fill="#272727"/>
<path d="M38.5009 14.6905C38.501 14.591 38.4788 14.4927 38.4359 14.4029C38.393 14.3131 38.3306 14.234 38.2531 14.1715C38.1757 14.109 38.0853 14.0646 37.9885 14.0416C37.8917 14.0186 37.7909 14.0175 37.6936 14.0385C35.4691 14.5127 33.1495 14.2207 31.1119 13.2099L30.7972 13.0532C30.7042 13.0063 30.6014 12.9819 30.4972 12.9819C30.393 12.9819 30.2903 13.0063 30.1972 13.0532L29.8892 13.2072C27.8513 14.2194 25.5309 14.5122 23.3054 14.0378C23.2084 14.0174 23.108 14.0189 23.0116 14.0422C22.9152 14.0655 22.8252 14.1099 22.7482 14.1724C22.6712 14.2349 22.6091 14.3137 22.5664 14.4032C22.5237 14.4928 22.5015 14.5907 22.5015 14.6898V19.0677C22.4986 21.6056 23.1871 24.0963 24.4929 26.2726C25.7987 28.4488 27.6725 30.2282 29.9132 31.4199L30.1872 31.5666C30.2838 31.6181 30.3915 31.645 30.5009 31.645C30.6103 31.645 30.718 31.6181 30.8145 31.5666L31.0892 31.4199C33.3299 30.2282 35.2038 28.4488 36.5096 26.2726C37.8153 24.0963 38.5038 21.6056 38.5009 19.0677V14.6905ZM37.1677 19.0677C37.1702 21.3563 36.5514 23.6027 35.3773 25.5672C34.2033 27.5318 32.518 29.1408 30.5012 30.2227C28.4844 29.1408 26.7991 27.5318 25.6251 25.5672C24.451 23.6027 23.8323 21.3563 23.8348 19.0677V15.4858C26.1115 15.8018 28.4306 15.4238 30.4892 14.4012L30.5012 14.3945L30.5172 14.4032C32.5745 15.4253 34.8923 15.8029 37.1677 15.4865V19.0677Z" fill="#272727"/>
<path d="M34.2721 17.9537L29.1676 23.0582L27.0863 20.977C26.9606 20.8555 26.7922 20.7883 26.6174 20.7899C26.4426 20.7914 26.2754 20.8615 26.1518 20.9851C26.0282 21.1087 25.9581 21.2759 25.9566 21.4507C25.955 21.6255 26.0222 21.7939 26.1437 21.9196L28.6963 24.4722C28.8213 24.5972 28.9908 24.6674 29.1676 24.6674C29.3443 24.6674 29.5139 24.5972 29.6389 24.4722L35.2147 18.8964C35.2784 18.8349 35.3292 18.7613 35.3641 18.68C35.399 18.5986 35.4174 18.5112 35.4182 18.4227C35.419 18.3341 35.4021 18.2464 35.3686 18.1644C35.3351 18.0825 35.2856 18.0081 35.223 17.9455C35.1604 17.8829 35.086 17.8334 35.004 17.7999C34.9221 17.7663 34.8343 17.7495 34.7458 17.7502C34.6573 17.751 34.5698 17.7694 34.4885 17.8043C34.4071 17.8393 34.3336 17.8901 34.2721 17.9537Z" fill="#272727"/>
</svg>
