<svg width="56" height="56" viewBox="0 0 56 56" fill="none" xmlns="http://www.w3.org/2000/svg">
<rect x="0.496826" y="0.486816" width="55.4868" height="55.4868" rx="27.7434" fill="#FFB300"/>
<rect x="0.496826" y="0.486816" width="55.4868" height="55.4868" rx="27.7434" fill="url(#paint0_linear_53_4447)"/>
<g clip-path="url(#clip0_53_4447)">
<path d="M42.0643 24.8139L20.1636 14.5122C19.1451 14.0152 17.989 14.1774 17.1466 14.9369C16.3031 15.6976 16.0208 16.8316 16.4455 17.9714L21.9148 28.2322L16.512 38.5666C16.1235 39.6329 16.407 40.7669 17.2528 41.5252C17.772 41.9919 18.4113 42.2311 19.0611 42.2311C19.4683 42.2311 19.8778 42.1377 20.2675 41.9464L42.0678 31.6541C43.4083 31.0252 44.2413 29.7127 44.2401 28.2299C44.2401 26.7482 43.4036 25.4392 42.0643 24.8139ZM17.5083 17.4966C17.2411 16.7686 17.5491 16.1456 17.9271 15.8049C18.1768 15.5809 18.5443 15.3977 18.9678 15.3977C19.186 15.3977 19.4181 15.4467 19.6561 15.5634C19.6585 15.5634 19.662 15.5657 19.6643 15.5669L41.5685 25.8709C42.3268 26.2256 42.839 26.8672 43.0105 27.6466H22.924L17.5083 17.4966ZM41.5696 30.5994L19.7611 40.8964C19.0646 41.2359 18.4125 40.9967 18.0333 40.6572C17.6541 40.3177 17.3438 39.6947 17.5783 39.0356L22.9275 28.8121H43.0128C42.8448 29.5949 42.3315 30.2412 41.5696 30.5982V30.5994Z" fill="#191919"/>
</g>
<defs>
<linearGradient id="paint0_linear_53_4447" x1="8.52293" y1="2.31581" x2="55.6572" y2="24.7072" gradientUnits="userSpaceOnUse">
<stop stop-color="#FFCC54"/>
<stop offset="1" stop-color="#FFB300"/>
</linearGradient>
<clipPath id="clip0_53_4447">
<rect width="28" height="28" fill="white" transform="translate(16.2402 14.23)"/>
</clipPath>
</defs>
</svg>
