<svg width="25" height="21" viewBox="0 0 25 21" fill="none" xmlns="http://www.w3.org/2000/svg">
<path d="M24.3826 1.32288C24.0896 0.963238 23.65 0.765137 23.1445 0.765137C22.8717 0.765137 22.5828 0.822233 22.2857 0.934784L1.96672 8.63335C0.886357 9.04277 0.740945 9.65906 0.750414 9.98996C0.759836 10.3192 0.938484 10.9218 2.02593 11.2696L6.33507 12.8487L8.60611 18.0472C8.8344 18.7662 9.31142 19.2706 9.92025 19.4342C10.0598 19.4717 10.2037 19.4906 10.3482 19.4905C10.8427 19.4905 11.349 19.2728 11.7862 18.8621L13.6677 17.0944L18.2586 20.2543C18.672 20.5598 19.1219 20.7212 19.5606 20.7211C20.451 20.7211 21.1611 20.0693 21.3698 19.0606L24.6929 2.98831C24.8294 2.32777 24.7192 1.73633 24.3826 1.32288ZM7.76317 12.6047L13.627 9.46021L9.54032 13.2089C9.46876 13.2747 9.41165 13.3547 9.37261 13.4438C9.33357 13.5329 9.31345 13.6291 9.31353 13.7263C9.31325 13.7335 9.31236 13.7406 9.31231 13.7478L9.2982 16.1184L7.76317 12.6047ZM10.8233 17.8371C10.7824 17.8757 10.7391 17.9117 10.6936 17.9449L10.7108 15.0591L12.4823 16.2784L10.8233 17.8371ZM23.3157 2.70354L19.9926 18.7758C19.9591 18.9378 19.8499 19.3148 19.5605 19.3148C19.4254 19.3148 19.2577 19.2453 19.0885 19.1189C19.0813 19.1135 19.0739 19.1082 19.0664 19.1031L14.0052 15.6194L14.0031 15.618L11.1416 13.6484L18.7007 6.71459C18.8269 6.59879 18.9065 6.4409 18.9246 6.27055C18.9427 6.1002 18.8979 5.92912 18.7988 5.78943C18.6996 5.64974 18.5529 5.55105 18.3861 5.51189C18.2193 5.47273 18.044 5.4958 17.893 5.57675L6.80464 11.5231L2.4954 9.94393C2.49225 9.94276 2.4891 9.94162 2.48593 9.94051L22.784 2.24986C22.955 2.18503 23.0744 2.17144 23.1445 2.17144C23.1792 2.17144 23.2631 2.17528 23.2921 2.21091C23.3293 2.25652 23.376 2.41164 23.3157 2.70354Z" fill="#FFB300"/>
</svg>
