<svg width="25" height="24" viewBox="0 0 25 24" fill="none" xmlns="http://www.w3.org/2000/svg">
<path d="M4.32032 7.66125L3.41226 6.71095C3.35413 6.65014 3.32169 6.56924 3.3217 6.48511V5.99447C3.3217 5.81391 3.46804 5.66756 3.6486 5.66756C3.82916 5.66756 3.97551 5.81391 3.97551 5.99447V6.35405L4.32032 6.71489V3.65775C4.32032 3.47719 4.46666 3.33084 4.64723 3.33084C4.82779 3.33084 4.97413 3.47719 4.97413 3.65775V5.92983L5.31895 5.56898V5.10595C5.31895 4.92539 5.46529 4.77905 5.64585 4.77905C5.82641 4.77905 5.97276 4.92539 5.97276 5.10595V5.70009C5.97276 5.78422 5.94032 5.86511 5.8822 5.92594L4.97413 6.87619V8.34445C4.97413 8.52502 4.82779 8.67136 4.64723 8.67136C4.46666 8.67136 4.32032 8.52502 4.32032 8.34445V7.66125ZM4.20027 1.08834H3.73082C3.64412 1.08834 3.56097 1.12279 3.49966 1.18409C3.43836 1.2454 3.40391 1.32855 3.40391 1.41525C3.40391 1.50195 3.43836 1.5851 3.49966 1.64641C3.56097 1.70771 3.64412 1.74216 3.73082 1.74216H4.20027C4.28697 1.74216 4.37012 1.70771 4.43143 1.64641C4.49274 1.5851 4.52718 1.50195 4.52718 1.41525C4.52718 1.32855 4.49274 1.2454 4.43143 1.18409C4.37012 1.12279 4.28697 1.08834 4.20027 1.08834ZM5.5649 1.08834H5.09545C5.00874 1.08834 4.92559 1.12279 4.86429 1.18409C4.80298 1.2454 4.76854 1.32855 4.76854 1.41525C4.76854 1.50195 4.80298 1.5851 4.86429 1.64641C4.92559 1.70771 5.00874 1.74216 5.09545 1.74216H5.56495C5.65165 1.74215 5.73479 1.7077 5.7961 1.64639C5.8574 1.58508 5.89183 1.50193 5.89183 1.41523C5.89182 1.32853 5.85737 1.24538 5.79606 1.18408C5.73475 1.12277 5.6516 1.08834 5.5649 1.08834ZM22.6479 11.9688V14.0947C22.6479 14.1814 22.6134 14.2645 22.5521 14.3258C22.4908 14.3871 22.4077 14.4216 22.321 14.4216H21.3701C21.3626 14.6721 21.157 14.8738 20.9046 14.8738H17.0057C16.7487 14.8738 16.5396 14.6647 16.5396 14.4076V13.9401H16.0177C15.931 13.9401 15.8478 13.9057 15.7865 13.8444C15.7252 13.7831 15.6908 13.6999 15.6908 13.6132V13.358H12.5814C14.3639 14.3041 15.5807 16.1797 15.5807 18.3344C15.5807 21.4389 13.055 23.9646 9.95048 23.9646V23.9765C6.84595 23.9765 4.32027 21.4508 4.32027 18.3463V13.8447H3.99473C3.90803 13.8447 3.82488 13.8102 3.76357 13.7489C3.70226 13.6876 3.66782 13.6045 3.66782 13.5178C3.66782 13.4311 3.70226 13.3479 3.76357 13.2866C3.82488 13.2253 3.90803 13.1909 3.99473 13.1909H4.32027V12.9455H3.99473C3.90803 12.9455 3.82488 12.911 3.76357 12.8497C3.70226 12.7884 3.66782 12.7053 3.66782 12.6186C3.66782 12.5319 3.70226 12.4487 3.76357 12.3874C3.82488 12.3261 3.90803 12.2917 3.99473 12.2917H4.32027V12.0476H3.99473C3.90803 12.0476 3.82488 12.0132 3.76357 11.9519C3.70226 11.8906 3.66782 11.8074 3.66782 11.7207C3.66782 11.634 3.70226 11.5509 3.76357 11.4896C3.82488 11.4283 3.90803 11.3938 3.99473 11.3938H4.32027V11.1909H3.6778C3.5911 11.1909 3.50795 11.1564 3.44665 11.0951C3.38534 11.0338 3.3509 10.9507 3.3509 10.864V9.77452H2.35293C2.04468 9.77452 1.79395 9.52378 1.79395 9.21558V2.7135C1.79395 2.40455 2.04468 2.15325 2.35293 2.15325H2.54854V0.350344C2.54854 0.307414 2.55699 0.264904 2.57342 0.225242C2.58985 0.18558 2.61393 0.149542 2.64429 0.119186C2.67464 0.0888301 2.71068 0.0647503 2.75034 0.0483218C2.79001 0.0318932 2.83252 0.0234375 2.87545 0.0234375H6.42027C6.50698 0.0234375 6.59012 0.0578793 6.65143 0.119186C6.71274 0.180493 6.74718 0.263643 6.74718 0.350344V2.15325H6.94148C7.25043 2.15325 7.50177 2.40459 7.50177 2.7135V9.21572C7.50177 9.52392 7.25043 9.77466 6.94148 9.77466H5.94355V10.8641C5.94355 10.9508 5.90911 11.034 5.84781 11.0953C5.7865 11.1566 5.70335 11.191 5.61665 11.191H4.97409V11.394H5.29968C5.38638 11.394 5.46953 11.4284 5.53084 11.4897C5.59214 11.551 5.62659 11.6342 5.62659 11.7209C5.62659 11.8076 5.59214 11.8907 5.53084 11.952C5.46953 12.0133 5.38638 12.0478 5.29968 12.0478H4.97409V12.2918H5.29968C5.38638 12.2918 5.46953 12.3262 5.53084 12.3875C5.59214 12.4489 5.62659 12.532 5.62659 12.6187C5.62659 12.7054 5.59214 12.7886 5.53084 12.8499C5.46953 12.9112 5.38638 12.9456 5.29968 12.9456H4.97409V13.191H5.29968C5.38638 13.191 5.46953 13.2254 5.53084 13.2867C5.59214 13.3481 5.62659 13.4312 5.62659 13.5179C5.62659 13.6046 5.59214 13.6878 5.53084 13.7491C5.46953 13.8104 5.38638 13.8448 5.29968 13.8448H4.97409V18.3345C4.97409 21.0786 7.20651 23.311 9.95052 23.311C12.6945 23.311 14.927 21.0786 14.927 18.3345C14.927 15.5905 12.6945 13.3581 9.95052 13.3581C8.28791 13.3581 6.73916 14.1912 5.80762 15.5865C5.75894 15.6574 5.68432 15.7062 5.59991 15.7225C5.5155 15.7387 5.42808 15.7211 5.35659 15.6733C5.2851 15.6256 5.23528 15.5516 5.21791 15.4675C5.20055 15.3833 5.21704 15.2956 5.26382 15.2235C6.30651 13.6617 8.03446 12.7236 9.89479 12.7051V12.7042H15.6908V12.4503C15.6908 12.3636 15.7252 12.2804 15.7865 12.2191C15.8478 12.1578 15.931 12.1234 16.0177 12.1234H16.5396V11.6559C16.5396 11.3989 16.7487 11.1897 17.0057 11.1897H20.9046C21.157 11.1897 21.3626 11.3914 21.3701 11.6419H22.321C22.4077 11.6419 22.4908 11.6764 22.5521 11.7377C22.6134 11.799 22.6479 11.8821 22.6479 11.9688ZM3.20235 2.15325H6.09341V0.67725H3.20235V2.15325ZM2.44776 9.12089H6.84796V2.80706H2.44776V9.12089ZM4.00471 10.5373H5.28974V9.7747H4.00471V10.5373ZM16.5396 13.2863V12.7771H16.3446V13.2863H16.5396ZM20.717 11.8435H17.1934V14.22H20.717V11.8435ZM21.9941 12.2957H21.3708V13.7678H21.9941V12.2957Z" fill="black"/>
</svg>
