<svg width="24" height="24" viewBox="0 0 24 24" fill="none" xmlns="http://www.w3.org/2000/svg">
<path fill-rule="evenodd" clip-rule="evenodd" d="M16.3855 8.82451H7.62754C6.9648 8.82451 6.42754 9.36177 6.42754 10.0245V21.3001C6.42754 21.9629 6.9648 22.5001 7.62754 22.5001H16.3855C17.0483 22.5001 17.5855 21.9629 17.5855 21.3001V10.0245C17.5855 9.36177 17.0483 8.82451 16.3855 8.82451ZM7.62754 7.62451C6.30206 7.62451 5.22754 8.69903 5.22754 10.0245V21.3001C5.22754 22.6256 6.30206 23.7001 7.62754 23.7001H16.3855C17.711 23.7001 18.7855 22.6256 18.7855 21.3001V10.0245C18.7855 8.69903 17.711 7.62451 16.3855 7.62451H7.62754Z" fill="black"/>
<path fill-rule="evenodd" clip-rule="evenodd" d="M8.69355 1.3355C8.36218 1.3355 8.09355 1.60413 8.09355 1.9355V8.28911H6.89355V1.9355C6.89355 0.941386 7.69944 0.135498 8.69355 0.135498H15.3189C16.313 0.135498 17.1189 0.941385 17.1189 1.9355V8.3666H15.9189V1.9355C15.9189 1.60413 15.6503 1.3355 15.3189 1.3355H8.69355Z" fill="black"/>
<path d="M9.75684 2.69971H11.2568V4.19971H9.75684V2.69971Z" fill="black"/>
<path d="M12.7559 2.69971H14.2559V4.19971H12.7559V2.69971Z" fill="black"/>
</svg>
