<svg width="47" height="40" viewBox="0 0 47 40" fill="none" xmlns="http://www.w3.org/2000/svg">
<path fill-rule="evenodd" clip-rule="evenodd" d="M27.2638 15.2708C27.8144 15.3865 28.4379 15.3628 28.8975 15.0015C30.6524 13.7496 32.3628 12.4322 34.0078 11.0389C34.1404 10.9223 34.274 10.8056 34.4077 10.689C35.4841 9.74719 36.5644 8.80256 37.5129 7.72989C37.8123 7.39604 38.0587 7.02141 38.2738 6.62781C39.0082 5.38348 39.6127 4.07085 40.2163 2.75918C40.2751 2.63209 40.3338 2.50405 40.3926 2.37696C40.5584 1.98147 40.7138 1.58218 40.8692 1.18289C41.018 0.800678 41.1677 0.418461 41.325 0.0400391C40.3803 0.99226 39.3673 1.86955 38.3534 2.7459C37.5811 3.41454 36.8088 4.08318 36.0659 4.78502C36.1777 4.43789 36.3113 4.09931 36.445 3.76072C36.5871 3.39937 36.7292 3.03896 36.8458 2.66813C36.8638 2.60743 36.8875 2.54863 36.9102 2.48888C36.9595 2.36274 37.0088 2.23754 37.0097 2.10097C36.6932 2.48983 36.354 2.85876 36.0157 3.22865C35.8688 3.38893 35.7229 3.54827 35.5779 3.7095C33.6581 5.77707 31.7516 7.85697 29.8735 9.96248C29.9104 9.8003 29.9483 9.63907 29.9872 9.47689C30.0772 9.09467 30.1672 8.7134 30.2411 8.32834C30.1634 8.36059 30.0933 8.40422 30.044 8.4725C29.4689 9.1108 28.8254 9.67985 28.182 10.2489C28.0304 10.3826 27.8798 10.5164 27.7291 10.651C26.7578 11.4999 25.7903 12.3554 24.874 13.263C25.2455 14.2958 26.213 15.0318 27.2638 15.2708Z" fill="#FFB300"/>
<path fill-rule="evenodd" clip-rule="evenodd" d="M42.3395 10.3038C43.5998 9.27668 44.9283 8.3292 46.3544 7.54675C45.1529 7.49648 43.9476 7.65582 42.7792 7.92896C43.2776 7.31154 43.9523 6.90466 44.6232 6.49874C44.9198 6.31949 45.2164 6.14023 45.4968 5.94391C44.5341 5.96762 43.5714 6.0378 42.6162 6.16015C43.0407 5.65748 43.4112 5.11214 43.7666 4.5592C43.3221 4.71475 42.9166 4.96513 42.5281 5.2269C42.2694 5.39003 42.1178 5.65274 41.9681 5.91261C41.9216 5.99323 41.8752 6.07289 41.8269 6.14972C41.5454 6.64385 41.2384 7.12185 40.9314 7.60081C40.8793 7.68143 40.8272 7.76299 40.775 7.84455C41.3303 7.64349 41.8894 7.45096 42.4475 7.25938C42.566 7.21859 42.6854 7.17781 42.8048 7.13703C42.6579 7.27076 42.5072 7.40164 42.3566 7.53252C41.9955 7.8455 41.6336 8.15943 41.3209 8.52268C40.6793 9.19227 40.233 10.0127 39.7933 10.8217C39.7678 10.87 39.7412 10.9175 39.7147 10.9658C39.2845 11.9323 38.8192 12.893 38.1607 13.7276C37.2728 14.9037 36.1508 15.8882 34.9209 16.6934C34.7247 16.8271 34.5276 16.9599 34.3305 17.0927C33.2247 17.8372 32.1132 18.5855 31.1789 19.5434C31.1135 19.6117 31.0453 19.679 30.977 19.7473C30.7183 20.0034 30.4559 20.2642 30.2948 20.5867C30.3043 20.655 30.3137 20.7242 30.3242 20.7925C30.3592 21.0343 30.3943 21.2771 30.4 21.5218C30.9922 20.8342 31.7218 20.2765 32.4695 19.7672C33.7705 18.9241 35.208 18.1796 36.781 18.0705C36.6872 18.154 36.5763 18.2137 36.4635 18.2659L36.4607 18.2735C36.3489 18.3332 36.2371 18.393 36.1253 18.4527C35.2165 18.9364 34.3021 19.423 33.5033 20.0793C32.3918 20.9746 31.3959 22.0103 30.5099 23.1285C29.8778 23.9526 29.2941 24.8337 28.9132 25.803C29.2676 25.2264 29.7073 24.7114 30.1451 24.1973C30.2569 24.0655 30.3687 23.9346 30.4796 23.8028C31.3779 22.7292 32.4069 21.7589 33.5601 20.9622C33.3801 21.1918 33.1716 21.3938 32.9632 21.5958C32.7879 21.7656 32.6126 21.9363 32.4543 22.1222C31.5816 23.0962 30.7714 24.1262 30.037 25.2084C28.2897 27.7226 26.5973 30.3099 25.4365 33.1571C25.7862 32.4411 26.1643 31.7392 26.5651 31.0507C27.1147 30.0814 27.7628 29.1747 28.411 28.2699C28.5455 28.0821 28.6801 27.8943 28.8128 27.7056C29.8542 26.2734 31.0377 24.9599 32.2212 23.6463C32.8533 22.9454 33.4853 22.2436 34.0955 21.5237C34.1458 21.4763 34.2007 21.4327 34.2585 21.3938C34.4243 21.463 34.5949 21.5218 34.7645 21.5797C34.9436 21.6413 35.1218 21.703 35.2961 21.7769C36.4787 22.2644 37.5845 22.9359 38.5804 23.7373C38.1673 22.9264 37.8821 22.0416 37.7921 21.133C37.8536 21.1652 37.9152 21.1965 37.9778 21.2288C38.1559 21.3198 38.335 21.4109 38.5075 21.5152C39.8331 22.2531 40.8452 23.4196 41.7928 24.5805C41.8904 24.7114 41.9898 24.8413 42.0884 24.9712C42.7223 25.8078 43.3601 26.6481 43.8263 27.5908C43.4719 25.9899 43.0625 24.3993 42.5423 22.843C42.494 22.7055 42.4466 22.5689 42.3992 22.4314C42.0524 21.4317 41.7046 20.4321 41.2687 19.4685C40.74 18.2725 40.1942 17.0652 39.4029 16.0162C39.7204 16.0437 40.0293 16.1262 40.3297 16.2334C41.6582 16.6934 42.9043 17.3876 43.9949 18.2754C43.4245 16.8243 42.7318 15.4026 41.7842 14.1592C41.9112 14.1715 42.042 14.1848 42.1604 14.237C42.7744 14.4816 43.3629 14.7965 43.8945 15.1892C43.9381 15.2233 43.9836 15.2546 44.03 15.2869C44.1494 15.3694 44.2707 15.4519 44.3436 15.5799C44.3588 15.4946 44.3181 15.4206 44.2773 15.3457C44.2517 15.3001 44.2271 15.2537 44.2148 15.2043C43.903 14.3565 43.3676 13.6186 42.837 12.8959C43.4065 12.764 43.9826 12.655 44.5701 12.6502C43.9191 11.7862 43.1535 11.017 42.3423 10.3057L42.3395 10.3038Z" fill="#FFB300"/>
<path fill-rule="evenodd" clip-rule="evenodd" d="M9.94807 8.86417C11.8252 10.6662 13.8009 12.3705 15.9103 13.8975C16.4731 14.3262 17.0483 14.7387 17.6529 15.1067C17.9324 15.2812 18.2707 15.3391 18.5967 15.3334C19.8086 15.3059 20.9258 14.4438 21.302 13.2981C21.2793 13.1975 21.1978 13.1321 21.1172 13.0686C21.0793 13.0382 21.0424 13.0088 21.0111 12.9756C20.4549 12.4502 19.8825 11.9418 19.3092 11.4335C18.1958 10.4452 17.0824 9.45694 16.0903 8.34349C16.1604 8.88504 16.2343 9.43038 16.3926 9.95486C16.3386 9.92641 16.2893 9.89227 16.2457 9.85243C15.2356 8.77123 14.215 7.6995 13.1935 6.62778C12.6989 6.10899 12.2052 5.59115 11.7125 5.07141C10.8966 4.2074 10.1082 3.31777 9.32077 2.42815C9.22885 2.32477 9.13788 2.22139 9.04692 2.11896C9.17579 2.61783 9.35298 3.10153 9.53018 3.58428C9.65716 3.93046 9.78413 4.27663 9.89405 4.6285C9.40889 4.20266 8.91804 3.78345 8.42814 3.36425C7.29578 2.3959 6.16342 1.42756 5.09739 0.385236C5.07749 0.366267 5.05854 0.34635 5.03864 0.326433C4.95525 0.240126 4.86997 0.152871 4.75342 0.113037C5.60719 2.41202 6.72629 4.60763 8.00742 6.69702C8.55796 7.49939 9.25633 8.187 9.94996 8.86702L9.94807 8.86417Z" fill="#FFB300"/>
<path fill-rule="evenodd" clip-rule="evenodd" d="M10.4535 10.7496C10.3587 11.313 10.3066 11.8925 10.4222 12.4578C10.6724 14.0729 12.2226 15.4045 13.8704 15.3011C14.4835 15.304 15.0445 15.0299 15.5752 14.7548C15.4757 14.6296 15.3411 14.5443 15.2084 14.458C15.1506 14.421 15.0919 14.3831 15.0369 14.3423C14.5461 14.4295 14.0344 14.4817 13.5445 14.3612C12.8433 14.2199 12.2169 13.7467 11.8881 13.1131C11.6228 12.6522 11.637 12.1021 11.6939 11.5918C11.2788 11.3139 10.8657 11.0323 10.4544 10.7496H10.4535Z" fill="#FFB300"/>
<path fill-rule="evenodd" clip-rule="evenodd" d="M33.1458 14.2057C32.5204 14.4997 31.7936 14.5025 31.1313 14.3489C30.9948 14.4172 30.8735 14.5082 30.7532 14.6002C30.7134 14.6296 30.6745 14.66 30.6338 14.6884C31.3805 15.1598 32.2845 15.4434 33.1667 15.2395C34.2934 15.0005 35.24 14.127 35.6323 13.0533C35.9128 12.3212 35.9677 11.5103 35.8 10.7449C35.5622 10.872 35.3338 11.0152 35.1045 11.1584C34.9159 11.276 34.7283 11.3936 34.535 11.5027C34.5748 11.8754 34.5881 12.2567 34.4952 12.6228C34.3047 13.3132 33.8035 13.9155 33.1468 14.2057H33.1458Z" fill="#FFB300"/>
<path fill-rule="evenodd" clip-rule="evenodd" d="M28.1447 26.1928C28.9464 24.6592 29.749 23.1265 30.3981 21.5199C30.3924 21.2752 30.3573 21.0324 30.3223 20.7906C30.3128 20.7223 30.3024 20.653 30.2929 20.5848C29.0876 19.0151 27.4805 17.7831 25.7568 16.8328L25.6962 16.8024C24.9116 16.406 24.0976 15.9953 23.2069 15.9403L23.2211 16.0067L23.2078 15.9451C22.1228 16.1916 21.072 16.5881 20.095 17.122C18.957 17.711 17.9914 18.5731 17.0827 19.4637C17.0021 19.551 16.9187 19.6373 16.8363 19.7226C16.5406 20.0299 16.2431 20.3382 16.0308 20.709C16.0081 20.93 16.0034 21.1548 16.0564 21.3738C16.3549 22.0918 16.6667 22.805 17.023 23.4974C17.745 24.9229 18.4311 26.3645 19.1076 27.8118C19.842 29.3112 20.5565 30.8221 21.1592 32.3803C21.3932 32.9029 21.5562 33.4521 21.6955 34.0059C21.8158 34.4242 21.9286 34.8444 22.0414 35.2645C22.3389 36.3723 22.6364 37.48 23.0638 38.5461C23.1036 38.6466 23.1595 38.7414 23.2192 38.8344C23.2239 38.8078 23.2296 38.7813 23.2353 38.7557C23.2296 38.7822 23.2249 38.8088 23.2192 38.8344C23.2296 38.859 23.2457 38.897 23.2618 38.9349L23.2656 38.9435C23.2808 38.9804 23.2969 39.0155 23.3064 39.0402C23.367 38.9624 23.4021 38.8685 23.4362 38.7746C23.4551 38.7225 23.4741 38.6703 23.4978 38.6219C23.9943 37.3179 24.3553 35.9701 24.7154 34.6224C24.8263 34.2089 24.9372 33.7963 25.0518 33.3838C25.4877 31.9488 26.0013 30.5338 26.6362 29.1737C27.1119 28.1674 27.6283 27.1801 28.1447 26.1928Z" fill="#FFB300"/>
<path fill-rule="evenodd" clip-rule="evenodd" d="M20.5432 31.5808C19.354 29.314 18.0359 27.1137 16.5671 25.0177C15.6186 23.6975 14.5355 22.4598 13.2619 21.444C13.9366 21.8215 14.5279 22.326 15.1145 22.8278C15.1704 22.8752 15.2263 22.9235 15.2822 22.971C16.1947 23.8151 17.0864 24.7123 17.7355 25.7821C17.6701 25.5071 17.5355 25.2576 17.4019 25.0101C17.3508 24.9152 17.2996 24.8204 17.2522 24.7246C17.0077 24.22 16.66 23.7771 16.3141 23.339C15.2699 22.0813 14.0238 21.0039 12.6906 20.0631C12.0926 19.6202 11.4483 19.2503 10.8039 18.8804C10.5917 18.759 10.3803 18.6367 10.17 18.5134C10.0819 18.4489 9.99089 18.3891 9.90087 18.3294C9.87149 18.3095 9.84212 18.2905 9.81274 18.2706C12.1078 18.74 14.3801 19.6942 16.0564 21.3748C16.0033 21.1557 16.008 20.9309 16.0308 20.7099C16.0137 20.6255 15.9569 20.561 15.9019 20.4984C15.8962 20.4918 15.8905 20.4851 15.8839 20.4776C15.8763 20.469 15.8697 20.4605 15.8621 20.4519C14.9486 19.4675 13.8978 18.6224 12.7967 17.858C12.5039 17.6408 12.2073 17.4274 11.9097 17.214C11.0238 16.5776 10.1359 15.9403 9.34748 15.1834C8.44349 14.3602 7.70248 13.3663 7.13487 12.2831C7.01169 12.0574 6.89798 11.826 6.78332 11.5936C6.48673 10.9895 6.18919 10.3853 5.72582 9.89027C4.89763 8.99021 3.95384 8.19353 2.92855 7.52963C3.50942 7.63016 4.07608 7.79804 4.64178 7.96496C4.85878 8.0285 5.07578 8.093 5.29372 8.1537C5.04735 7.73544 4.82277 7.3039 4.59914 6.87237C4.31487 6.32323 4.02964 5.77504 3.69799 5.25246C3.60608 5.11304 3.48194 4.99449 3.33033 4.9224C2.80158 4.65495 2.20176 4.56295 1.61426 4.55347C2.03214 4.99069 2.39696 5.47439 2.76083 5.95619C2.812 6.02448 2.86317 6.09182 2.91434 6.1601C1.99424 5.99982 1.06087 5.94196 0.129395 5.89739C1.20206 6.3735 2.17712 7.09335 2.8916 8.03135C2.0075 7.87486 1.10161 7.7914 0.211834 7.95263C0.367238 8.04273 0.528327 8.12145 0.690363 8.20017C0.909255 8.30734 1.12815 8.41356 1.33188 8.54729C1.45411 8.62412 1.57635 8.70094 1.69954 8.77776C2.45571 9.25008 3.21757 9.72524 3.86666 10.3398C3.15503 11.0663 2.46329 11.8213 1.92885 12.691C2.12311 12.7251 2.31926 12.7507 2.51541 12.7763C2.79589 12.8133 3.07733 12.8494 3.35402 12.912C3.27821 13.0846 3.17019 13.2382 3.06311 13.3919C3.00531 13.4744 2.94751 13.5569 2.89444 13.6422C2.47656 14.2635 2.11932 14.9245 1.82367 15.6121C2.76083 14.9625 3.78707 14.3611 4.93554 14.2037C4.85878 14.3033 4.77824 14.3991 4.69769 14.4949C4.6342 14.5698 4.57072 14.6457 4.50912 14.7225C3.61271 15.8217 3.00152 17.1173 2.49077 18.4318C3.75674 17.3278 5.31646 16.5141 6.98231 16.2457C6.29626 17.232 5.80163 18.3341 5.30983 19.4276V19.4286C5.26529 19.5282 5.21981 19.6278 5.17527 19.7273C4.39636 21.5882 3.80886 23.5173 3.22231 25.4454C2.98257 26.2317 2.74378 27.0189 2.49172 27.8004C3.25642 26.446 4.27412 25.2586 5.2814 24.0816L5.31552 24.0417C6.28584 22.9814 7.32534 21.9476 8.57994 21.2306C8.48328 21.4876 8.35441 21.7295 8.22554 21.9723C8.13268 22.1477 8.03887 22.3241 7.95738 22.5053C7.64088 23.1417 7.39072 23.8065 7.14056 24.4704C7.06001 24.6838 6.98042 24.8972 6.89798 25.1087C7.51865 24.3073 8.28334 23.6339 9.06984 23.0013C10.0203 22.2634 11.0427 21.5815 12.1874 21.1851C12.2897 21.2951 12.393 21.4061 12.4953 21.5161C13.6874 22.7965 14.8795 24.0778 15.991 25.4302C17.8312 27.659 19.6534 29.941 20.9696 32.5283C20.9573 32.4989 20.944 32.4695 20.9317 32.4401C20.8075 32.1498 20.6834 31.8596 20.5384 31.5798L20.5432 31.5808Z" fill="#FFB300"/>
<path fill-rule="evenodd" clip-rule="evenodd" d="M20.0552 16.0722C20.6332 15.9584 21.2226 15.7659 21.6822 15.3856C22.1219 15.0138 22.1171 14.3954 22.1133 13.8567C22.1133 13.8064 22.1133 13.7571 22.1133 13.7087L22.0138 13.7315C21.8755 14.1536 21.703 14.568 21.4652 14.9445C21.1231 15.4567 20.5944 15.8 20.0552 16.0732V16.0722Z" fill="#FFB300"/>
<path fill-rule="evenodd" clip-rule="evenodd" d="M25.04 15.6074H25.0419C25.4513 15.8284 25.8919 16.0029 26.3524 16.0731C26.3079 16.0465 26.2624 16.019 26.2169 15.9925C25.7545 15.7165 25.2826 15.4348 24.9576 14.9957C24.7501 14.7377 24.6117 14.4389 24.4734 14.1402C24.3985 13.978 24.3237 13.8158 24.2374 13.6603C24.1891 14.0785 24.2403 14.5101 24.3521 14.916C24.4412 15.2536 24.7586 15.4414 25.04 15.6074Z" fill="#FFB300"/>
</svg>
