<svg width="55" height="55" viewBox="0 0 55 55" fill="none" xmlns="http://www.w3.org/2000/svg">
<rect x="0.268066" y="0.5" width="54" height="54" rx="27" fill="#FFB300"/>
<rect x="0.268066" y="0.5" width="54" height="54" rx="27" fill="url(#paint0_linear_53_3461)"/>
<path d="M27.2681 17.662C30.4721 17.662 30.8521 17.674 32.1171 17.732C33.4251 17.792 34.7721 18.09 35.7251 19.043C36.6871 20.005 36.9761 21.339 37.0361 22.651C37.0941 23.916 37.1061 24.296 37.1061 27.5C37.1061 30.704 37.0941 31.084 37.0361 32.349C36.9771 33.65 36.6721 35.01 35.7251 35.957C34.7631 36.919 33.4301 37.208 32.1171 37.268C30.8521 37.326 30.4721 37.338 27.2681 37.338C24.0641 37.338 23.6841 37.326 22.4191 37.268C21.1281 37.209 19.7501 36.897 18.8111 35.957C17.8541 35 17.5601 33.653 17.5001 32.349C17.4421 31.084 17.4301 30.704 17.4301 27.5C17.4301 24.296 17.4421 23.916 17.5001 22.651C17.5591 21.355 17.8671 19.987 18.8111 19.043C19.7711 18.083 21.1101 17.792 22.4191 17.732C23.6841 17.674 24.0641 17.662 27.2681 17.662ZM27.2681 15.5C24.0091 15.5 23.6001 15.514 22.3201 15.572C20.4651 15.657 18.6231 16.173 17.2821 17.514C15.9361 18.86 15.4251 20.698 15.3401 22.552C15.2821 23.832 15.2681 24.241 15.2681 27.5C15.2681 30.759 15.2821 31.168 15.3401 32.448C15.4251 34.301 15.9431 36.148 17.2821 37.486C18.6271 38.831 20.4681 39.343 22.3201 39.428C23.6001 39.486 24.0091 39.5 27.2681 39.5C30.5271 39.5 30.9361 39.486 32.2161 39.428C34.0701 39.343 35.9141 38.826 37.2541 37.486C38.6011 36.139 39.1111 34.302 39.1961 32.448C39.2541 31.168 39.2681 30.759 39.2681 27.5C39.2681 24.241 39.2541 23.832 39.1961 22.552C39.1111 20.697 38.5941 18.854 37.2541 17.514C35.9111 16.171 34.0651 15.656 32.2161 15.572C30.9361 15.514 30.5271 15.5 27.2681 15.5Z" fill="white"/>
<path d="M27.268 21.338C23.865 21.338 21.106 24.097 21.106 27.5C21.106 30.903 23.865 33.662 27.268 33.662C30.671 33.662 33.43 30.903 33.43 27.5C33.43 24.097 30.671 21.338 27.268 21.338ZM27.268 31.5C25.059 31.5 23.268 29.709 23.268 27.5C23.268 25.291 25.059 23.5 27.268 23.5C29.477 23.5 31.268 25.291 31.268 27.5C31.268 29.709 29.477 31.5 27.268 31.5Z" fill="white"/>
<path d="M33.6739 22.5341C34.4692 22.5341 35.1139 21.8893 35.1139 21.0941C35.1139 20.2988 34.4692 19.6541 33.6739 19.6541C32.8786 19.6541 32.2339 20.2988 32.2339 21.0941C32.2339 21.8893 32.8786 22.5341 33.6739 22.5341Z" fill="white"/>
<defs>
<linearGradient id="paint0_linear_53_3461" x1="8.07911" y1="2.27999" x2="53.9504" y2="24.0714" gradientUnits="userSpaceOnUse">
<stop stop-color="#FFCC54"/>
<stop offset="1" stop-color="#FFB300"/>
</linearGradient>
</defs>
</svg>
