<svg width="203" height="81" viewBox="0 0 203 81" fill="none" xmlns="http://www.w3.org/2000/svg">
<g clip-path="url(#clip0_53_3424)">
<path fill-rule="evenodd" clip-rule="evenodd" d="M36.3878 35.881C37.1172 36.0343 37.9432 36.0029 38.5521 35.5242C40.8771 33.8656 43.1431 32.1203 45.3224 30.2744C45.4982 30.1199 45.6752 29.9653 45.8522 29.8108C47.2784 28.5631 48.7095 27.3116 49.9662 25.8905C50.3629 25.4482 50.6893 24.9518 50.9742 24.4304C51.9472 22.7818 52.7481 21.0428 53.5478 19.3051C53.6256 19.1367 53.7035 18.9671 53.7813 18.7987C54.001 18.2747 54.2069 17.7457 54.4128 17.2167C54.6099 16.7104 54.8082 16.204 55.0166 15.7026C53.765 16.9642 52.423 18.1265 51.0797 19.2875C50.0565 20.1733 49.0334 21.0592 48.0492 21.989C48.1973 21.5291 48.3743 21.0805 48.5513 20.6319C48.7396 20.1532 48.9279 19.6757 49.0824 19.1844C49.1062 19.104 49.1376 19.0261 49.1677 18.947C49.233 18.7798 49.2983 18.614 49.2995 18.433C48.8802 18.9482 48.4308 19.437 47.9826 19.927C47.788 20.1394 47.5947 20.3505 47.4026 20.5641C44.8592 23.3033 42.3333 26.0588 39.8452 28.8483C39.8941 28.6334 39.9443 28.4198 39.9958 28.205C40.1151 27.6986 40.2343 27.1935 40.3322 26.6833C40.2293 26.726 40.1364 26.7838 40.0711 26.8743C39.3091 27.72 38.4567 28.4739 37.6043 29.2278C37.4034 29.4049 37.2038 29.5821 37.0042 29.7605C35.7174 30.8851 34.4356 32.0185 33.2217 33.221C33.7138 34.5893 34.9956 35.5644 36.3878 35.881Z" fill="#FFB300"/>
<path fill-rule="evenodd" clip-rule="evenodd" d="M56.361 29.3007C58.0307 27.9398 59.7908 26.6846 61.6802 25.648C60.0883 25.5814 58.4915 25.7925 56.9436 26.1543C57.6039 25.3363 58.4977 24.7973 59.3866 24.2595C59.7795 24.022 60.1724 23.7846 60.544 23.5245C59.2685 23.5559 57.9931 23.6488 56.7276 23.8109C57.29 23.145 57.7809 22.4225 58.2517 21.6899C57.6629 21.896 57.1256 22.2277 56.6109 22.5745C56.2681 22.7906 56.0673 23.1387 55.8689 23.483C55.8074 23.5898 55.7459 23.6953 55.6819 23.7971C55.309 24.4518 54.9023 25.085 54.4955 25.7196C54.4265 25.8264 54.3574 25.9344 54.2884 26.0425C55.024 25.7761 55.7647 25.5211 56.5042 25.2672C56.6611 25.2132 56.8193 25.1592 56.9775 25.1052C56.7829 25.2823 56.5833 25.4557 56.3836 25.6291C55.9053 26.0438 55.4258 26.4597 55.0115 26.9409C54.1616 27.828 53.5703 28.9149 52.9878 29.9867C52.9539 30.0508 52.9187 30.1136 52.8836 30.1777C52.3136 31.4581 51.6973 32.7309 50.8248 33.8367C49.6484 35.3948 48.1621 36.699 46.5326 37.7658C46.2727 37.943 46.0116 38.1189 45.7504 38.2948C44.2854 39.2812 42.8128 40.2725 41.575 41.5416C41.4884 41.6321 41.398 41.7213 41.3076 41.8118C40.9649 42.151 40.6171 42.4966 40.4037 42.9238C40.4163 43.0143 40.4288 43.106 40.4426 43.1965C40.4891 43.5169 40.5355 43.8385 40.5431 44.1627C41.3277 43.2517 42.2943 42.5129 43.2848 41.8382C45.0085 40.7211 46.9129 39.7348 48.9969 39.5903C48.8726 39.7008 48.7257 39.78 48.5763 39.8491L48.5726 39.8592C48.4244 39.9383 48.2763 40.0175 48.1282 40.0966C46.9242 40.7375 45.7128 41.382 44.6545 42.2516C43.1819 43.4377 41.8625 44.8098 40.6887 46.2913C39.8513 47.3832 39.078 48.5505 38.5733 49.8346C39.0429 49.0707 39.6254 48.3884 40.2053 47.7073C40.3535 47.5327 40.5016 47.3593 40.6485 47.1846C41.8386 45.7623 43.202 44.4768 44.7298 43.4214C44.4913 43.7255 44.2151 43.9931 43.9389 44.2607C43.7067 44.4856 43.4744 44.7118 43.2648 44.9581C42.1085 46.2485 41.0352 47.6131 40.0622 49.0468C37.7473 52.3778 35.5051 55.8056 33.9673 59.5776C34.4305 58.629 34.9314 57.6992 35.4625 56.7869C36.1906 55.5028 37.0493 54.3015 37.908 53.1028C38.0862 52.854 38.2645 52.6052 38.4403 52.3552C39.8199 50.4579 41.3879 48.7176 42.9559 46.9773C43.7933 46.0487 44.6306 45.1189 45.4391 44.1652C45.5056 44.1024 45.5784 44.0446 45.655 43.9931C45.8747 44.0848 46.1007 44.1627 46.3254 44.2394C46.5627 44.321 46.7987 44.4027 47.0297 44.5007C48.5964 45.1466 50.0615 46.0362 51.3809 47.0979C50.8335 46.0236 50.4557 44.8513 50.3364 43.6475C50.418 43.6903 50.4996 43.7317 50.5825 43.7745C50.8185 43.8951 51.0557 44.0157 51.2842 44.1539C53.0405 45.1315 54.3813 46.677 55.6367 48.215C55.766 48.3884 55.8978 48.5605 56.0284 48.7327C56.8682 49.8409 57.7131 50.9542 58.3308 52.2032C57.8612 50.0822 57.3189 47.975 56.6297 45.913C56.5657 45.7308 56.5029 45.5499 56.4401 45.3677C55.9807 44.0433 55.5199 42.719 54.9425 41.4424C54.2419 39.8579 53.5188 38.2584 52.4706 36.8686C52.8911 36.9051 53.3004 37.0144 53.6984 37.1564C55.4584 37.7658 57.1093 38.6856 58.5542 39.8617C57.7985 37.9392 56.8808 36.0557 55.6254 34.4084C55.7936 34.4247 55.9669 34.4423 56.1238 34.5114C56.9373 34.8356 57.7169 35.2528 58.4212 35.773C58.4789 35.8182 58.5392 35.8597 58.6007 35.9024C58.7589 36.0117 58.9195 36.121 59.0162 36.2907C59.0363 36.1776 58.9823 36.0796 58.9283 35.9803C58.8944 35.92 58.8618 35.8584 58.8455 35.7931C58.4325 34.6697 57.7232 33.6922 57.0201 32.7347C57.7746 32.5601 58.5379 32.4156 59.3163 32.4093C58.4538 31.2646 57.4394 30.2456 56.3648 29.3032L56.361 29.3007Z" fill="#FFB300"/>
<path fill-rule="evenodd" clip-rule="evenodd" d="M13.4478 27.3932C15.9347 29.7806 18.5522 32.0386 21.3467 34.0616C22.0924 34.6295 22.8544 35.1761 23.6554 35.6636C24.0257 35.8948 24.4739 35.9715 24.9058 35.9639C26.5114 35.9275 27.9915 34.7853 28.4899 33.2675C28.4598 33.1343 28.3518 33.0476 28.2451 32.9634C28.1949 32.9232 28.1459 32.8842 28.1045 32.8402C27.3676 32.1441 26.6093 31.4706 25.8498 30.7971C24.3747 29.4879 22.8996 28.1786 21.5852 26.7034C21.6781 27.4209 21.7761 28.1434 21.9857 28.8382C21.9142 28.8005 21.8489 28.7553 21.7911 28.7025C20.4529 27.2701 19.1008 25.8502 17.7475 24.4304C17.0922 23.7431 16.4381 23.057 15.7853 22.3684C14.7044 21.2238 13.6599 20.0451 12.6167 18.8665C12.4949 18.7296 12.3744 18.5926 12.2539 18.4569C12.4246 19.1178 12.6594 19.7587 12.8941 20.3982C13.0624 20.8569 13.2306 21.3155 13.3762 21.7816C12.7334 21.2175 12.0831 20.6621 11.4341 20.1067C9.9339 18.8238 8.4337 17.5409 7.02138 16.16C6.99502 16.1349 6.96991 16.1085 6.94355 16.0821C6.83307 15.9678 6.72009 15.8522 6.56567 15.7994C7.69679 18.8452 9.17941 21.754 10.8767 24.5221C11.6061 25.5851 12.5313 26.4961 13.4503 27.397L13.4478 27.3932Z" fill="#FFB300"/>
<path fill-rule="evenodd" clip-rule="evenodd" d="M14.117 29.8912C13.9914 30.6376 13.9224 31.4053 14.0755 32.1542C14.407 34.2941 16.4608 36.0582 18.6439 35.9213C19.4562 35.925 20.1994 35.5619 20.9024 35.1975C20.7706 35.0316 20.5923 34.9186 20.4166 34.8042C20.34 34.7552 20.2621 34.7049 20.1893 34.6509C19.539 34.7665 18.8611 34.8356 18.2121 34.676C17.2831 34.4888 16.4533 33.8618 16.0176 33.0225C15.6661 32.4118 15.685 31.683 15.7603 31.007C15.2104 30.6389 14.6631 30.2657 14.1182 29.8912H14.117Z" fill="#FFB300"/>
<path fill-rule="evenodd" clip-rule="evenodd" d="M44.1813 34.47C43.3528 34.8595 42.3899 34.8633 41.5124 34.6597C41.3316 34.7502 41.1709 34.8708 41.0115 34.9927C40.9587 35.0316 40.9073 35.0718 40.8533 35.1095C41.8425 35.734 43.0402 36.1097 44.2089 35.8396C45.7016 35.5229 46.9558 34.3657 47.4755 32.9433C47.8471 31.9733 47.9199 30.899 47.6977 29.8849C47.3826 30.0533 47.08 30.2431 46.7762 30.4328C46.5264 30.5886 46.2778 30.7444 46.0217 30.8889C46.0745 31.3827 46.092 31.8878 45.969 32.3729C45.7167 33.2876 45.0526 34.0855 44.1826 34.47H44.1813Z" fill="#FFB300"/>
<path fill-rule="evenodd" clip-rule="evenodd" d="M37.5553 50.3511C38.6174 48.3193 39.6807 46.2887 40.5406 44.1602C40.5331 43.836 40.4867 43.5144 40.4402 43.1939C40.4276 43.1035 40.4138 43.0118 40.4013 42.9213C38.8044 40.8418 36.6753 39.2095 34.3917 37.9505L34.3114 37.9103C33.2719 37.3851 32.1935 36.841 31.0134 36.7681L31.0323 36.8561L31.0147 36.7744C29.5773 37.1011 28.185 37.6263 26.8907 38.3337C25.383 39.114 24.1037 40.2562 22.8998 41.4361C22.7931 41.5517 22.6826 41.666 22.5734 41.7791C22.1817 42.1862 21.7875 42.5946 21.5063 43.0859C21.4762 43.3787 21.4699 43.6764 21.5402 43.9667C21.9357 44.9179 22.3487 45.8628 22.8207 46.78C23.7773 48.6686 24.6862 50.5785 25.5826 52.4959C26.5555 54.4825 27.5021 56.4841 28.3005 58.5486C28.6106 59.2409 28.8265 59.9684 29.0111 60.7022C29.1705 61.2564 29.3199 61.813 29.4693 62.3696C29.8635 63.8372 30.2577 65.3048 30.8239 66.7172C30.8766 66.8504 30.9507 66.976 31.0297 67.0991C31.036 67.064 31.0436 67.0288 31.0511 66.9949C31.0436 67.03 31.0373 67.0652 31.0297 67.0991C31.0436 67.1318 31.0649 67.1821 31.0862 67.2323L31.0913 67.2436C31.1113 67.2927 31.1327 67.3391 31.1452 67.3718C31.2256 67.2688 31.272 67.1444 31.3172 67.02C31.3423 66.9509 31.3674 66.8818 31.3988 66.8177C32.0567 65.09 32.535 63.3045 33.012 61.519C33.1589 60.9711 33.3058 60.4245 33.4577 59.878C34.0352 57.9769 34.7156 56.1021 35.5567 54.3003C36.1869 52.9671 36.8711 51.6591 37.5553 50.3511Z" fill="#FFB300"/>
<path fill-rule="evenodd" clip-rule="evenodd" d="M27.4845 57.4893C25.9089 54.4862 24.1627 51.5711 22.2168 48.7942C20.9602 47.0451 19.5253 45.4054 17.838 44.0597C18.7318 44.5597 19.5152 45.2282 20.2923 45.8929C20.3664 45.9557 20.4404 46.0198 20.5145 46.0826C21.7235 47.2009 22.9048 48.3896 23.7647 49.807C23.6781 49.4426 23.4998 49.1121 23.3228 48.7842C23.255 48.6585 23.1872 48.5328 23.1245 48.4059C22.8006 47.7375 22.3399 47.1507 21.8816 46.5702C20.4982 44.904 18.8473 43.4766 17.081 42.2302C16.2888 41.6434 15.4352 41.1533 14.5815 40.6633C14.3003 40.5025 14.0203 40.3404 13.7416 40.177C13.6249 40.0916 13.5044 40.0124 13.3851 39.9333C13.3462 39.9069 13.3073 39.8817 13.2684 39.8554C16.3089 40.4773 19.3194 41.7414 21.5402 43.9679C21.4699 43.6777 21.4761 43.3799 21.5063 43.0871C21.4837 42.9753 21.4083 42.8898 21.3355 42.8069C21.328 42.7981 21.3205 42.7893 21.3117 42.7793C21.3016 42.768 21.2929 42.7566 21.2828 42.7453C20.0726 41.4411 18.6804 40.3215 17.2216 39.3088C16.8337 39.021 16.4407 38.7383 16.0465 38.4556C14.8728 37.6125 13.6964 36.7681 12.652 35.7654C11.4543 34.6747 10.4726 33.3579 9.7206 31.923C9.5574 31.6239 9.40675 31.3173 9.25485 31.0095C8.86191 30.2091 8.46772 29.4087 7.85383 28.7528C6.75661 27.5604 5.50624 26.5049 4.1479 25.6253C4.91745 25.7585 5.66818 25.9809 6.41765 26.2021C6.70514 26.2862 6.99263 26.3717 7.28137 26.4521C6.95496 25.898 6.65743 25.3263 6.36116 24.7546C5.98454 24.027 5.60667 23.3008 5.16728 22.6084C5.0455 22.4237 4.88105 22.2667 4.68018 22.1712C3.97967 21.8168 3.18501 21.6949 2.40666 21.6824C2.96029 22.2616 3.44362 22.9025 3.92569 23.5408C3.99348 23.6312 4.06127 23.7204 4.12907 23.8109C2.91008 23.5986 1.67351 23.5219 0.439453 23.4629C1.86056 24.0936 3.15237 25.0473 4.09894 26.29C2.92765 26.0827 1.72749 25.9721 0.548673 26.1857C0.754558 26.3051 0.967975 26.4094 1.18265 26.5137C1.47264 26.6557 1.76264 26.7964 2.03255 26.9736C2.1945 27.0753 2.35644 27.1771 2.51965 27.2789C3.52145 27.9046 4.53079 28.5342 5.39074 29.3484C4.44793 30.3109 3.5315 31.311 2.82345 32.4633C3.08081 32.5085 3.34068 32.5424 3.60054 32.5764C3.97214 32.6254 4.34499 32.6731 4.71157 32.756C4.61114 32.9847 4.46802 33.1883 4.32616 33.3918C4.24958 33.5012 4.173 33.6105 4.1027 33.7236C3.54907 34.5466 3.07579 35.4224 2.6841 36.3333C3.92569 35.4726 5.28529 34.676 6.80683 34.4674C6.70514 34.5993 6.59843 34.7263 6.49172 34.8532C6.40761 34.9524 6.3235 35.053 6.2419 35.1547C5.05429 36.611 4.24456 38.3274 3.5679 40.069C5.24511 38.6064 7.3115 37.5283 9.51848 37.1727C8.60958 38.4795 7.95426 39.9395 7.30271 41.3883V41.3896C7.24371 41.5215 7.18345 41.6534 7.12444 41.7854C6.09251 44.2506 5.31416 46.8064 4.53707 49.3609C4.21945 50.4025 3.90309 51.4455 3.56916 52.4808C4.58226 50.6865 5.93056 49.1134 7.26505 47.554L7.31024 47.5012C8.59577 46.0965 9.97294 44.7269 11.6351 43.7769C11.507 44.1175 11.3363 44.4379 11.1656 44.7595C11.0425 44.992 10.9183 45.2257 10.8103 45.4657C10.391 46.3088 10.0596 47.1896 9.72813 48.0692C9.62143 48.3519 9.51597 48.6346 9.40675 48.9148C10.229 47.8531 11.2421 46.9609 12.2841 46.1229C13.5433 45.1453 14.8979 44.2418 16.4144 43.7166C16.55 43.8624 16.6868 44.0094 16.8224 44.1551C18.4017 45.8514 19.981 47.549 21.4535 49.3408C23.8915 52.2936 26.3057 55.3168 28.0494 58.7445C28.0331 58.7056 28.0155 58.6666 27.9992 58.6277C27.8347 58.2432 27.6703 57.8587 27.4782 57.488L27.4845 57.4893Z" fill="#FFB300"/>
<path fill-rule="evenodd" clip-rule="evenodd" d="M26.8379 36.9428C27.6037 36.792 28.3845 36.5369 28.9934 36.033C29.5759 35.5405 29.5696 34.7212 29.5646 34.0075C29.5646 33.9409 29.5646 33.8756 29.5646 33.8115L29.4328 33.8417C29.2495 34.4008 29.021 34.9499 28.7059 35.4488C28.2527 36.1273 27.5522 36.5821 26.8379 36.944V36.9428Z" fill="#FFB300"/>
<path fill-rule="evenodd" clip-rule="evenodd" d="M33.4427 36.3271H33.4452C33.9875 36.6198 34.5713 36.851 35.1814 36.944C35.1224 36.9088 35.0621 36.8724 35.0019 36.8372C34.3892 36.4716 33.764 36.0984 33.3334 35.5166C33.0585 35.1748 32.8752 34.779 32.6919 34.3832C32.5928 34.1684 32.4936 33.9535 32.3793 33.7474C32.3153 34.3016 32.3831 34.8733 32.5312 35.4111C32.6493 35.8584 33.0698 36.1072 33.4427 36.3271Z" fill="#FFB300"/>
<path d="M76.3382 28.7217C76.3056 28.4075 76.4863 27.9954 76.863 28.0633C77.4166 27.9766 78.0782 28.209 78.2665 28.782C78.3908 29.9392 78.2037 31.1191 78.3632 32.2726C80.825 32.3078 83.2868 32.2738 85.7474 32.2902C86.0186 32.2814 86.3299 32.3316 86.5471 32.1268C88.1276 30.9218 89.6806 29.6779 91.2636 28.4741C91.8424 28.0595 92.5818 28.0281 93.2672 28.067C93.5635 28.062 93.9113 28.2681 93.8435 28.6086C93.9087 28.978 93.5321 29.1677 93.2923 29.365C91.6541 30.6102 90.0396 31.8881 88.4063 33.1396C88.218 33.2238 88.2381 33.4914 88.4227 33.5693C90.0672 34.8422 91.708 36.1238 93.3702 37.3753C93.5196 37.4909 93.6639 37.6153 93.787 37.7573C93.92 38.0526 93.8711 38.5225 93.4857 38.5816C93.0262 38.6607 92.5466 38.6431 92.0859 38.569C91.4005 38.4597 90.9109 37.9269 90.3748 37.5361C89.206 36.6101 88.0046 35.728 86.8409 34.7944C86.5634 34.5733 86.2458 34.3408 85.8717 34.3672C83.4852 34.371 81.0987 34.3647 78.7097 34.3697C78.5465 34.3697 78.2791 34.4438 78.3092 34.6587C78.274 35.7167 78.3418 36.7772 78.2778 37.8327C78.1096 38.6268 77.094 38.7638 76.4462 38.5326C76.3947 38.3139 76.3206 38.0965 76.3344 37.8691C76.3395 34.8221 76.3357 31.7725 76.3357 28.7229L76.3382 28.7217Z" fill="#191919"/>
<path d="M101.869 28.2216C102.296 28.1437 102.722 28.0419 103.16 28.0583C105.668 28.0658 108.179 28.052 110.687 28.0645C112.919 28.15 114.998 29.8387 115.426 32.0515C115.494 32.8745 115.486 33.705 115.438 34.5293C115.077 36.786 112.944 38.5552 110.678 38.6092C108.088 38.6268 105.497 38.623 102.906 38.6092C101.41 38.5828 99.971 37.8289 99.0697 36.6403C98.27 35.6803 97.9524 34.4012 98.0227 33.1685C97.9386 30.8879 99.6534 28.7154 101.868 28.2216H101.869ZM101.966 30.3414C101.191 30.6077 100.511 31.1945 100.208 31.9635C99.9058 32.5679 100.005 33.2602 100.002 33.9124C100.099 35.3021 101.396 36.5033 102.793 36.4631C105.299 36.4757 107.805 36.4631 110.31 36.4681C110.82 36.4618 111.351 36.487 111.823 36.2633C112.82 35.8662 113.528 34.8573 113.571 33.7867C113.583 33.2389 113.62 32.6697 113.425 32.147C113.07 31.0488 111.97 30.1969 110.803 30.2371C108.173 30.2308 105.544 30.2345 102.914 30.2371C102.597 30.2521 102.263 30.2157 101.965 30.3426L101.966 30.3414Z" fill="#191919"/>
<path d="M120.176 28.2204C120.513 27.9955 120.93 28.0696 121.312 28.0596C121.767 28.0508 122.219 28.1915 122.612 28.4189C126.677 31.1041 130.742 33.7905 134.812 36.4682C134.954 36.6378 135.265 36.5963 135.259 36.3463C135.279 33.8886 135.242 31.4296 135.277 28.9718C135.283 28.3247 136.024 27.9679 136.597 28.0583C136.866 28.0143 137.209 28.1588 137.162 28.4818C137.175 31.4848 137.165 34.4879 137.167 37.4922C137.224 38.0074 136.837 38.5226 136.317 38.5829C135.581 38.6759 134.762 38.6721 134.128 38.2286C130.096 35.5622 126.057 32.9085 122.029 30.2371C121.913 30.1454 121.765 30.1303 121.626 30.1027C121.597 32.5667 121.621 35.032 121.614 37.496C121.641 37.927 121.347 38.3354 120.973 38.5238C120.586 38.6344 120.14 38.701 119.764 38.5314C119.604 38.3906 119.643 38.1745 119.637 37.9886C119.642 35.0659 119.637 32.1407 119.639 29.2181C119.618 28.8223 119.81 28.4026 120.176 28.2217V28.2204Z" fill="#191919"/>
<path d="M141.347 28.5999C141.298 28.3385 141.502 28.052 141.777 28.0646C145.599 28.0596 149.423 28.0646 153.244 28.0621C154.085 28.0257 154.939 28.1337 155.728 28.4378C157.436 29.1377 158.758 30.8126 158.869 32.6798C158.893 33.3746 158.921 34.0833 158.755 34.7631C158.25 36.9105 156.209 38.5929 153.992 38.6156C149.961 38.6294 145.929 38.6156 141.895 38.6218C141.647 38.6445 141.334 38.5238 141.357 38.2273C141.34 36.4581 141.358 34.689 141.348 32.9185C141.338 32.7263 141.37 32.5365 141.446 32.3594C142.097 32.1872 143.083 32.2438 143.271 33.0417C143.409 34.1713 143.253 35.3273 143.351 36.4632C146.936 36.4757 150.521 36.4732 154.104 36.4657C155.181 36.5059 156.2 35.8135 156.65 34.851C157.018 34.1386 156.898 33.3131 156.881 32.5441C156.706 31.608 156.023 30.7799 155.143 30.4193C154.742 30.2384 154.293 30.2095 153.862 30.1655C150.326 30.1592 146.792 30.1655 143.26 30.1655C142.837 30.1554 142.407 30.1994 141.992 30.1102C141.404 29.8652 141.289 29.1691 141.347 28.6024V28.5999Z" fill="#191919"/>
<path d="M167.388 28.1198C167.616 28.0721 167.849 28.057 168.083 28.057C170.55 28.0595 173.016 28.0595 175.483 28.0583C176.626 28.1073 177.792 28.4566 178.657 29.2318C179.942 30.2421 180.624 31.912 180.501 33.5354C180.598 36.149 178.308 38.5527 175.698 38.6004C173.119 38.6331 170.538 38.6117 167.957 38.6117C165.905 38.6029 163.949 37.212 163.276 35.2707C162.995 34.6474 163.065 33.9538 163.049 33.2891C163.067 32.6973 163 32.0779 163.241 31.5174C163.814 29.7131 165.512 28.3322 167.388 28.1198ZM167.009 30.3112C166.132 30.57 165.395 31.2523 165.1 32.1218C164.881 32.6483 164.949 33.2326 164.948 33.788C164.992 35.2154 166.276 36.497 167.717 36.4606C170.388 36.4719 173.058 36.4694 175.728 36.4606C177.213 36.5058 178.579 35.1475 178.524 33.6573C178.51 33.1409 178.583 32.5968 178.373 32.108C177.995 31.0249 176.899 30.1755 175.731 30.2345C173.101 30.2295 170.472 30.232 167.842 30.2345C167.563 30.2471 167.276 30.222 167.009 30.3125V30.3112Z" fill="#191919"/>
<path d="M184.699 28.2153C184.874 28.1273 185.049 28.0243 185.257 28.0532C189.45 28.0595 193.643 28.0545 197.837 28.0557C198.797 28.0356 199.844 28.0092 200.669 28.5834C201.977 29.4102 202.601 31.246 201.911 32.6621C201.373 33.8093 200.055 34.4614 198.817 34.3596C198.542 34.3961 198.177 34.2415 197.995 34.5192C199.291 35.6023 200.684 36.5673 201.982 37.6492C202.358 37.9068 202.183 38.5087 201.759 38.5891C201.331 38.6444 200.888 38.6356 200.459 38.5815C199.859 38.5036 199.404 38.0789 198.943 37.7284C197.801 36.8576 196.672 35.9692 195.535 35.0909C195.129 34.7705 194.682 34.4225 194.137 34.4313C191.659 34.4011 189.181 34.435 186.703 34.4149C186.535 35.6099 186.822 36.845 186.53 38.0236C186.186 38.6682 185.332 38.7172 184.713 38.5087C184.645 36.8475 184.698 35.1827 184.684 33.5216C184.624 32.9398 185.161 32.3957 185.746 32.4623C190.232 32.4573 194.716 32.4623 199.202 32.4598C199.671 32.4573 200.039 32.0753 200.236 31.677C200.346 31.1379 200.044 30.5914 199.603 30.2961C199.297 30.0975 198.92 30.1641 198.579 30.1528C194.303 30.1528 190.028 30.1566 185.752 30.1528C185.277 30.2157 184.886 29.8651 184.722 29.4479C184.645 29.0408 184.685 28.6237 184.699 28.2128V28.2153Z" fill="#191919"/>
<path d="M156.412 53.223C155.924 53.223 155.459 53.1502 155.015 53.0029C154.57 52.8506 154.22 52.6559 153.964 52.4172L154.303 51.7046C154.546 51.9179 154.856 52.0939 155.234 52.2344C155.612 52.3749 156.004 52.4443 156.412 52.4443C156.784 52.4443 157.085 52.402 157.316 52.3157C157.548 52.2294 157.717 52.1142 157.827 51.9687C157.937 51.8163 157.991 51.6454 157.991 51.4575C157.991 51.2374 157.918 51.0614 157.773 50.9277C157.633 50.7939 157.447 50.6873 157.215 50.6077C156.99 50.5231 156.741 50.4486 156.467 50.3877C156.193 50.3267 155.916 50.2573 155.635 50.1778C155.361 50.0931 155.109 49.9865 154.878 49.8579C154.653 49.7292 154.47 49.5599 154.33 49.3467C154.189 49.1266 154.12 48.8473 154.12 48.5054C154.12 48.1635 154.204 47.874 154.375 47.5998C154.551 47.3188 154.82 47.097 155.179 46.9328C155.544 46.7619 156.007 46.6772 156.567 46.6772C156.939 46.6772 157.306 46.7263 157.671 46.8228C158.037 46.921 158.355 47.0598 158.622 47.2426L158.321 47.9739C158.047 47.7911 157.758 47.6607 157.453 47.5812C157.149 47.4965 156.853 47.4525 156.567 47.4525C156.209 47.4525 155.913 47.4982 155.681 47.5896C155.449 47.681 155.28 47.8029 155.17 47.9552C155.067 48.1076 155.015 48.2786 155.015 48.4664C155.015 48.6916 155.084 48.871 155.224 49.0064C155.371 49.1401 155.556 49.2468 155.782 49.3263C156.012 49.4059 156.266 49.4787 156.54 49.5464C156.814 49.6073 157.088 49.6767 157.362 49.7563C157.641 49.8359 157.895 49.9391 158.12 50.0678C158.351 50.1964 158.537 50.3657 158.676 50.579C158.816 50.7922 158.887 51.0665 158.887 51.4016C158.887 51.7368 158.798 52.0262 158.622 52.3072C158.446 52.5814 158.172 52.8032 157.8 52.9741C157.435 53.1383 156.971 53.2213 156.412 53.2213V53.223Z" fill="#FFB200"/>
<path d="M149.263 49.5109H152.551V50.2879H149.263V49.5109ZM149.344 52.353H153.072V53.1486H148.431V46.7501H152.943V47.5457H149.344V52.353Z" fill="#FFB200"/>
<path d="M144.69 53.2231C144.203 53.2231 143.753 53.1436 143.339 52.9861C142.931 52.8219 142.574 52.5934 142.27 52.3006C141.972 52.0027 141.737 51.654 141.566 51.2579C141.397 50.8618 141.311 50.4267 141.311 49.9511C141.311 49.4754 141.397 49.0404 141.566 48.6443C141.737 48.2482 141.975 47.9046 142.28 47.6118C142.584 47.3138 142.939 47.0853 143.347 46.9262C143.761 46.762 144.213 46.6791 144.7 46.6791C145.187 46.6791 145.645 46.7637 146.06 46.9347C146.481 47.0989 146.836 47.346 147.129 47.6744L146.535 48.2499C146.291 47.9943 146.017 47.8047 145.713 47.6829C145.409 47.5542 145.082 47.4916 144.735 47.4916C144.389 47.4916 144.042 47.5525 143.731 47.6744C143.427 47.7963 143.163 47.9672 142.936 48.1856C142.711 48.404 142.535 48.6663 142.407 48.971C142.285 49.2689 142.224 49.5956 142.224 49.9494C142.224 50.3032 142.285 50.6316 142.407 50.9363C142.535 51.2342 142.711 51.4932 142.936 51.7132C143.163 51.9333 143.427 52.1025 143.731 52.2244C144.042 52.3463 144.377 52.4072 144.735 52.4072C145.094 52.4072 145.409 52.3463 145.713 52.2244C146.017 52.0958 146.291 51.9011 146.535 51.6387L147.129 52.2143C146.836 52.5426 146.481 52.7932 146.06 52.9641C145.645 53.1351 145.189 53.2197 144.69 53.2197V53.2231Z" fill="#FFB200"/>
<path d="M139.006 53.1486V46.7501H139.919V53.1486H139.006Z" fill="#FFB200"/>
<path d="M134.483 53.1486L131.671 46.7501H132.657L135.241 52.6543H134.674L137.277 46.7501H138.191L135.386 53.1486H134.482H134.483Z" fill="#FFB200"/>
<path d="M127.44 49.5109H130.727V50.2879H127.44V49.5109ZM127.523 52.353H131.248V53.1486H126.609V46.7501H131.12V47.5457H127.521V52.353H127.523Z" fill="#FFB200"/>
<path d="M119.065 53.1486V46.7501H121.759C122.44 46.7501 123.041 46.8838 123.558 47.153C124.083 47.4204 124.487 47.7962 124.773 48.2769C125.065 48.7577 125.211 49.3163 125.211 49.9494C125.211 50.5824 125.065 51.141 124.773 51.6218C124.487 52.1025 124.083 52.4783 123.558 52.7457C123.041 53.0132 122.44 53.1486 121.759 53.1486H119.065ZM119.978 52.353H121.705C122.234 52.353 122.691 52.2531 123.075 52.0517C123.464 51.8503 123.766 51.571 123.979 51.2104C124.192 50.8448 124.299 50.425 124.299 49.9494C124.299 49.4737 124.192 49.0471 123.979 48.6883C123.766 48.3294 123.465 48.0484 123.075 47.847C122.691 47.6456 122.234 47.5457 121.705 47.5457H119.978V52.353Z" fill="#FFB200"/>
<path d="M112.442 53.2231C111.948 53.2231 111.495 53.1436 111.081 52.9861C110.666 52.8219 110.308 52.5934 110.003 52.3006C109.699 52.0027 109.462 51.654 109.291 51.2579C109.12 50.8618 109.036 50.4267 109.036 49.9511C109.036 49.4754 109.12 49.0404 109.291 48.6443C109.462 48.2482 109.699 47.9046 110.003 47.6118C110.314 47.3138 110.676 47.0853 111.091 46.9262C111.505 46.762 111.962 46.6791 112.461 46.6791C112.959 46.6791 113.428 46.762 113.849 46.9262C114.268 47.0904 114.625 47.3375 114.918 47.6659L114.351 48.233C114.089 47.9774 113.803 47.7912 113.492 47.6761C113.188 47.5542 112.856 47.4933 112.496 47.4933C112.136 47.4933 111.789 47.5542 111.473 47.6761C111.162 47.798 110.891 47.9689 110.659 48.1873C110.435 48.4056 110.257 48.668 110.13 48.9727C110.008 49.2706 109.947 49.5973 109.947 49.9511C109.947 50.3049 110.008 50.6248 110.13 50.9295C110.259 51.2274 110.435 51.4898 110.659 51.7149C110.891 51.935 111.162 52.1042 111.473 52.2261C111.784 52.348 112.121 52.4089 112.486 52.4089C112.828 52.4089 113.152 52.3564 113.463 52.2532C113.78 52.1432 114.072 51.9637 114.34 51.7132L114.86 52.4072C114.544 52.6747 114.172 52.8795 113.746 53.02C113.326 53.1537 112.89 53.2214 112.44 53.2214L112.442 53.2231ZM113.986 52.2904V49.9139H114.862V52.4089L113.986 52.2904Z" fill="#FFB200"/>
<path d="M102.146 53.1486V46.7501H102.895L107.123 52.006H106.731V46.7501H107.644V53.1486H106.895L102.667 47.8927H103.059V53.1486H102.146Z" fill="#FFB200"/>
<path d="M99.3198 53.1486V46.7501H100.233V53.1486H99.3198Z" fill="#FFB200"/>
<path d="M90.5984 53.1486V46.7501H91.3476L94.2159 51.5862H93.8134L96.6445 46.7501H97.3937L97.4021 53.1486H96.5261L96.5176 48.1314H96.7273L94.2074 52.3716H93.788L91.2495 48.1314H91.4778V53.1486H90.6018H90.5984Z" fill="#FFB200"/>
<path d="M82.9402 53.1486L85.8355 46.7501H86.7403L89.6441 53.1486H88.6852L86.1011 47.263H86.4664L83.8822 53.1486H82.9419H82.9402ZM84.1731 51.549L84.42 50.8177H88.0172L88.2827 51.549H84.1731Z" fill="#FFB200"/>
<path d="M79.7406 53.2232C79.2467 53.2232 78.7935 53.1436 78.3791 52.9862C77.9648 52.822 77.6063 52.5935 77.3018 52.3006C76.9974 52.0027 76.7606 51.654 76.5898 51.2579C76.419 50.8618 76.3345 50.4268 76.3345 49.9512C76.3345 49.4755 76.419 49.0405 76.5898 48.6444C76.7606 48.2483 76.9974 47.9047 77.3018 47.6118C77.613 47.3139 77.9749 47.0854 78.3893 46.9263C78.8036 46.7621 79.2603 46.6791 79.7592 46.6791C80.2581 46.6791 80.7265 46.7621 81.1476 46.9263C81.5671 47.0905 81.9239 47.3376 82.2165 47.666L81.6499 48.233C81.3878 47.9774 81.102 47.7913 80.7908 47.6761C80.4864 47.5543 80.1549 47.4933 79.7947 47.4933C79.4345 47.4933 79.0878 47.5543 78.7715 47.6761C78.4603 47.798 78.1897 47.969 77.958 48.1873C77.7331 48.4057 77.5555 48.6681 77.4287 48.9728C77.3069 49.2707 77.246 49.5974 77.246 49.9512C77.246 50.3049 77.3069 50.6249 77.4287 50.9295C77.5572 51.2275 77.7331 51.4898 77.958 51.715C78.1897 51.935 78.4603 52.1043 78.7715 52.2262C79.0827 52.348 79.4192 52.409 79.7845 52.409C80.1262 52.409 80.4509 52.3565 80.7621 52.2532C81.0783 52.1432 81.3709 51.9638 81.6381 51.7133L82.159 52.4073C81.8427 52.6747 81.4707 52.8796 81.0445 53.02C80.6251 53.1538 80.1887 53.2215 79.7389 53.2215L79.7406 53.2232ZM81.2829 52.2905V49.9139H82.159V52.409L81.2829 52.2905Z" fill="#FFB200"/>
</g>
<defs>
<clipPath id="clip0_53_3424">
<rect width="202" height="81" fill="white" transform="translate(0.268066)"/>
</clipPath>
</defs>
</svg>
