<svg width="55" height="55" viewBox="0 0 55 55" fill="none" xmlns="http://www.w3.org/2000/svg">
<rect x="0.268066" y="0.5" width="54" height="54" rx="27" fill="#FFB300"/>
<rect x="0.268066" y="0.5" width="54" height="54" rx="27" fill="url(#paint0_linear_53_3466)"/>
<path fill-rule="evenodd" clip-rule="evenodd" d="M27.2681 15.5C20.6411 15.5 15.2681 20.873 15.2681 27.5C15.2681 34.127 20.6411 39.5 27.2681 39.5C33.8951 39.5 39.2681 34.127 39.2681 27.5C39.2681 20.873 33.8951 15.5 27.2681 15.5ZM32.8301 23.661C32.6501 25.558 31.8681 30.163 31.4711 32.288C31.3031 33.188 30.9711 33.489 30.6511 33.518C29.9541 33.582 29.4251 33.057 28.7501 32.615C27.6941 31.923 27.0971 31.492 26.0721 30.816C24.8871 30.035 25.6551 29.606 26.3301 28.905C26.5071 28.721 29.5771 25.928 29.6371 25.675C29.6441 25.643 29.6521 25.525 29.5811 25.463C29.5101 25.401 29.4071 25.422 29.3331 25.439C29.2271 25.463 27.5401 26.578 24.2711 28.784C23.7921 29.113 23.3581 29.273 22.9691 29.265C22.5411 29.256 21.7171 29.023 21.1041 28.823C20.3531 28.579 19.7551 28.449 19.8071 28.035C19.8341 27.819 20.1311 27.598 20.6991 27.372C24.1971 25.848 26.5301 24.843 27.6971 24.357C31.0301 22.971 31.7221 22.73 32.1741 22.722C32.7401 22.714 32.8761 23.181 32.8301 23.661Z" fill="white"/>
<defs>
<linearGradient id="paint0_linear_53_3466" x1="8.07911" y1="2.27999" x2="53.9504" y2="24.0714" gradientUnits="userSpaceOnUse">
<stop stop-color="#FFCC54"/>
<stop offset="1" stop-color="#FFB300"/>
</linearGradient>
</defs>
</svg>
